<?xml version="1.0" standalone="no"?>
<!DOCTYPE svg PUBLIC "-//W3C//DTD SVG 1.1//EN" "http://www.w3.org/Graphics/SVG/1.1/DTD/svg11.dtd" >
<svg xmlns="http://www.w3.org/2000/svg" xmlns:xlink="http://www.w3.org/1999/xlink" version="1.1">
<metadata></metadata>
<defs>
<font id="triumpbold" horiz-adv-x="1271" >
<font-face units-per-em="2048" ascent="1536" descent="-512" />
<missing-glyph horiz-adv-x="380" />
<glyph horiz-adv-x="0" />
<glyph horiz-adv-x="682" />
<glyph unicode=" "  horiz-adv-x="380" />
<glyph unicode="&#x09;" horiz-adv-x="380" />
<glyph unicode="&#xa0;" horiz-adv-x="380" />
<glyph unicode="!" horiz-adv-x="518" d="M88 1675q0 51 57 51h226q59 0 59 -51l-49 -1151q-3 -51 -57 -51h-129q-55 0 -58 51q-49 1106 -49 1151zM123 57v158q0 57 51 57h170q51 0 51 -57v-158q0 -57 -51 -57h-170q-51 0 -51 57z" />
<glyph unicode="&#x22;" horiz-adv-x="804" d="M66 1567q0 51 51 51h172q53 0 53 -51l-49 -512q-3 -27 -16.5 -39t-40.5 -12h-64q-29 0 -41.5 12t-15.5 39q-49 492 -49 512zM463 1567q0 51 51 51h172q51 0 51 -51l-47 -512q-3 -27 -16.5 -39t-40.5 -12h-64q-29 0 -41.5 12t-15.5 39q-49 492 -49 512z" />
<glyph unicode="#" horiz-adv-x="1550" d="M45 424l27 147q9 60 61 60h180l54 350h-181q-55 0 -43 57l27 148q9 59 61 59h177l51 322q9 51 65 51h150q58 0 49 -51l-51 -322h315l51 322q9 51 66 51h147q29 0 42 -12.5t10 -38.5q-1 -3 -7 -44t-18 -120.5t-25 -157.5h209q52 0 43 -59l-26 -148q-12 -57 -62 -57h-205 l-55 -350h205q52 0 43 -60l-27 -147q-12 -57 -61 -57h-201l-49 -316q-9 -51 -66 -51h-149q-58 0 -49 51q0 3 47 316h-313l-50 -316q-9 -51 -65 -51h-150q-58 0 -49 51l49 316h-184q-55 0 -43 57zM578 631h313l55 350h-315z" />
<glyph unicode="$" horiz-adv-x="1118" d="M59 498v26q0 60 52 60h260q51 0 51 -60v-32q0 -68 33 -94.5t102 -26.5t103 25.5t34 84.5v35q0 50 -33.5 88t-87.5 63t-119 49.5t-130 56t-119 73t-87.5 110t-33.5 158.5q0 162 77 245t261 103v105q0 51 57 51h158q57 0 57 -51v-107q342 -40 342 -305v-51q0 -60 -53 -60 h-244q-53 0 -53 60v26q0 67 -30 94t-97 27q-66 0 -97.5 -26t-31.5 -86q0 -47 35 -84t90.5 -63.5t123 -52t134.5 -59t122.5 -76t90.5 -111t35 -156.5t-17.5 -151t-59 -112t-113 -77.5t-177.5 -38.5v-107q0 -51 -57 -51h-158q-57 0 -57 51v105q-196 17 -278.5 96.5 t-84.5 245.5z" />
<glyph unicode="%" horiz-adv-x="1843" d="M61 993v279q0 198 76.5 277t253.5 79q176 0 252 -79t76 -277v-279q0 -198 -76 -277t-252 -79q-177 0 -253.5 78.5t-76.5 277.5zM251.5 7.5q-0.5 11.5 16.5 33.5l516 692q21 29 40 41t46 12h60q34 0 38 -14t-14 -39l-415 -692q-15 -25 -29 -36t-24 -13t-33 -2h-156 q-23 0 -34 3t-11.5 14.5zM303 901q0 -69 19 -95t69 -26q48 0 67 26.5t19 94.5v463q0 68 -19 94.5t-67 26.5q-50 0 -69 -26t-19 -95v-463zM872 881l422 696q16 25 29.5 36t24 13t32.5 2h156q37 0 44 -11.5t-15 -39.5l-523 -696q-23 -30 -41.5 -42t-44.5 -12h-59q-58 0 -25 54 zM1124 346v279q0 199 76.5 277.5t253.5 78.5t253.5 -78.5t76.5 -277.5v-279q0 -198 -76.5 -277t-253.5 -79t-253.5 79t-76.5 277zM1368 254q0 -68 19 -94.5t67 -26.5t67 26.5t19 94.5v463q0 68 -19 94.5t-67 26.5t-67 -26.5t-19 -94.5v-463z" />
<glyph unicode="&#x26;" horiz-adv-x="1392" d="M72 438v64q0 154 45 245.5t143 137.5q-90 90 -90 284v50q0 215 121.5 312t408.5 97q529 0 529 -393v-51q0 -58 -51 -58h-269q-51 0 -51 60v71q-1 84 -40 119t-118 35q-89 0 -126 -36t-37 -118v-151q0 -89 30 -120.5t117 -31.5h16q52 0 52 -57v-84q0 -57 -52 -57h-106 q-87 0 -121.5 -35t-34.5 -125v-229q0 -90 34.5 -125t121.5 -35h154q87 0 121 35t34 125v528q0 59 51 59h351q51 0 51 -57v-84q0 -57 -51 -57h-50v-312q0 -131 -30 -217t-101 -139.5t-179.5 -75.5t-274.5 -22q-165 0 -275 22t-184 74t-106.5 137.5t-32.5 214.5z" />
<glyph unicode="'" horiz-adv-x="407" d="M66 1567q0 51 51 51h172q53 0 53 -51l-49 -512q-3 -27 -16.5 -39t-40.5 -12h-64q-29 0 -41.5 12t-15.5 39q-49 489 -49 512z" />
<glyph unicode="(" horiz-adv-x="593" d="M70 809q0 469 235 877q37 63 94 63h152q28 0 32.5 -16t-16.5 -47q-243 -352 -243 -877t243 -877q21 -31 16.5 -47t-32.5 -16h-152q-57 0 -94 63q-235 408 -235 877z" />
<glyph unicode=")" horiz-adv-x="595" d="M10.5 -115q-4.5 16 16.5 47q243 352 243 877t-243 877q-21 31 -16.5 47t32.5 16h152q57 0 94 -63q235 -408 235 -877t-235 -877q-37 -63 -94 -63h-152q-28 0 -32.5 16z" />
<glyph unicode="*" horiz-adv-x="1052" d="M84 946q0 26 27 41l251 146l-251 145q-27 15 -27 41q0 15 10 35l25 43q18 30 45 30q16 0 29 -8l251 -147v295q0 51 60 51h47q57 0 57 -51v-295l254 147q11 8 29 8q29 0 45 -30l22 -43q13 -26 13 -35q0 -23 -29 -39l-256 -147l256 -148q29 -16 29 -39q0 -9 -13 -35 l-22 -43q-24 -46 -74 -22l-254 145v-293q0 -51 -57 -51h-47q-60 0 -60 51v293l-251 -145q-13 -8 -29 -8q-27 0 -45 30l-25 43q-10 20 -10 35z" />
<glyph unicode="+" horiz-adv-x="1288" d="M47 582v135q0 59 51 59h420v418q0 51 57 51h138q57 0 57 -51v-418h418q51 0 51 -59v-135q0 -60 -51 -60h-418v-418q0 -51 -57 -51h-138q-57 0 -57 51v418h-420q-51 0 -51 60z" />
<glyph unicode="," horiz-adv-x="425" d="M76 57v158q0 57 51 57h170q51 0 51 -57v-180q0 -24 -6 -33l-109 -219q-20 -40 -32 -48.5t-39 -8.5h-37q-35 0 -35 28q0 11 6 29l70 217h-39q-51 0 -51 57z" />
<glyph unicode="-" horiz-adv-x="888" d="M92 580v137q0 57 51 57h602q54 0 54 -57v-137q0 -58 -54 -58h-602q-51 0 -51 58z" />
<glyph unicode="." horiz-adv-x="421" d="M74 57v158q0 57 51 57h170q51 0 51 -57v-158q0 -57 -51 -57h-170q-51 0 -51 57z" />
<glyph unicode="/" horiz-adv-x="1099" d="M35 4.5q-6 14.5 6 36.5q807 1507 821 1536q17 33 35.5 42t50.5 9h84q27 0 34.5 -15.5t-5.5 -35.5q-805 -1505 -823 -1536q-19 -33 -36.5 -42t-49.5 -9h-80q-31 0 -37 14.5z" />
<glyph unicode="0" horiz-adv-x="1210" d="M92 535v548q0 156 29.5 260.5t94.5 168t158 90t230 26.5t231 -26.5t159 -90t94.5 -168t29.5 -260.5v-548q0 -156 -29.5 -260.5t-94.5 -168t-159 -90t-231 -26.5t-230 26.5t-158 90t-94.5 168t-29.5 260.5zM459 385q0 -95 34 -136.5t111 -41.5t111.5 41.5t34.5 136.5v848 q0 95 -34.5 136.5t-111.5 41.5t-111 -41.5t-34 -136.5v-848z" />
<glyph unicode="1" horiz-adv-x="950" d="M63 57v107q0 59 52 59h196v918q0 47 -49 47h-145q-51 0 -51 57v92q0 22 8 33.5t28 24.5l289 196q42 27 66 27h170q51 0 51 -57v-1338h196q54 0 54 -59v-107q0 -57 -54 -57h-759q-52 0 -52 57z" />
<glyph unicode="2" horiz-adv-x="1159" d="M70 53v170q0 123 36.5 222.5t94.5 165.5t128.5 120.5t140.5 99.5t128 90t94.5 104t36.5 130v76q0 100 -32.5 140t-110.5 40q-77 0 -110.5 -40.5t-33.5 -139.5v-123q0 -57 -51 -57h-250q-51 0 -51 57q0 265 114.5 392.5t381.5 127.5q119 0 209.5 -24t147 -64.5t92 -100.5 t49.5 -125t14 -145q0 -100 -36.5 -183t-94.5 -142t-128.5 -111t-141 -102.5t-128.5 -103.5t-94.5 -126.5t-36.5 -160.5v-17h578q53 0 53 -59v-107q0 -57 -53 -57h-899q-47 0 -47 53z" />
<glyph unicode="3" horiz-adv-x="1187" d="M66 467v27q0 57 51 57h264q51 0 51 -57v-119q0 -92 35 -130t115 -38q76 0 109.5 38t33.5 130v151q0 116 -39.5 157.5t-138.5 41.5h-37q-53 0 -53 57v92q0 58 53 58h72q74 0 108.5 46.5t34.5 151.5v113q0 92 -33.5 130t-109.5 38q-78 0 -111 -37.5t-33 -130.5v-88 q0 -57 -53 -57h-248q-51 0 -51 57v14q0 80 13 145t47.5 125t90 100.5t144.5 64.5t207 24q133 0 232 -29t157.5 -82.5t86.5 -121.5t28 -152v-78q0 -220 -136 -331q72 -61 113.5 -158t38.5 -213l-2 -82q-2 -84 -31 -152.5t-89 -123t-162.5 -85t-239.5 -30.5 q-261 0 -389.5 115.5t-128.5 361.5z" />
<glyph unicode="4" horiz-adv-x="1202" d="M27 381v106q0 19 12 43l569 1033q30 55 78 55h275q51 0 51 -57v-1014h96q51 0 51 -60v-106q0 -57 -51 -57h-96v-267q0 -57 -51 -57h-265q-51 0 -51 57v267h-567q-51 0 -51 57zM391 547h254v479z" />
<glyph unicode="5" horiz-adv-x="1153" d="M53 444v50q0 57 51 57h265q53 0 53 -57v-109q0 -95 33.5 -136.5t111.5 -41.5q77 0 110.5 41.5t33.5 136.5v305q0 100 -31.5 140t-106.5 40q-113 0 -135 -100q-13 -51 -55 -51h-211q-29 0 -42.5 12.5t-12.5 38.5l67 797q3 51 60 51h751q52 0 52 -57v-107q0 -59 -52 -59 h-506l-28 -351q90 46 186 46q103 0 180 -25.5t124.5 -69t76.5 -110t40 -138t11 -163.5v-95q0 -142 -30 -238.5t-95.5 -154t-158.5 -82t-228 -24.5q-128 0 -220 23t-160 75t-101 140.5t-33 215.5z" />
<glyph unicode="6" horiz-adv-x="1193" d="M94 510v598q0 279 116 399.5t392 120.5q141 0 240.5 -32t154.5 -92t79 -134t24 -170q0 -57 -53 -57h-248q-54 0 -54 59v58q0 82 -33.5 116.5t-109.5 34.5q-77 0 -109 -37.5t-32 -130.5v-264q106 53 225 53q127 0 213.5 -31.5t134 -94.5t67 -144t19.5 -195v-47 q0 -151 -30.5 -253t-96.5 -163.5t-161.5 -87.5t-235.5 -26q-272 0 -387 120.5t-115 399.5zM461 387q0 -100 33.5 -140t111.5 -40t112 40.5t34 139.5v248q0 99 -34 139.5t-112 40.5q-75 0 -110 -39.5t-35 -124.5v-264z" />
<glyph unicode="7" horiz-adv-x="911" d="M39 1454v107q0 57 51 57h744q53 0 53 -57v-148q0 -12 -6 -33l-418 -1327q-15 -53 -66 -53h-272q-28 0 -34 15.5t3 37.5l426 1342h-430q-51 0 -51 59z" />
<glyph unicode="8" horiz-adv-x="1177" d="M76 416v67q0 275 194 373q-153 93 -153 346v27q0 209 114 304t359 95q242 0 357.5 -95t115.5 -302v-29q0 -247 -156 -346q195 -94 195 -373v-67q0 -210 -128.5 -318t-383.5 -108q-254 0 -384 109t-130 317zM444 375q0 -92 34 -130t112 -38q76 0 109.5 38t33.5 130v203 q0 92 -33.5 129.5t-109.5 37.5q-78 0 -112 -37.5t-34 -129.5v-203zM444 1120q0 -86 34 -121.5t110 -35.5q78 0 111.5 35.5t33.5 121.5v131q0 88 -33.5 124t-111.5 36t-111 -36t-33 -124v-131z" />
<glyph unicode="9" horiz-adv-x="1196" d="M76 1051v47q0 151 30 253t95.5 163.5t158.5 87.5t228 26q279 0 396.5 -120.5t117.5 -399.5v-659q0 -80 -13.5 -145t-48 -125t-90 -100.5t-144.5 -64.5t-206 -24q-114 0 -201.5 21.5t-144 59t-92.5 92.5t-51 117t-15 138q0 57 51 57h250q52 0 52 -59v-58 q0 -82 33.5 -116.5t109.5 -34.5q77 0 109 37.5t32 130.5v262q-105 -51 -225 -51q-102 0 -177.5 21.5t-124 59t-78 97t-41 128.5t-11.5 159zM442 983q0 -99 34 -139.5t112 -40.5q75 0 110 39.5t35 124.5v264q0 100 -33.5 140t-111.5 40t-112 -40.5t-34 -139.5v-248z" />
<glyph unicode=":" horiz-adv-x="477" d="M102 57v158q0 57 52 57h170q51 0 51 -57v-158q0 -57 -51 -57h-170q-52 0 -52 57zM102 809v158q0 57 52 57h170q51 0 51 -57v-158q0 -57 -51 -57h-170q-52 0 -52 57z" />
<glyph unicode=";" horiz-adv-x="477" d="M102 57v158q0 57 52 57h170q51 0 51 -57v-180q0 -24 -6 -33l-111 -219q-21 -40 -32 -48.5t-38 -8.5h-38q-33 0 -33 28q0 14 73 246h-36q-52 0 -52 57zM102 809v158q0 57 52 57h170q51 0 51 -57v-158q0 -57 -51 -57h-170q-52 0 -52 57z" />
<glyph unicode="&#x3c;" horiz-adv-x="997" d="M53 600v184q0 57 53 78l744 324q15 6 24 6q27 0 27 -43v-145q0 -60 -51 -80l-537 -234l537 -231q51 -20 51 -80v-146q0 -43 -27 -43q-6 0 -24 7l-744 323q-53 21 -53 80z" />
<glyph unicode="=" horiz-adv-x="1146" d="M102 319v136q0 59 52 59h839q51 0 51 -59v-136q0 -57 -51 -57h-839q-52 0 -52 57zM102 895v135q0 60 52 60h839q51 0 51 -60v-135q0 -57 -51 -57h-839q-52 0 -52 57z" />
<glyph unicode="&#x3e;" horiz-adv-x="997" d="M94 233v146q0 58 51 80l539 231l-539 234q-51 22 -51 80v145q0 43 27 43q9 0 24 -6l746 -324q51 -22 51 -78v-184q0 -58 -51 -80l-746 -323q-17 -7 -24 -7q-27 0 -27 43z" />
<glyph unicode="?" horiz-adv-x="1132" d="M45 1200q0 210 134.5 319t391.5 109q101 0 182.5 -16t137 -44.5t95.5 -64.5t62 -81t32 -89t10 -92q0 -59 -24.5 -111.5t-64 -93t-86.5 -79t-94.5 -78t-87 -82.5t-64 -100t-24.5 -122v-45q0 -57 -51 -57h-236q-51 0 -51 57v45q0 84 23 156t59.5 122.5t80.5 95t88 81 t80.5 71.5t59.5 76.5t23 86.5q0 79 -35 113t-119 34t-118.5 -36.5t-34.5 -129.5v-45q0 -57 -52 -57h-266q-51 0 -51 57zM307 57v158q0 57 51 57h236q51 0 51 -57v-158q0 -57 -51 -57h-236q-51 0 -51 57z" />
<glyph unicode="@" horiz-adv-x="1753" d="M61 809q0 195 64.5 352.5t176.5 258.5t260 154.5t319 53.5q170 0 318 -57t260 -164t176.5 -273t64.5 -372v-164q0 -48 -6.5 -80.5t-28 -53.5t-40 -32.5t-67 -16.5t-82 -6t-110.5 -1h-242q-127 0 -127 61l-8 4q-64 -74 -176 -74q-135 0 -194.5 74.5t-59.5 259.5v156 q0 186 59.5 260t194.5 74q113 0 176 -76l8 6v27q0 37 33 37h129q33 0 33 -37v-586q0 -25 11.5 -35t37.5 -10h232q28 0 39.5 12.5t11.5 44.5v156q0 170 -50.5 304.5t-138.5 219.5t-204 129.5t-250 44.5q-107 0 -202 -25.5t-176 -78.5t-140 -129t-92 -183t-33 -235 q0 -154 48.5 -277.5t133 -202.5t197 -121t243.5 -42h27q51 0 51 -57v-62q0 -57 -51 -57h-43q-130 0 -248 35t-215.5 104t-169 166.5t-111 229t-39.5 284.5zM786 641q0 -104 82 -104q95 0 95 98v352q0 100 -95 100q-82 0 -82 -106v-340z" />
<glyph unicode="A" horiz-adv-x="1261" d="M23 57l339 1309h-63q-53 0 -53 57v138q0 57 53 57h496q48 0 63 -55l399 -1508q9 -22 2.5 -38.5t-34.5 -16.5h-273q-16 0 -23 1t-16.5 6t-15.5 16.5t-10 31.5l-60 246h-409l-58 -244q-10 -39 -22.5 -48t-44.5 -9h-234q-39 0 -39 34q0 10 3 23zM477 555h289l-145 602z" />
<glyph unicode="B" horiz-adv-x="1292" d="M59 57v138q0 57 52 57h51v1114h-51q-52 0 -52 57v138q0 57 52 57h571q281 0 400.5 -94t119.5 -301v-49q0 -227 -139 -316q160 -100 160 -340v-98q0 -221 -119.5 -320.5t-401.5 -99.5h-591q-52 0 -52 57zM539 252h147q91 0 125.5 34.5t34.5 125.5v155q0 90 -35.5 125 t-124.5 35h-147v-475zM539 954h127q89 0 124 32.5t35 119.5v111q0 87 -33 118t-126 31h-127v-412z" />
<glyph unicode="C" horiz-adv-x="1210" d="M86 535v548q0 156 28.5 260t93 167.5t161 90.5t239.5 27q140 0 238.5 -27t167 -88.5t101 -162t32.5 -246.5v-64q0 -57 -51 -57h-267q-51 0 -51 57v127q0 112 -36 155.5t-124 43.5q-87 0 -121 -44t-34 -157v-712q0 -113 34 -157t121 -44q88 0 124 43t36 151v132 q0 57 51 57h267q51 0 51 -57v-68q0 -145 -31.5 -244.5t-99.5 -160.5t-167 -88t-241 -27q-143 0 -239.5 27t-161 90.5t-93 167.5t-28.5 260z" />
<glyph unicode="D" horiz-adv-x="1308" d="M59 57v138q0 57 52 57h51v1114h-51q-52 0 -52 57v138q0 57 52 57h575q149 0 248 -26t165 -87t95 -159t29 -246v-582q0 -148 -29 -246t-95 -159t-165 -87t-248 -26h-575q-52 0 -52 57zM539 252h147q87 0 123.5 37t36.5 127v786q0 90 -36.5 127t-123.5 37h-147v-1114z" />
<glyph unicode="E" horiz-adv-x="1021" d="M43 666v137q0 57 51 57h51v701q0 57 52 57h725q53 0 53 -57v-138q0 -57 -53 -57h-400v-506h266q52 0 52 -57v-137q0 -58 -52 -58h-266v-356h400q53 0 53 -57v-138q0 -57 -53 -57h-725q-52 0 -52 57v551h-51q-51 0 -51 58z" />
<glyph unicode="F" horiz-adv-x="1003" d="M43 666v137q0 57 51 57h51v701q0 57 52 57h725q53 0 53 -57v-138q0 -57 -53 -57h-400v-506h266q52 0 52 -57v-137q0 -58 -52 -58h-266v-551q0 -57 -51 -57h-274q-52 0 -52 57v551h-51q-51 0 -51 58z" />
<glyph unicode="G" horiz-adv-x="1220" d="M86 535v548q0 156 29 260t94 167.5t161 90.5t238 27q139 0 237 -27t166.5 -88t101 -161.5t32.5 -245.5v-14q0 -58 -53 -58h-265q-51 0 -51 58v75q0 111 -36 155t-122 44q-84 0 -119.5 -44.5t-35.5 -156.5v-712q0 -113 34 -157t121 -44q89 0 124.5 44t35.5 157v155h-116 q-52 0 -52 58v137q0 57 52 57h434q51 0 51 -57v-287q0 -146 -32 -247t-100 -163t-166.5 -89t-240.5 -27q-143 0 -239 27t-160.5 90.5t-93.5 167.5t-29 260z" />
<glyph unicode="H" horiz-adv-x="1353" d="M43 666v137q0 57 51 57h51v701q0 57 52 57h274q51 0 51 -57v-701h309v701q0 57 52 57h272q51 0 51 -57v-701h51q52 0 52 -57v-137q0 -58 -52 -58h-51v-551q0 -57 -51 -57h-272q-52 0 -52 57v551h-309v-551q0 -57 -51 -57h-274q-52 0 -52 57v551h-51q-51 0 -51 58z" />
<glyph unicode="I" horiz-adv-x="612" d="M117 57v1504q0 57 53 57h272q52 0 52 -57v-1504q0 -57 -52 -57h-272q-53 0 -53 57z" />
<glyph unicode="J" horiz-adv-x="825" d="M23 57v138q0 57 53 57h114q86 0 117 39.5t31 148.5v926h-66q-51 0 -51 57v138q0 57 51 57h390q51 0 51 -57v-1065q0 -188 -48.5 -296t-148 -154t-268.5 -46h-172q-53 0 -53 57z" />
<glyph unicode="K" horiz-adv-x="1323" d="M43 666v137q0 57 51 57h51v701q0 57 52 57h274q51 0 51 -57v-701h68l348 701q20 39 35.5 48t44.5 9h260q33 0 33 -25q0 -10 -11 -32l-409 -826l420 -678q12 -18 12 -32q0 -25 -33 -25h-272q-29 0 -43.5 8.5t-38.5 48.5l-334 551h-80v-551q0 -57 -51 -57h-274 q-52 0 -52 57v551h-51q-51 0 -51 58z" />
<glyph unicode="L" horiz-adv-x="872" d="M117 57v1504q0 57 53 57h272q52 0 52 -57v-1309h309q51 0 51 -57v-138q0 -57 -51 -57h-633q-53 0 -53 57z" />
<glyph unicode="M" horiz-adv-x="1611" d="M82 57l80 1504q3 57 53 57h270q31 0 41.5 -6.5t20.5 -38.5l260 -799l260 799q10 32 19 38.5t40 6.5h271q50 0 53 -57l80 -1504v-6q0 -51 -49 -51h-271q-50 0 -53 57l-43 807l-203 -680q-8 -30 -18.5 -38.5t-40.5 -8.5h-90q-30 0 -41.5 8.5t-20.5 38.5l-202 680l-43 -807 q-3 -57 -54 -57h-270q-49 0 -49 51v6z" />
<glyph unicode="N" horiz-adv-x="1308" d="M117 57v1504q0 57 53 57h272q32 0 42.5 -6.5t21.5 -40.5l307 -873v863q0 57 53 57h273q51 0 51 -57v-1504q0 -57 -51 -57h-271q-32 0 -41.5 6.5t-21.5 40.5l-311 875v-865q0 -57 -52 -57h-272q-53 0 -53 57z" />
<glyph unicode="O" d="M86 535v548q0 156 30.5 260t99.5 167.5t169.5 90.5t249.5 27t250 -27t170 -90.5t100 -167.5t31 -260v-548q0 -156 -31 -260t-100 -167.5t-170 -90.5t-250 -27t-249.5 27t-169.5 90.5t-99.5 167.5t-30.5 260zM475 453q0 -114 34.5 -157.5t125.5 -43.5t126.5 43.5 t35.5 157.5v712q0 114 -35.5 157.5t-126.5 43.5t-125.5 -43.5t-34.5 -157.5v-712z" />
<glyph unicode="P" horiz-adv-x="1249" d="M41 1423v138q0 57 51 57h592q283 0 401.5 -106t118.5 -361v-100q0 -235 -121 -342t-399 -107h-164v-545q0 -57 -51 -57h-274q-52 0 -52 57v1309h-51q-51 0 -51 57zM520 829h148q88 0 123.5 36.5t35.5 131.5v205q0 91 -35.5 127.5t-123.5 36.5h-148v-537z" />
<glyph unicode="Q" d="M86 535v548q0 156 30.5 260t99.5 167.5t169.5 90.5t249.5 27t250 -27t170 -90.5t100 -167.5t31 -260v-548q0 -262 -94 -386t-304 -151v-211q0 -54 -47 -63l-215 -43q-7 -1 -12 -1q-33 0 -33 44v274q-209 27 -302 150.5t-93 386.5zM475 453q0 -114 34.5 -157.5 t125.5 -43.5t126.5 43.5t35.5 157.5v712q0 114 -35.5 157.5t-126.5 43.5t-125.5 -43.5t-34.5 -157.5v-712z" />
<glyph unicode="R" horiz-adv-x="1292" d="M41 1423v138q0 57 51 57h592q283 0 401.5 -106t118.5 -361v-72q0 -136 -37.5 -226.5t-119.5 -143.5q65 -58 98 -193l106 -459q2 -12 2 -21q0 -36 -36 -36h-273q-16 0 -23 1t-16 6t-15 17t-11 33l-115 469q-13 55 -37.5 80t-64.5 25h-142v-574q0 -57 -51 -57h-274 q-52 0 -52 57v1309h-51q-51 0 -51 57zM520 860h148q88 0 123.5 36.5t35.5 129.5v176q0 91 -35.5 127.5t-123.5 36.5h-148v-506z" />
<glyph unicode="S" horiz-adv-x="1220" d="M59 434v66q0 57 52 57h286q54 0 54 -57v-78q0 -94 36 -132t121 -38t122.5 36t37.5 118v36q0 50 -23.5 90t-63 68.5t-91 54t-108 50.5t-113 53t-108 68t-91 89.5t-63 122.5t-23.5 162q0 151 48.5 242.5t164 138.5t311.5 47q274 0 401 -100t130 -324v-39q0 -57 -52 -57 h-272q-53 0 -53 57v39q-1 88 -37 125t-117 37t-116 -36t-35 -118q0 -46 24 -84t65 -65.5t93.5 -53t111 -51.5t117 -55t111 -69.5t93.5 -90t65 -121.5t24 -159q0 -99 -15.5 -171.5t-53.5 -131.5t-101 -95.5t-158 -55.5t-225 -19q-154 0 -257 24t-168.5 78.5t-94 137 t-29.5 204.5z" />
<glyph unicode="T" horiz-adv-x="1093" d="M16 1423v138q0 57 52 57h958q51 0 51 -57v-138q0 -57 -51 -57h-291v-1309q0 -57 -51 -57h-274q-52 0 -52 57v1309h-290q-52 0 -52 57z" />
<glyph unicode="U" horiz-adv-x="1273" d="M111 535v1026q0 57 51 57h274q51 0 51 -57v-1108q0 -113 33 -157t117 -44q90 0 124 43.5t34 157.5v1108q0 57 51 57h266q51 0 51 -57v-1026q0 -156 -29.5 -260t-95.5 -167.5t-162.5 -90.5t-238.5 -27q-193 0 -305.5 50t-166.5 169t-54 326z" />
<glyph unicode="V" horiz-adv-x="1253" d="M8 1563q-4 14 -4 24q0 31 35 31h274q20 0 29.5 -2t19 -14.5t15.5 -38.5l266 -1106l262 1104q10 39 22.5 48t43.5 9h235q40 0 40 -34q0 -10 -3 -23l-393 -1504q-10 -39 -22.5 -48t-43.5 -9h-315q-20 0 -28.5 2t-18 14t-16.5 39z" />
<glyph unicode="W" horiz-adv-x="1724" d="M29 1561q-1 9 -1 16q0 41 42 41h254q16 0 23.5 -1t17 -6t14 -17t8.5 -33l162 -930l194 932q6 26 15.5 38.5t19 14.5t29.5 2h119q16 0 23 -1t16 -6t14.5 -16.5t9.5 -31.5l189 -910l159 908q7 39 20 48t44 9h254q42 0 42 -41q0 -7 -1 -16l-275 -1504q-7 -39 -19.5 -48 t-41.5 -9h-256q-20 0 -29.5 2t-19 14.5t-15.5 38.5l-174 803l-174 -803q-4 -20 -9.5 -31.5t-14.5 -16.5t-16 -6t-23 -1h-264q-16 0 -23.5 1t-16.5 6t-13.5 17t-8.5 33z" />
<glyph unicode="X" horiz-adv-x="1230" d="M17.5 16.5q-4.5 16.5 7.5 38.5l325 719l-325 789q-6 17 -6 28q0 27 32 27h277q28 0 42 -9.5t27 -45.5l224 -586l231 586q14 36 28 45.5t42 9.5h258q29 0 33.5 -16.5t-7.5 -38.5l-321 -781l325 -727q11 -19 6 -37t-32 -18h-277q-28 0 -41.5 9.5t-29.5 45.5l-232 535 l-225 -535q-14 -36 -28.5 -45.5t-43.5 -9.5h-256q-29 0 -33.5 16.5z" />
<glyph unicode="Y" horiz-adv-x="1193" d="M8 1563q-6 16 -6 28q0 27 33 27h274q15 0 22.5 -1t17 -6t16.5 -16.5t14 -31.5l227 -629l228 629q10 27 20.5 39t19.5 14t29 2h258q33 0 33 -27q0 -11 -6 -28l-404 -1022v-484q0 -57 -51 -57h-274q-51 0 -51 57v494z" />
<glyph unicode="Z" horiz-adv-x="1128" d="M57 57v162q0 23 6 33l611 1114h-357v-59q0 -52 -57 -52h-145q-58 0 -58 52v254q0 57 52 57h909q53 0 53 -57v-164q0 -19 -6 -31l-612 -1114h358v59q0 51 57 51h146q57 0 57 -51v-254q0 -57 -53 -57h-909q-52 0 -52 57z" />
<glyph unicode="[" horiz-adv-x="780" d="M111 -332v2280q0 57 53 57h547q51 0 51 -57v-107q0 -57 -51 -57h-340v-1952h340q51 0 51 -57v-107q0 -57 -51 -57h-547q-53 0 -53 57z" />
<glyph unicode="\" horiz-adv-x="1101" d="M34.5 1617q7.5 11 35.5 11h84q17 0 25.5 -1t20 -5.5t20.5 -15t20 -29.5l821 -1536q14 -29 6.5 -40t-37.5 -11h-80q-24 0 -34.5 2t-24 13t-27.5 36l-823 1536q-14 29 -6.5 40z" />
<glyph unicode="]" horiz-adv-x="780" d="M18 -225q0 57 52 57h340v1952h-340q-52 0 -52 57v107q0 57 52 57h546q54 0 54 -57v-2280q0 -57 -54 -57h-546q-52 0 -52 57v107z" />
<glyph unicode="^" horiz-adv-x="1095" d="M47 498q0 9 6 24l324 746q22 51 78 51h184q55 0 80 -51l321 -746q7 -18 7 -24q0 -27 -41 -27h-146q-58 0 -80 51l-233 537l-232 -537q-25 -51 -79 -51h-146q-43 0 -43 27z" />
<glyph unicode="_" horiz-adv-x="1026" d="M0 -129q0 57 51 57h924q51 0 51 -57v-137q0 -58 -51 -58h-924q-51 0 -51 58v137z" />
<glyph unicode="`" horiz-adv-x="692" d="M82 1616q0 12 10 29l88 137q24 35 45 35t37 -13l322 -245q26 -19 26 -43q0 -17 -12 -35l-33 -51q-17 -25 -45 -25q-18 0 -41 10q-56 21 -151 63t-154 70t-70 33q-22 14 -22 35z" />
<glyph unicode="a" horiz-adv-x="1189" d="M55 326v36q0 71 22 126t59.5 90t86 60t102 40.5t107.5 28t102.5 25t86 29t59.5 44t22 65.5v78q0 77 -30.5 109.5t-110.5 32.5q-82 0 -112.5 -35.5t-30.5 -124.5v-56q0 -59 -51 -59h-236q-53 0 -53 59v44q0 200 130 294.5t367 94.5q179 0 285 -48t157.5 -160.5 t51.5 -307.5v-584h47q51 0 51 -57v-93q0 -57 -51 -57h-309q-51 0 -51 57v45l-13 9q-105 -121 -292 -121q-177 0 -286.5 88t-109.5 248zM412 356q0 -81 32 -115t105 -34q84 0 118.5 40.5t34.5 121.5v243l-12 9q-36 -19 -94.5 -39.5t-93.5 -34t-62.5 -43.5t-27.5 -74v-74z" />
<glyph unicode="b" horiz-adv-x="1204" d="M14 1612v92q0 57 52 57h348q53 0 53 -57v-465l12 -10q94 78 238 78q108 0 182.5 -26.5t126.5 -88.5t76 -165t24 -255v-248q0 -152 -24 -255t-76 -164.5t-126.5 -88t-182.5 -26.5q-180 0 -281 119l-10 -7v-45q0 -57 -51 -57h-211q-51 0 -51 57v1497h-47q-52 0 -52 58z M479 385q0 -96 32.5 -137t109.5 -41q76 0 107.5 41t31.5 137v526q0 96 -31.5 137.5t-107.5 41.5q-77 0 -109.5 -41.5t-32.5 -137.5v-526z" />
<glyph unicode="c" horiz-adv-x="1140" d="M74 535v227q0 156 28.5 260.5t92.5 168t157 90t230 26.5q113 0 202 -22t156 -68.5t103 -124t36 -181.5v-37q0 -59 -51 -59h-244q-53 0 -53 59v56q0 89 -32 124.5t-115 35.5q-77 0 -110.5 -42t-33.5 -137v-526q0 -95 33.5 -136.5t110.5 -41.5q83 0 115 35.5t32 124.5v55 q0 59 53 59h244q51 0 51 -59v-37q0 -104 -36 -181.5t-103 -123.5t-156 -68t-202 -22q-137 0 -230 26.5t-157 90t-92.5 168t-28.5 260.5z" />
<glyph unicode="d" horiz-adv-x="1232" d="M78 524v248q0 152 24 255t75.5 165t126.5 88.5t183 26.5q144 0 238 -78l12 10v315h-47q-51 0 -51 58v92q0 57 51 57h350q52 0 52 -57v-1497h47q51 0 51 -57v-93q0 -57 -51 -57h-310q-51 0 -51 57v45l-10 9q-100 -121 -281 -121q-87 0 -151 16.5t-114 54.5t-81 100 t-47 151.5t-16 211.5zM444 385q0 -96 32 -137t108 -41q73 0 107 37.5t34 122.5v544q0 96 -32.5 137.5t-108.5 41.5t-108 -41.5t-32 -137.5v-526z" />
<glyph unicode="e" horiz-adv-x="1148" d="M74 535v227q0 156 28.5 260.5t92.5 168t157 90t230 26.5q239 0 368 -103t129 -334v-157q0 -60 -51 -66l-588 -80v-182q0 -95 33.5 -136.5t110.5 -41.5q83 0 115 35.5t32 124.5v55q0 59 53 59h244q51 0 51 -59v-37q0 -104 -36 -181.5t-103 -123.5t-156 -68t-202 -22 q-137 0 -230 26.5t-157 90t-92.5 168t-28.5 260.5zM440 741l291 41v129q0 97 -32.5 138t-114.5 41q-77 0 -110.5 -42t-33.5 -137v-170z" />
<glyph unicode="f" horiz-adv-x="784" d="M20 1147v92q0 57 52 57h92q4 258 110 361.5t347 103.5h120q52 0 52 -57v-92q0 -58 -52 -58h-127q-49 0 -67.5 -24.5t-18.5 -87.5v-146h183q51 0 51 -57v-92q0 -57 -51 -57h-183v-1033q0 -57 -51 -57h-262q-51 0 -51 57v1033h-92q-52 0 -52 57z" />
<glyph unicode="g" horiz-adv-x="1204" d="M78 524v248q0 152 24 255t75.5 165t126.5 88.5t183 26.5q178 0 281 -121l10 8v45q0 57 51 57h211q52 0 52 -57v-1208q0 -187 -49 -295.5t-149 -154.5t-269 -46h-389q-52 0 -52 57v93q0 57 52 57h350q81 0 110 40t29 150v136q-94 -78 -238 -78q-87 0 -151 16.5t-114 54.5 t-81 100t-47 151.5t-16 211.5zM444 385q0 -96 32 -137t108 -41q73 0 107 37.5t34 122.5v544q0 96 -32.5 137.5t-108.5 41.5t-108 -41.5t-32 -137.5v-526z" />
<glyph unicode="h" horiz-adv-x="1230" d="M14 1612v92q0 57 52 57h348q53 0 53 -57v-465l12 -10q94 78 238 78q108 0 182.5 -26.5t126.5 -88.5t76 -165t24 -255v-715q0 -57 -51 -57h-262q-53 0 -53 57v854q0 96 -31.5 137.5t-107.5 41.5q-75 0 -108.5 -37.5t-33.5 -122.5v-873q0 -57 -51 -57h-262q-53 0 -53 57 v1497h-47q-52 0 -52 58z" />
<glyph unicode="i" horiz-adv-x="620" d="M43 1147v92q0 57 51 57h363q51 0 51 -57v-1182q0 -57 -51 -57h-264q-52 0 -52 57v1033h-47q-51 0 -51 57zM141 1493v176q0 57 52 57h264q51 0 51 -57v-176q0 -59 -51 -59h-264q-52 0 -52 59z" />
<glyph unicode="j" horiz-adv-x="622" d="M-127 -315q0 57 51 57h78q81 0 110 40t29 150v1158h-47q-51 0 -51 57v92q0 57 51 57h363q51 0 51 -57v-1208q0 -141 -26 -235.5t-84 -153t-143.5 -83t-211.5 -24.5h-119q-51 0 -51 57v93zM141 1493v176q0 57 52 57h264q51 0 51 -57v-176q0 -59 -51 -59h-264q-52 0 -52 59 z" />
<glyph unicode="k" horiz-adv-x="1206" d="M113 57v1647q0 57 53 57h262q51 0 51 -57v-952h53l273 487q21 39 37 48t47 9h268q30 0 30 -22q0 -13 -11 -35l-332 -592l338 -590q14 -20 10 -38.5t-31 -18.5h-266q-21 0 -31 2t-23.5 14.5t-29.5 40.5l-279 488h-53v-488q0 -57 -51 -57h-262q-53 0 -53 57z" />
<glyph unicode="l" horiz-adv-x="593" d="M115 57v1647q0 57 51 57h262q51 0 51 -57v-1647q0 -57 -51 -57h-262q-51 0 -51 57z" />
<glyph unicode="m" horiz-adv-x="1859" d="M43 1147v92q0 57 51 57h309q52 0 52 -57v-45l12 -8q96 121 260 121q116 0 196 -34.5t130 -111.5h10q99 146 287 146q104 0 176.5 -25.5t125.5 -86t78 -165t25 -258.5v-715q0 -57 -51 -57h-256q-51 0 -51 57v854q0 94 -32.5 136.5t-100.5 42.5q-67 0 -99 -43t-32 -136 v-854q0 -57 -54 -57h-254q-53 0 -53 57v854q0 94 -31.5 136.5t-99.5 42.5t-100.5 -43t-32.5 -136v-854q0 -57 -51 -57h-262q-54 0 -54 57v1033h-47q-51 0 -51 57z" />
<glyph unicode="n" horiz-adv-x="1259" d="M43 1147v92q0 57 51 57h309q52 0 52 -57v-45l10 -8q103 121 280 121q105 0 178.5 -25.5t127 -86t79 -165t25.5 -258.5v-715q0 -57 -51 -57h-262q-51 0 -51 57v854q0 96 -33 137.5t-109 41.5t-108.5 -41.5t-32.5 -137.5v-854q0 -57 -51 -57h-262q-54 0 -54 57v1033h-47 q-51 0 -51 57z" />
<glyph unicode="o" horiz-adv-x="1161" d="M74 535v227q0 156 28.5 260.5t92.5 168t157 90t230 26.5t229 -26.5t155.5 -90t92 -168t28.5 -260.5v-227q0 -156 -28.5 -260.5t-92 -168t-155.5 -90t-229 -26.5t-230 26.5t-157 90t-92.5 168t-28.5 260.5zM440 385q0 -96 32.5 -137t109.5 -41q76 0 107.5 41t31.5 137v526 q0 96 -31.5 137.5t-107.5 41.5q-77 0 -109.5 -41.5t-32.5 -137.5v-526z" />
<glyph unicode="p" horiz-adv-x="1232" d="M43 1147v92q0 57 51 57h309q52 0 52 -57v-45l10 -8q100 121 280 121q145 0 232.5 -49t132.5 -167t45 -319v-248q0 -201 -45 -319t-132.5 -166.5t-232.5 -48.5q-148 0 -241 80l-8 -9v-469q0 -57 -52 -57h-251q-52 0 -52 57v1498h-47q-51 0 -51 57zM508 385 q0 -96 32.5 -137t108.5 -41t109 41.5t33 136.5v526q0 96 -33 137.5t-109 41.5t-108.5 -41.5t-32.5 -137.5v-526z" />
<glyph unicode="q" horiz-adv-x="1204" d="M78 524v248q0 152 24 255t75.5 165t126.5 88.5t183 26.5q178 0 281 -121l10 8v45q0 57 51 57h211q52 0 52 -57v-1647q0 -57 -52 -57h-252q-51 0 -51 57v469l-10 9q-93 -80 -240 -80q-87 0 -151 16.5t-114 54.5t-81 100t-47 151.5t-16 211.5zM444 385q0 -96 32 -137 t108 -41q73 0 107 37.5t34 122.5v563q0 84 -34 122t-107 38q-76 0 -108 -41.5t-32 -137.5v-526z" />
<glyph unicode="r" horiz-adv-x="878" d="M43 1147v92q0 57 51 57h309q52 0 52 -57v-35l8 -8q97 111 262 111h86q53 0 53 -58v-192q0 -58 -53 -58h-209q-51 0 -72.5 -21t-21.5 -73v-848q0 -57 -51 -57h-262q-54 0 -54 57v1033h-47q-51 0 -51 57z" />
<glyph unicode="s" horiz-adv-x="1110" d="M53 336v26q0 60 51 60h261q51 0 51 -60v-32q0 -68 33 -94.5t102 -26.5t103 25.5t34 84.5v35q0 50 -33.5 88t-87.5 63t-119 49.5t-130 56t-119 73t-87.5 110t-33.5 158.5q0 126 44.5 202t148.5 114.5t280 38.5q244 0 361.5 -78t117.5 -236v-51q0 -59 -53 -59h-244 q-53 0 -53 59v27q0 67 -30 94t-97 27q-66 0 -97.5 -26.5t-31.5 -86.5q0 -47 35 -84t90.5 -63.5t123 -52t134.5 -59t122.5 -76t90.5 -111t35 -156.5q0 -101 -23 -169.5t-80 -119t-155 -73.5t-246 -23q-274 0 -386 78t-112 268z" />
<glyph unicode="t" horiz-adv-x="792" d="M14 1147v92q0 57 54 57h90v258q0 58 53 58h262q51 0 51 -58v-258h201q53 0 53 -57v-92q0 -57 -53 -57h-201v-771q0 -63 18.5 -87.5t67.5 -24.5h115q53 0 53 -57v-93q0 -57 -53 -57h-104q-170 0 -269 44t-146.5 148t-47.5 285v613h-90q-54 0 -54 57z" />
<glyph unicode="u" horiz-adv-x="1284" d="M29 1147v92q0 57 53 57h360q54 0 54 -57v-854q0 -96 31.5 -137t107.5 -41q74 0 107.5 37t33.5 123v872q0 57 51 57h265q51 0 51 -57v-1032h47q53 0 53 -57v-93q0 -57 -53 -57h-309q-52 0 -52 57v45l-12 9q-97 -121 -278 -121q-105 0 -178 25.5t-127 85.5t-79.5 164.5 t-25.5 258.5v566h-47q-53 0 -53 57z" />
<glyph unicode="v" horiz-adv-x="1124" d="M18 1264q0 18 7.5 25t27.5 7h250q21 0 30.5 -2t19.5 -14.5t16 -38.5l196 -860l209 860q4 20 9.5 31.5t15.5 16.5t17.5 6t23.5 1h229q37 0 37 -32q0 -3 -4 -23l-322 -1186q-7 -26 -19.5 -38.5t-24 -14.5t-36.5 -2h-294q-16 0 -22.5 1t-16 6t-15 16.5t-10.5 31.5l-322 1186 q-2 10 -2 23z" />
<glyph unicode="w" horiz-adv-x="1548" d="M37 1241q-2 10 -2 18q0 37 41 37h250q15 0 21.5 -1t15 -6t13 -16.5t7.5 -31.5l106 -741l173 741q8 36 21.5 45.5t41.5 9.5h96q15 0 23 -1t16.5 -6.5t14.5 -17t10 -30.5l166 -772l112 772q3 20 8 31.5t14 16.5t16 6t22 1h250q40 0 40 -37q0 -8 -2 -18l-219 -1186 q-4 -20 -8 -31.5t-12 -16.5t-15 -6t-22 -1h-242q-24 0 -35.5 2t-24 14.5t-18.5 38.5l-143 607l-141 -607q-6 -26 -18 -38.5t-23.5 -14.5t-36.5 -2h-240q-15 0 -22 1t-15 6t-12 16.5t-8 31.5z" />
<glyph unicode="x" horiz-adv-x="1157" d="M27.5 1278.5q5.5 17.5 31.5 17.5h265q28 0 42.5 -9.5t28.5 -45.5l193 -467l194 467q14 36 28 45.5t42 9.5h246q35 0 35 -26q0 -12 -7 -29l-262 -592l262 -594q11 -20 5 -37.5t-33 -17.5h-264q-25 0 -40.5 11t-29.5 44l-195 469l-192 -469q-14 -36 -28 -45.5t-42 -9.5 h-248q-32 0 -32 26q0 12 6 29l260 594l-260 592q-11 20 -5.5 37.5z" />
<glyph unicode="y" horiz-adv-x="1128" d="M18.5 1281q6.5 15 34.5 15h250q27 0 43 -11.5t23 -43.5l202 -891l215 891q8 33 22.5 44t41.5 11h223q27 0 35 -15t0 -40l-336 -1227q-24 -86 -45 -149.5t-46.5 -114.5t-48.5 -85t-57.5 -59t-66 -38t-82 -21t-96.5 -10t-119 -2h-8q-27 0 -37 16t-4 41l24 93q15 57 68 57 h72q63 0 88.5 31t48.5 123l24 104h-81q-28 0 -41 9.5t-23 45.5l-322 1186q-8 25 -1.5 40z" />
<glyph unicode="z" horiz-adv-x="1040" d="M59 57v123q0 29 19 62l534 848h-325v-54q0 -57 -51 -57h-123q-54 0 -54 57v203q0 57 54 57h813q51 0 51 -57v-123q0 -37 -16 -63l-535 -846h326v53q0 57 51 57h123q51 0 51 -57v-203q0 -57 -51 -57h-813q-54 0 -54 57z" />
<glyph unicode="{" horiz-adv-x="671" d="M47 756v118q0 37 33 37q23 0 39.5 10t25 24.5t13 41t5.5 48.5t1 57v485q0 71 10 123t33 88t52.5 58.5t76.5 35t96.5 17t120.5 4.5h43q57 0 57 -52v-41q0 -53 -57 -53h-49q-71 0 -97 -47.5t-26 -157.5v-460q0 -138 -20.5 -205.5t-77.5 -67.5v-10q30 0 50 -18.5t30 -56.5 t14 -84t4 -113v-424q0 -138 25 -195t98 -57h49q57 0 57 -51v-43q0 -52 -57 -52h-43q-71 0 -120.5 4.5t-96.5 17t-76.5 35t-52.5 58.5t-33 88t-10 123v498q0 35 -1 57t-5.5 48t-13 40.5t-25 24.5t-39.5 10q-33 0 -33 37z" />
<glyph unicode="|" horiz-adv-x="477" d="M109 -66v1749q0 58 53 58h155q52 0 52 -58v-1749q0 -57 -52 -57h-155q-53 0 -53 57z" />
<glyph unicode="}" horiz-adv-x="671" d="M16 -190q0 51 60 51h49q72 0 96.5 57t24.5 195v424q0 67 4 113t14 84t30 56.5t50 18.5v10q-57 0 -77.5 67.5t-20.5 205.5v460q0 111 -25 158t-96 47h-49q-60 0 -60 53v41q0 52 60 52h41q61 0 105 -3t87 -11.5t72 -24t54.5 -39.5t40 -58.5t22.5 -81.5t8 -108v-485 q0 -35 1 -57t5.5 -48.5t13 -41t25 -24.5t39.5 -10q33 0 33 -37v-118q0 -37 -33 -37q-23 0 -39.5 -10t-25 -24.5t-13 -40.5t-5.5 -48t-1 -57v-498q0 -61 -8 -108t-22.5 -81.5t-40 -58.5t-54.5 -39.5t-72 -24t-87 -11.5t-105 -3h-41q-60 0 -60 52v43z" />
<glyph unicode="~" horiz-adv-x="1165" d="M86 682q53 101 132.5 140.5t184.5 39.5q71 0 218 -44t225 -44q94 0 166 68q14 14 32 2q14 -8 35 -29q13 -13 2 -31q-60 -99 -138 -139.5t-179 -40.5q-89 0 -174 22t-153 44t-115 22q-82 0 -164 -67q-17 -14 -35 -2q-21 12 -35 26q-12 12 -2 33z" />
<glyph unicode="&#xa1;" horiz-adv-x="518" d="M88 51l49 1151q3 51 58 51h129q54 0 57 -51q49 -1104 49 -1151q0 -51 -59 -51h-226q-57 0 -57 51zM123 1511v158q0 57 51 57h170q51 0 51 -57v-158q0 -57 -51 -57h-170q-51 0 -51 57z" />
<glyph unicode="&#xa2;" horiz-adv-x="1153" d="M80 694v228q0 262 85 384.5t277 149.5v111q0 51 58 51h157q58 0 58 -51v-109q175 -23 272.5 -117.5t97.5 -269.5v-37q0 -59 -51 -59h-243q-54 0 -54 59v56q0 88 -32 123.5t-115 35.5q-77 0 -110.5 -41.5t-33.5 -136.5v-526q0 -95 33.5 -136.5t110.5 -41.5q83 0 115 35.5 t32 123.5v56q0 59 54 59h243q51 0 51 -59v-37q0 -175 -97.5 -270t-272.5 -119v-105q0 -51 -58 -51h-157q-58 0 -58 51v107q-192 28 -277 151t-85 385z" />
<glyph unicode="&#xa3;" horiz-adv-x="1337" d="M51 727v137q0 60 53 60h101q-53 144 -53 317q0 59 13.5 110.5t49.5 104t93 89.5t150 60t214 23q246 0 388 -112t142 -316q0 -57 -51 -57h-266q-51 0 -51 57v45q0 91 -38 128.5t-122 37.5q-82 0 -118 -34.5t-36 -112.5q0 -36 5.5 -70.5t20 -73t24 -61.5t32.5 -70t31 -65 h319q56 0 56 -60v-137q0 -57 -56 -57h-241q6 -41 6 -82q0 -216 -154 -346q111 -35 201 -35q82 0 121 32t39 117v62q0 57 51 57h266q51 0 51 -57q0 -203 -138 -315.5t-370 -112.5q-96 0 -191 21.5t-142 21.5q-78 0 -158 -29q-20 -4 -27 -4q-30 0 -43 25l-84 163 q-12 25 -7 37.5t34 24.5q108 43 155.5 95t47.5 142v25q0 67 -43 158h-222q-53 0 -53 57z" />
<glyph unicode="&#xa4;" horiz-adv-x="1282" d="M90 412l109 108q-24 43 -33.5 92.5t-9.5 153.5q0 163 47 246l-111 112q-38 38 2 76l105 103q41 41 77 4l144 -146q91 23 221 23q123 0 221 -25l148 148q36 37 77 -4l103 -103q39 -39 2 -76l-113 -116q45 -85 45 -244q0 -102 -10 -150.5t-35 -95.5l111 -108q38 -38 -2 -78 l-105 -103q-42 -39 -77 -4l-142 140q-91 -23 -223 -23q-134 0 -229 23l-138 -138q-36 -37 -75 2l-105 105q-41 41 -4 78zM489 682q0 -87 34.5 -121.5t117.5 -34.5q81 0 115.5 35t34.5 121v160q0 86 -34.5 119.5t-115.5 33.5q-83 0 -117.5 -33.5t-34.5 -119.5v-160z" />
<glyph unicode="&#xa5;" d="M45 1563q-20 55 27 55h274q16 0 23 -1t16.5 -6t16.5 -16.5t14 -31.5l227 -629l227 629q7 20 14 31.5t16.5 16.5t16.5 6t23 1h258q48 0 27 -55l-301 -760h92q67 0 67 -58v-137q0 -57 -67 -57h-195v-139h197q65 0 65 -58v-137q0 -57 -67 -57h-195v-103q0 -57 -51 -57h-274 q-52 0 -52 57v103h-180q-65 0 -65 57v137q0 58 65 58h180v139h-180q-65 0 -65 57v137q0 58 65 58h80z" />
<glyph unicode="&#xa6;" horiz-adv-x="409" d="M113 -113v709q0 51 57 51h70q59 0 59 -51v-709q0 -51 -59 -51h-70q-57 0 -57 51zM113 858v709q0 51 57 51h70q59 0 59 -51v-709q0 -51 -59 -51h-70q-57 0 -57 51z" />
<glyph unicode="&#xa7;" horiz-adv-x="1124" d="M84 608q0 130 33.5 207t103.5 121q-137 113 -137 295q0 139 44 223.5t150.5 128t288.5 43.5q233 0 351 -85.5t118 -248.5v-61q0 -53 -45 -53h-235q-47 0 -47 53v37q0 67 -35.5 97t-106.5 30q-75 0 -107 -31t-32 -100q0 -57 34 -100t87.5 -72.5t119 -57.5t131 -64.5 t119 -83t87.5 -123t34 -175.5q0 -240 -137 -330q137 -113 137 -293q0 -216 -110 -305.5t-373 -89.5q-469 0 -469 348v47q0 53 45 53h236q47 0 47 -53v-20q0 -78 33 -111t108 -33t107 31t32 100q0 57 -34 100t-87.5 72.5t-119 57.5t-131 64.5t-119 83t-87.5 123t-34 175.5z M362 655q0 -77 54 -118q3 -2 50.5 -34t88 -58t55.5 -31q46 -25 74 -25q34 0 55 28.5t21 69.5v23q0 83 -58 121q-1 1 -89 58.5t-109 64.5q-34 22 -66 22q-36 0 -56 -27.5t-20 -68.5v-25z" />
<glyph unicode="&#xa8;" horiz-adv-x="892" d="M82 1462v158q0 57 51 57h170q51 0 51 -57v-158q0 -57 -51 -57h-170q-51 0 -51 57zM539 1462v158q0 57 51 57h170q51 0 51 -57v-158q0 -57 -51 -57h-170q-51 0 -51 57z" />
<glyph unicode="&#xa9;" horiz-adv-x="1761" d="M61 809q0 195 64.5 352.5t176.5 258.5t260 154.5t319 53.5t318.5 -53.5t259.5 -154.5t176.5 -258.5t64.5 -352.5t-64.5 -352.5t-176.5 -258.5t-259.5 -154.5t-318.5 -53.5t-319 53.5t-260 154.5t-176.5 258.5t-64.5 352.5zM242 809q0 -160 50 -286t138 -204.5 t202.5 -119.5t248.5 -41t249 41t203 119.5t138.5 204.5t50.5 286t-50.5 286t-138.5 204.5t-203 119.5t-249 41t-248.5 -41t-202.5 -119.5t-138 -204.5t-50 -286zM514 723v166q0 150 39.5 236t118 121.5t211.5 35.5q168 0 264 -69.5t96 -217.5v-26q0 -43 -37 -43h-178 q-37 0 -37 43v41q0 64 -23.5 89t-84.5 25q-55 0 -79 -30t-24 -99v-381q0 -69 24 -99t79 -30q61 0 84.5 26t23.5 91v39q0 43 37 43h178q37 0 37 -43v-27q0 -148 -96 -217t-264 -69q-198 0 -283.5 87t-85.5 308z" />
<glyph unicode="&#xaa;" horiz-adv-x="829" d="M68 1010v22q0 57 22.5 98t58.5 63t79.5 36.5t86.5 24t79 20t58.5 30.5t22.5 50v49q0 47 -19 67.5t-69 20.5q-52 0 -71 -22t-19 -78v-35q0 -37 -33 -37h-149q-33 0 -33 37v26q0 126 82 186t231 60q169 0 240.5 -72t71.5 -253v-367h28q33 0 33 -37v-57q0 -37 -33 -37h-194 q-31 0 -31 37v26l-8 6q-65 -75 -185 -75q-112 0 -180.5 55.5t-68.5 155.5zM293 1030q0 -52 20 -73t66 -21q53 0 74.5 25t21.5 75v154l-8 6q-22 -12 -75 -29.5t-76 -36.5t-23 -55v-45z" />
<glyph unicode="&#xab;" horiz-adv-x="884" d="M61 510v96q0 22 1 33t8.5 26t23.5 29l250 232q19 16 27 16t10 -11.5t2 -41.5v-37q0 -31 -5.5 -45t-31.5 -49l-145 -191v-20l145 -189q27 -36 32 -50t5 -50v-35v-23t-1.5 -15.5t-4 -11.5t-6.5 -3q-8 0 -27 16l-250 232q-22 20 -27.5 38.5t-5.5 53.5zM465 510v96q0 22 1 33 t8.5 26t23.5 29l250 232q19 16 26 16q8 0 10 -11.5t2 -41.5v-37q0 -32 -5 -46t-31 -48l-146 -191v-20l146 -189q27 -35 31.5 -49t4.5 -51v-35v-23t-1.5 -15.5t-4 -11.5t-6.5 -3q-7 0 -26 16l-250 232q-22 20 -27.5 38.5t-5.5 53.5z" />
<glyph unicode="&#xac;" horiz-adv-x="1247" d="M76 737v137q0 58 51 58h965q51 0 51 -58v-516q0 -57 -51 -57h-148q-53 0 -53 57v322h-764q-51 0 -51 57z" />
<glyph unicode="&#xad;" horiz-adv-x="888" d="M92 580v137q0 57 51 57h602q54 0 54 -57v-137q0 -58 -54 -58h-602q-51 0 -51 58z" />
<glyph unicode="&#xae;" horiz-adv-x="1761" d="M61 809q0 195 64.5 352.5t176.5 258.5t260 154.5t319 53.5t318.5 -53.5t259.5 -154.5t176.5 -258.5t64.5 -352.5t-64.5 -352.5t-176.5 -258.5t-259.5 -154.5t-318.5 -53.5t-319 53.5t-260 154.5t-176.5 258.5t-64.5 352.5zM242 809q0 -160 50 -286t138 -204.5 t202.5 -119.5t248.5 -41t249 41t203 119.5t138.5 204.5t50.5 286t-50.5 286t-138.5 204.5t-203 119.5t-249 41t-248.5 -41t-202.5 -119.5t-138 -204.5t-50 -286zM522 1171v80q0 33 29 33h346q166 0 234.5 -61.5t68.5 -210.5v-41q0 -157 -92 -217q38 -31 57 -113l64 -268 q3 -13 -2 -23t-19 -10h-159q-11 0 -16 1t-11 8.5t-10 23.5l-68 274q-14 62 -59 62h-84v-336q0 -33 -29 -33h-162q-28 0 -28 33v766h-31q-29 0 -29 32zM801 842h86q53 0 73.5 21.5t20.5 76.5v102q0 53 -21 75t-73 22h-86v-297z" />
<glyph unicode="&#xaf;" horiz-adv-x="991" d="M82 1462v137q0 58 51 58h725q51 0 51 -58v-137q0 -57 -51 -57h-725q-51 0 -51 57z" />
<glyph unicode="&#xb0;" horiz-adv-x="663" d="M63 1307v43q0 155 62.5 215.5t208.5 60.5q143 0 204.5 -60.5t61.5 -215.5v-43q0 -154 -62 -215.5t-204 -61.5q-145 0 -208 61.5t-63 215.5zM254 1241q0 -52 18.5 -74t61.5 -22q40 0 57 22t17 74v176q0 52 -17 73t-57 21q-43 0 -61.5 -21t-18.5 -73v-176z" />
<glyph unicode="&#xb1;" horiz-adv-x="1351" d="M80 57v138q0 57 51 57h1090q51 0 51 -57v-138q0 -57 -51 -57h-1090q-51 0 -51 57zM80 954v136q0 59 51 59h418v418q0 51 59 51h135q58 0 58 -51v-418h420q51 0 51 -59v-136q0 -59 -51 -59h-420v-418q0 -51 -58 -51h-135q-59 0 -59 51v418h-418q-51 0 -51 59z" />
<glyph unicode="&#xb2;" horiz-adv-x="606" d="M78 940v76q0 61 21.5 110t53 77.5t69 55.5t69 47t53 49.5t21.5 65.5v47q0 34 -14.5 48t-43.5 14q-33 0 -47 -17t-14 -59v-53q0 -25 -23 -25h-110q-23 0 -23 25q0 116 50.5 171.5t166.5 55.5q123 0 172 -54t49 -147q0 -43 -16 -79t-41 -61t-55.5 -47.5t-61 -44 t-55.5 -44.5t-41 -55t-16 -70v-8h252q22 0 22 -27v-47q0 -26 -22 -26h-396q-20 0 -20 22z" />
<glyph unicode="&#xb3;" horiz-adv-x="593" d="M68 1124v11q0 24 22 24h117q22 0 22 -24v-52q0 -39 15 -55t49 -16q32 0 45.5 15.5t13.5 55.5v66q0 50 -16.5 67t-59.5 17h-16q-20 0 -20 27v43q0 24 20 24h25q36 0 51.5 19t15.5 65v49q0 40 -13.5 56t-45.5 16t-46 -16.5t-14 -55.5v-37q0 -26 -24 -26h-111q-22 0 -22 26 v7q0 92 49 145t170 53q112 0 165.5 -46t53.5 -120v-35q0 -98 -59 -145q67 -54 67 -162l-2 -35q-2 -75 -56.5 -122.5t-170.5 -47.5q-113 0 -168.5 50.5t-56.5 158.5z" />
<glyph unicode="&#xb4;" horiz-adv-x="692" d="M82 1516q0 23 27 43l321 245q16 13 37 13t45 -35l88 -137q10 -17 10 -29q0 -21 -22 -35q-9 -5 -70 -33t-155.5 -70t-149.5 -63q-23 -10 -41 -10q-28 0 -45 25l-35 51q-10 15 -10 35z" />
<glyph unicode="&#xb5;" horiz-adv-x="1333" d="M59 1147v92q0 57 52 57h362q51 0 51 -57v-854q0 -96 32.5 -137t109.5 -41q76 0 107.5 41t31.5 137v854q0 57 53 57h262q51 0 51 -57v-1032h48q53 0 53 -57v-93q0 -57 -53 -57h-310q-51 0 -51 57v45l-10 7q-37 -51 -105.5 -80t-142.5 -29q-46 0 -80 10v-418q0 -57 -51 -57 h-260q-51 0 -51 57v1498h-47q-52 0 -52 57z" />
<glyph unicode="&#xb6;" horiz-adv-x="1505" d="M41 1092v16q2 144 32.5 241.5t97.5 157.5t165 85.5t242 25.5h796q51 0 51 -57v-113q0 -59 -51 -59h-450v-1797q0 -57 -54 -57h-168q-51 0 -51 57v988h-73q-144 0 -242 25t-165 85t-97.5 158t-32.5 244zM1102 -408v1614q0 58 53 58h168q51 0 51 -58v-1614q0 -57 -51 -57 h-168q-53 0 -53 57z" />
<glyph unicode="&#xb7;" horiz-adv-x="524" d="M68 672q0 83 56 138.5t136 55.5q84 0 141.5 -55.5t57.5 -138.5q0 -82 -58 -137.5t-141 -55.5q-80 0 -136 56t-56 137z" />
<glyph unicode="&#xb8;" horiz-adv-x="632" d="M57 -229l52 262q6 22 22 22h129q19 0 16 -22l-30 -146q52 35 129 35q88 0 143 -59.5t55 -163.5q0 -99 -65 -159t-176 -60q-102 0 -170 53t-76 125h164q6 -25 27 -41t51 -16q42 0 66 28t24 68q0 48 -22.5 80.5t-63.5 32.5q-69 0 -96 -62h-164q-18 0 -15 23z" />
<glyph unicode="&#xb9;" horiz-adv-x="505" d="M78 942v49q0 25 22 25h86v391q0 23 -20 23h-66q-22 0 -22 24v43q0 14 16 25l127 86q15 10 29 10h74q24 0 24 -25v-577h84q23 0 23 -25v-49q0 -24 -23 -24h-332q-22 0 -22 24z" />
<glyph unicode="&#xba;" horiz-adv-x="786" d="M74 1139v143q0 194 74 270t247 76q172 0 246 -76t74 -270v-143q0 -192 -74.5 -268t-245.5 -76q-173 0 -247 76t-74 268zM305 1044q0 -61 20 -86.5t70 -25.5q47 0 67.5 26t20.5 86v334q0 60 -20.5 86.5t-67.5 26.5q-50 0 -70 -26t-20 -87v-334z" />
<glyph unicode="&#xbb;" horiz-adv-x="884" d="M96 223v35q0 36 5 50t32 50l146 189v20l-146 191q-26 35 -31.5 49t-5.5 45v37q0 53 13 53q7 0 26 -16l250 -232q22 -20 27.5 -38t5.5 -50v-96q0 -24 -1 -35.5t-8.5 -27t-23.5 -29.5l-250 -232q-19 -16 -26 -16q-13 0 -13 53zM500 223v35q0 36 5 50t32 50l145 189v20 l-145 191q-26 35 -31.5 49t-5.5 45v37v23t1.5 15.5t4 11.5t6.5 3q8 0 27 -16l249 -232q22 -20 27.5 -38t5.5 -50v-96q0 -24 -1 -35.5t-8.5 -27t-23.5 -29.5l-249 -232q-19 -16 -27 -16t-10 11.5t-2 41.5z" />
<glyph unicode="&#xbc;" horiz-adv-x="1687" d="M63 682v66q0 34 31 34h119v543q0 35 -29 35h-88q-30 0 -30 35v55q0 20 22 35l172 112q4 3 11 8t10.5 7t8.5 4t11 2h105q30 0 30 -35v-801h119q31 0 31 -34v-66q0 -35 -31 -35h-461q-31 0 -31 35zM393 41q807 1507 821 1536q13 24 27 35.5t25 13.5t34 2h76 q29 0 36.5 -14.5t-5.5 -36.5q-805 -1505 -823 -1536q-15 -25 -29 -36t-24 -13t-33 -2h-76q-57 0 -29 51zM958 229v68q0 13 5 20l346 621q17 33 49 33h164q32 0 32 -35v-606h60q31 0 31 -33v-68q0 -34 -31 -34h-60v-160q0 -35 -32 -35h-156q-33 0 -33 35v160h-344 q-31 0 -31 34zM1182 330h151v284z" />
<glyph unicode="&#xbd;" horiz-adv-x="1787" d="M59 682v66q0 34 31 34h119v543q0 35 -29 35h-88q-31 0 -31 35v55q0 20 23 35l172 112q4 3 11 8t10.5 7t8.5 4t11 2h104q31 0 31 -35v-801h119q31 0 31 -34v-66q0 -35 -31 -35h-461q-31 0 -31 35zM365 14q0 10 10 27q805 1507 819 1536q14 25 28 36t25 13t35 2h76 q37 0 37 -24q0 -12 -9 -27q-805 -1505 -821 -1536q-15 -25 -29 -36t-24 -13t-33 -2h-76q-38 0 -38 24zM1120 33v100q0 73 21.5 132.5t56.5 99t77 72t83.5 59t76.5 53.5t56.5 62t21.5 77v45q0 59 -19.5 82t-66.5 23q-42 0 -60.5 -23t-18.5 -82v-74q0 -32 -31 -32h-152 q-30 0 -30 32q0 157 70.5 234.5t226.5 77.5q88 0 150 -21t94.5 -60t46.5 -86t14 -108q0 -59 -21.5 -108.5t-56.5 -84t-77 -65.5t-84 -61t-77 -62t-56.5 -76t-21.5 -96v-8h345q30 0 30 -35v-67q0 -33 -30 -33h-539q-29 0 -29 33z" />
<glyph unicode="&#xbe;" horiz-adv-x="1714" d="M55 934v14q0 35 31 35h160q33 0 33 -35v-69q0 -55 20 -77t66 -22q45 0 63 22t18 77v90q0 69 -22 92.5t-80 23.5h-22q-31 0 -31 35v60q0 34 31 34h32q50 0 71 25t21 90v68q0 55 -18 76.5t-63 21.5t-63.5 -21.5t-18.5 -76.5v-51q0 -35 -33 -35h-152q-30 0 -30 35v8 q0 61 14 107.5t46 85.5t93 60t148 21q154 0 227.5 -62.5t73.5 -166.5v-47q0 -134 -82 -201q43 -35 68 -93t24 -128l-2 -49q-2 -104 -78 -169t-235 -65q-156 0 -232.5 69t-77.5 218zM410 41q807 1507 821 1536q13 24 27 35.5t25 13.5t34 2h78q27 0 34 -15.5t-6 -35.5 q-805 -1505 -823 -1536q-15 -25 -28.5 -36t-24 -13t-33.5 -2h-76q-56 0 -28 51zM985 229v68q0 14 4 20l346 621q17 33 47 33h166q33 0 33 -35v-606h59q31 0 31 -33v-68q0 -34 -31 -34h-59v-160q0 -35 -33 -35h-155q-33 0 -33 35v160h-344q-31 0 -31 34zM1208 330h152v284z " />
<glyph unicode="&#xbf;" horiz-adv-x="1132" d="M43 377q0 59 24.5 111.5t63.5 92.5t86.5 78.5t95 78t86.5 82.5t63.5 100t24.5 122v45q0 58 52 58h235q51 0 51 -58v-45q0 -84 -23 -155.5t-59 -122.5t-80.5 -95t-88.5 -81t-80 -72t-59 -76t-23 -86q0 -79 34.5 -113t118.5 -34t119 36.5t35 129.5v45q0 57 51 57h266 q51 0 51 -57q0 -210 -134.5 -319t-391.5 -109q-120 0 -213 23t-149.5 60t-92.5 89.5t-49.5 104t-13.5 110.5zM487 1403v158q0 57 52 57h235q51 0 51 -57v-158q0 -57 -51 -57h-235q-52 0 -52 57z" />
<glyph unicode="&#xc0;" horiz-adv-x="1261" d="M23 57l339 1309h-63q-53 0 -53 57v138q0 57 53 57h496q48 0 63 -55l399 -1508q9 -22 2.5 -38.5t-34.5 -16.5h-273q-16 0 -23 1t-16.5 6t-15.5 16.5t-10 31.5l-60 246h-409l-58 -244q-10 -39 -22.5 -48t-44.5 -9h-234q-51 0 -36 57zM307 1937q0 12 10 29l89 137 q24 35 45 35t36 -12l322 -246q27 -20 27 -43q0 -15 -13 -35l-32 -51q-17 -25 -46 -25q-14 0 -40 11q-56 21 -151 63t-154 70t-70 33q-23 14 -23 34zM477 555h289l-145 602z" />
<glyph unicode="&#xc1;" horiz-adv-x="1261" d="M18 37l5 20l339 1309h-63q-53 0 -53 57v138q0 57 53 57h496q48 0 63 -55l399 -1508q0 -2 2.5 -10.5t2.5 -13.5q0 -31 -37 -31h-273q-16 0 -23 1t-16.5 6t-15.5 16.5t-10 31.5l-60 246h-409l-58 -244q-10 -39 -22.5 -48t-44.5 -9h-234q-41 0 -41 37zM375 1837q0 23 26 43 l322 246q15 12 37 12q20 0 45 -35l88 -137q10 -17 10 -29q0 -13 -4.5 -19.5t-17.5 -14.5q-9 -5 -70 -33t-155.5 -70t-149.5 -63q-26 -11 -41 -11q-28 0 -45 25l-35 51q-10 15 -10 35zM477 555h289l-145 602z" />
<glyph unicode="&#xc2;" horiz-adv-x="1261" d="M23 57l339 1309h-63q-53 0 -53 57v138q0 57 53 57h496q48 0 63 -55l399 -1508q9 -22 2.5 -38.5t-34.5 -16.5h-273q-16 0 -23 1t-16.5 6t-15.5 16.5t-10 31.5l-60 246h-409l-58 -244q-10 -39 -22.5 -48t-44.5 -9h-234q-51 0 -36 57zM154 1739q0 7 16 26l231 250 q20 21 37.5 27t46.5 6h197q29 0 46.5 -6t37.5 -27l231 -250q17 -20 17 -26q0 -13 -53 -13h-125q-25 0 -39.5 6t-40.5 31l-172 152l-172 -152q-26 -25 -40.5 -31t-39.5 -6h-125q-53 0 -53 13zM477 555h289l-145 602z" />
<glyph unicode="&#xc3;" horiz-adv-x="1261" d="M23 57l339 1309h-63q-53 0 -53 57v138q0 57 53 57h496q48 0 63 -55l399 -1508q9 -22 2.5 -38.5t-34.5 -16.5h-273q-16 0 -23 1t-16.5 6t-15.5 16.5t-10 31.5l-60 246h-409l-58 -244q-10 -39 -22.5 -48t-44.5 -9h-234q-51 0 -36 57zM172 1812q0 5 4 13q58 97 131 136.5 t168 39.5q52 0 156 -43t157 -43q35 0 67 11.5t47.5 22.5t39.5 31q23 17 29 17q10 0 16 -8q17 -23 37 -56q6 -9 6 -16q0 -4 -4 -12q-59 -98 -132 -138.5t-167 -40.5q-55 0 -103 14t-75.5 30.5t-63.5 30.5t-71 14q-32 0 -62.5 -10.5t-46 -20.5t-39.5 -29q-29 -22 -35 -22 q-10 0 -16 8q-20 27 -37 55q-6 9 -6 16zM477 555h289l-145 602z" />
<glyph unicode="&#xc4;" horiz-adv-x="1261" d="M23 57l339 1309h-63q-53 0 -53 57v138q0 57 53 57h496q48 0 63 -55l399 -1508q9 -22 2.5 -38.5t-34.5 -16.5h-273q-16 0 -23 1t-16.5 6t-15.5 16.5t-10 31.5l-60 246h-409l-58 -244q-10 -39 -22.5 -48t-44.5 -9h-234q-51 0 -36 57zM260 1784v158q0 57 51 57h170 q51 0 51 -57v-158q0 -58 -51 -58h-170q-51 0 -51 58zM477 555h289l-145 602zM717 1784v158q0 57 51 57h170q51 0 51 -57v-158q0 -58 -51 -58h-170q-51 0 -51 58z" />
<glyph unicode="&#xc5;" horiz-adv-x="1261" d="M23 57l339 1309h-63q-53 0 -53 57v138q0 57 53 57h496q48 0 63 -55l399 -1508q9 -22 2.5 -38.5t-34.5 -16.5h-273q-16 0 -23 1t-16.5 6t-15.5 16.5t-10 31.5l-60 246h-409l-58 -244q-10 -39 -22.5 -48t-44.5 -9h-234q-51 0 -36 57zM410 1944q0 89 64 153t153 64t153 -64 t64 -153t-64 -153.5t-153 -64.5t-153 64.5t-64 153.5zM477 555h289l-145 602zM535 1944q0 -38 27 -65.5t65 -27.5t65 27.5t27 65.5t-27 65t-65 27t-65 -27t-27 -65z" />
<glyph unicode="&#xc6;" horiz-adv-x="1558" d="M23 57l342 1309h-70q-51 0 -51 57v138q0 57 51 57h1163q51 0 51 -57v-138q0 -57 -51 -57h-399v-506h266q51 0 51 -57v-137q0 -58 -51 -58h-266v-356h399q51 0 51 -57v-138q0 -57 -51 -57h-725q-51 0 -51 57v244h-264l-58 -244q-12 -57 -65 -57h-236q-51 0 -36 57z M477 555h205v811h-12z" />
<glyph unicode="&#xc7;" horiz-adv-x="1210" d="M86 535v548q0 156 28.5 260t93 167.5t161 90.5t239.5 27q140 0 238.5 -27t167 -88.5t101 -162t32.5 -246.5v-64q0 -57 -51 -57h-267q-51 0 -51 57v127q0 112 -36 155.5t-124 43.5q-87 0 -121 -44t-34 -157v-712q0 -113 34 -157t121 -44q88 0 124 43t36 151v132 q0 57 51 57h267q51 0 51 -57v-68q0 -145 -31.5 -244.5t-99.5 -160.5t-167 -88t-241 -27h-41l-20 -103q52 35 129 35q88 0 143 -59.5t55 -163.5q0 -99 -65 -159t-176 -60q-102 0 -170 53t-76 125h164q6 -25 27 -41t51 -16q42 0 66 28t24 68q0 48 -22.5 80.5t-63.5 32.5 q-69 0 -96 -62h-164q-18 0 -15 23l45 237q-168 35 -242.5 158.5t-74.5 368.5z" />
<glyph unicode="&#xc8;" horiz-adv-x="1021" d="M43 666v137q0 57 51 57h51v701q0 57 52 57h725q53 0 53 -57v-138q0 -57 -53 -57h-400v-506h266q52 0 52 -57v-137q0 -58 -52 -58h-266v-356h400q53 0 53 -57v-138q0 -57 -53 -57h-725q-52 0 -52 57v551h-51q-51 0 -51 58zM276 1937q0 11 11 29l88 137q25 35 45 35 q22 0 37 -12l321 -246q27 -20 27 -43q0 -17 -12 -35l-33 -51q-17 -25 -45 -25q-15 0 -41 11q-56 21 -151 63t-154 70t-70 33q-23 14 -23 34z" />
<glyph unicode="&#xc9;" horiz-adv-x="1021" d="M43 666v137q0 57 51 57h51v701q0 57 52 57h725q53 0 53 -57v-138q0 -57 -53 -57h-400v-506h266q52 0 52 -57v-137q0 -58 -52 -58h-266v-356h400q53 0 53 -57v-138q0 -57 -53 -57h-725q-52 0 -52 57v551h-51q-51 0 -51 58zM313 1837q0 23 27 43l322 246q15 12 36 12 t45 -35l88 -137q11 -18 11 -29q0 -20 -23 -34q-9 -5 -70 -33t-155.5 -70t-149.5 -63q-26 -11 -41 -11q-28 0 -45 25l-34 51q-11 16 -11 35z" />
<glyph unicode="&#xca;" horiz-adv-x="1021" d="M43 666v137q0 57 51 57h51v701q0 57 52 57h725q53 0 53 -57v-138q0 -57 -53 -57h-400v-506h266q52 0 52 -57v-137q0 -58 -52 -58h-266v-356h400q53 0 53 -57v-138q0 -57 -53 -57h-725q-52 0 -52 57v551h-51q-51 0 -51 58zM129 1739q0 7 16 26l232 250q20 21 37.5 27 t46.5 6h196q29 0 46.5 -6t37.5 -27l232 -250q16 -19 16 -26q0 -13 -53 -13h-125q-25 0 -39.5 6t-40.5 31l-172 152l-172 -152q-26 -25 -40.5 -31t-39.5 -6h-125q-53 0 -53 13z" />
<glyph unicode="&#xcb;" horiz-adv-x="1021" d="M43 666v137q0 57 51 57h51v701q0 57 52 57h725q53 0 53 -57v-138q0 -57 -53 -57h-400v-506h266q52 0 52 -57v-137q0 -58 -52 -58h-266v-356h400q53 0 53 -57v-138q0 -57 -53 -57h-725q-52 0 -52 57v551h-51q-51 0 -51 58zM197 1784v158q0 57 51 57h170q51 0 51 -57v-158 q0 -58 -51 -58h-170q-51 0 -51 58zM653 1784v158q0 57 52 57h169q52 0 52 -57v-158q0 -58 -52 -58h-169q-52 0 -52 58z" />
<glyph unicode="&#xcc;" horiz-adv-x="608" d="M35 1937q0 12 10 29l88 137q25 35 45 35q22 0 37 -12l322 -246q26 -20 26 -43q0 -17 -12 -35l-33 -51q-17 -25 -45 -25q-15 0 -41 11q-56 21 -151 63t-154 70t-70 33q-13 8 -17.5 14.5t-4.5 19.5zM115 57v1504q0 57 53 57h272q52 0 52 -57v-1504q0 -57 -52 -57h-272 q-53 0 -53 57z" />
<glyph unicode="&#xcd;" horiz-adv-x="608" d="M41 1837q0 23 27 43l321 246q15 12 37 12q20 0 45 -35l88 -137q10 -17 10 -29q0 -13 -4.5 -19.5t-17.5 -14.5q-9 -5 -70 -33t-155.5 -70t-149.5 -63q-26 -11 -41 -11q-28 0 -45 25l-35 51q-10 15 -10 35zM115 57v1504q0 57 53 57h272q52 0 52 -57v-1504q0 -57 -52 -57 h-272q-53 0 -53 57z" />
<glyph unicode="&#xce;" horiz-adv-x="608" d="M-121 1739q0 6 17 26l231 250q20 21 37.5 27t46.5 6h197q29 0 46.5 -6t37.5 -27l231 -250q16 -19 16 -26q0 -13 -53 -13h-125q-25 0 -39.5 6t-40.5 31l-172 152l-172 -152q-26 -25 -40.5 -31t-39.5 -6h-125q-53 0 -53 13zM115 57v1504q0 57 53 57h272q52 0 52 -57v-1504 q0 -57 -52 -57h-272q-53 0 -53 57z" />
<glyph unicode="&#xcf;" horiz-adv-x="608" d="M-59 1784v158q0 57 51 57h170q51 0 51 -57v-158q0 -58 -51 -58h-170q-51 0 -51 58zM115 57v1504q0 57 53 57h272q52 0 52 -57v-1504q0 -57 -52 -57h-272q-53 0 -53 57zM397 1784v158q0 57 52 57h169q52 0 52 -57v-158q0 -58 -52 -58h-169q-52 0 -52 58z" />
<glyph unicode="&#xd0;" horiz-adv-x="1382" d="M14 731v135q0 58 52 58h170v442h-52q-51 0 -51 57v138q0 57 51 57h576q148 0 247.5 -25.5t165 -87t94.5 -159.5t29 -246v-582q0 -148 -29 -246t-94.5 -159.5t-165 -87t-247.5 -25.5h-576q-51 0 -51 57v138q0 57 51 57h52v420h-170q-52 0 -52 59zM610 252h150 q87 0 123.5 37t36.5 127v786q0 90 -36.5 127t-123.5 37h-150v-442h131q52 0 52 -58v-135q0 -59 -52 -59h-131v-420z" />
<glyph unicode="&#xd1;" horiz-adv-x="1308" d="M117 57v1504q0 57 53 57h272q32 0 42.5 -6.5t21.5 -40.5l307 -873v863q0 57 53 57h273q51 0 51 -57v-1504q0 -57 -51 -57h-271q-32 0 -41.5 6.5t-21.5 40.5l-311 875v-865q0 -57 -52 -57h-272q-53 0 -53 57zM225 1812q0 5 4 13q58 97 131 136.5t168 39.5q52 0 156.5 -43 t157.5 -43q35 0 67 12t46.5 22t39.5 31q23 17 29 17q10 0 16 -8q17 -23 37 -56q6 -9 6 -16q0 -4 -4 -12q-59 -98 -132 -138.5t-167 -40.5q-55 0 -103 14t-75.5 30.5t-63.5 30.5t-71 14q-32 0 -62.5 -10.5t-46 -20.5t-39.5 -29q-29 -22 -34 -22q-11 0 -17 8q-20 27 -37 55 q-6 9 -6 16z" />
<glyph unicode="&#xd2;" d="M86 535v548q0 156 30.5 260t99.5 167.5t169.5 90.5t249.5 27t250 -27t170 -90.5t100 -167.5t31 -260v-548q0 -156 -31 -260t-100 -167.5t-170 -90.5t-250 -27t-249.5 27t-169.5 90.5t-99.5 167.5t-30.5 260zM373 1937q0 12 10 29l88 137q25 35 45 35q22 0 37 -12 l321 -246q27 -20 27 -43q0 -17 -12 -35l-33 -51q-17 -25 -45 -25q-15 0 -41 11q-56 21 -151 63t-154 70t-70 33q-13 8 -17.5 14.5t-4.5 19.5zM475 453q0 -114 34.5 -157.5t125.5 -43.5t126.5 43.5t35.5 157.5v712q0 114 -35.5 157.5t-126.5 43.5t-125.5 -43.5t-34.5 -157.5 v-712z" />
<glyph unicode="&#xd3;" d="M86 535v548q0 156 30.5 260t99.5 167.5t169.5 90.5t249.5 27t250 -27t170 -90.5t100 -167.5t31 -260v-548q0 -156 -31 -260t-100 -167.5t-170 -90.5t-250 -27t-249.5 27t-169.5 90.5t-99.5 167.5t-30.5 260zM373 1837q0 23 26 43l322 246q15 12 37 12q20 0 45 -35 l88 -137q10 -17 10 -29q0 -13 -4.5 -19.5t-17.5 -14.5q-9 -5 -70 -33t-155.5 -70t-149.5 -63q-26 -11 -41 -11q-28 0 -45 25l-35 51q-10 15 -10 35zM475 453q0 -114 34.5 -157.5t125.5 -43.5t126.5 43.5t35.5 157.5v712q0 114 -35.5 157.5t-126.5 43.5t-125.5 -43.5 t-34.5 -157.5v-712z" />
<glyph unicode="&#xd4;" d="M86 535v548q0 156 30.5 260t99.5 167.5t169.5 90.5t249.5 27t250 -27t170 -90.5t100 -167.5t31 -260v-548q0 -156 -31 -260t-100 -167.5t-170 -90.5t-250 -27t-249.5 27t-169.5 90.5t-99.5 167.5t-30.5 260zM205 1739q0 7 16 26l232 250q20 21 37.5 27t46.5 6h196 q29 0 46.5 -6t37.5 -27l232 -250q16 -19 16 -26q0 -13 -53 -13h-125q-25 0 -39.5 6t-40.5 31l-172 152l-172 -152q-26 -25 -40.5 -31t-39.5 -6h-125q-53 0 -53 13zM475 453q0 -114 34.5 -157.5t125.5 -43.5t126.5 43.5t35.5 157.5v712q0 114 -35.5 157.5t-126.5 43.5 t-125.5 -43.5t-34.5 -157.5v-712z" />
<glyph unicode="&#xd5;" d="M86 535v548q0 156 30.5 260t99.5 167.5t169.5 90.5t249.5 27t250 -27t170 -90.5t100 -167.5t31 -260v-548q0 -156 -31 -260t-100 -167.5t-170 -90.5t-250 -27t-249.5 27t-169.5 90.5t-99.5 167.5t-30.5 260zM207 1812q0 5 4 13q58 97 131 136.5t168 39.5q52 0 156 -43 t157 -43q35 0 67 11.5t47.5 22.5t39.5 31q23 17 29 17q10 0 16 -8q17 -23 37 -56q6 -9 6 -16q0 -4 -4 -12q-59 -98 -132 -138.5t-167 -40.5q-55 0 -103 14t-75.5 30.5t-63.5 30.5t-71 14q-32 0 -62.5 -10.5t-46 -20.5t-39.5 -29q-29 -22 -35 -22q-10 0 -16 8q-20 27 -37 55 q-6 9 -6 16zM475 453q0 -114 34.5 -157.5t125.5 -43.5t126.5 43.5t35.5 157.5v712q0 114 -35.5 157.5t-126.5 43.5t-125.5 -43.5t-34.5 -157.5v-712z" />
<glyph unicode="&#xd6;" d="M86 535v548q0 156 30.5 260t99.5 167.5t169.5 90.5t249.5 27t250 -27t170 -90.5t100 -167.5t31 -260v-548q0 -156 -31 -260t-100 -167.5t-170 -90.5t-250 -27t-249.5 27t-169.5 90.5t-99.5 167.5t-30.5 260zM270 1784v158q0 57 52 57h170q51 0 51 -57v-158q0 -58 -51 -58 h-170q-52 0 -52 58zM475 453q0 -114 34.5 -157.5t125.5 -43.5t126.5 43.5t35.5 157.5v712q0 114 -35.5 157.5t-126.5 43.5t-125.5 -43.5t-34.5 -157.5v-712zM727 1784v158q0 57 51 57h170q51 0 51 -57v-158q0 -58 -51 -58h-170q-51 0 -51 58z" />
<glyph unicode="&#xd7;" horiz-adv-x="1130" d="M74 307q0 19 16 35l297 295l-297 297q-16 16 -16 35q0 18 22 43l94 96q17 20 43 20q19 0 35 -16l297 -297l297 297q13 16 33 16q23 0 43 -20l96 -96q21 -21 21 -43q0 -18 -17 -35l-297 -297l297 -295q17 -17 17 -35q0 -22 -21 -43l-96 -96q-21 -21 -43 -21q-16 0 -33 17 l-297 297l-297 -297q-17 -17 -35 -17q-25 0 -43 21l-94 96q-22 25 -22 43z" />
<glyph unicode="&#xd8;" d="M45 -119q0 9 10 29l125 233q-94 122 -94 392v548q0 156 30.5 260t99.5 167.5t169.5 90.5t249.5 27q202 0 315 -51l70 129q14 25 28.5 37t26 14t35.5 2h84q41 0 41 -22q0 -11 -10 -31l-129 -242q90 -124 90 -381v-548q0 -156 -31 -260t-100 -167.5t-170 -90.5t-250 -27 q-192 0 -309 47l-68 -127q-15 -27 -29 -39t-25 -14t-36 -2h-82q-41 0 -41 26zM475 690l311 580q-13 52 -49 74t-102 22q-91 0 -125.5 -43.5t-34.5 -157.5v-475zM487 336q15 -45 50 -64.5t98 -19.5q91 0 126.5 43.5t35.5 157.5v456z" />
<glyph unicode="&#xd9;" horiz-adv-x="1273" d="M111 535v1026q0 57 51 57h274q51 0 51 -57v-1108q0 -113 33 -157t117 -44q90 0 124 43.5t34 157.5v1108q0 57 51 57h266q51 0 51 -57v-1026q0 -156 -29.5 -260t-95.5 -167.5t-162.5 -90.5t-238.5 -27q-193 0 -305.5 50t-166.5 169t-54 326zM373 1937q0 12 10 29l88 137 q25 35 45 35q22 0 37 -12l321 -246q27 -20 27 -43q0 -17 -12 -35l-33 -51q-17 -25 -45 -25q-15 0 -41 11q-56 21 -151 63t-154 70t-70 33q-13 8 -17.5 14.5t-4.5 19.5z" />
<glyph unicode="&#xda;" horiz-adv-x="1273" d="M111 535v1026q0 57 51 57h274q51 0 51 -57v-1108q0 -113 33 -157t117 -44q90 0 124 43.5t34 157.5v1108q0 57 51 57h266q51 0 51 -57v-1026q0 -156 -29.5 -260t-95.5 -167.5t-162.5 -90.5t-238.5 -27q-193 0 -305.5 50t-166.5 169t-54 326zM373 1837q0 23 26 43l322 246 q15 12 37 12q20 0 45 -35l88 -137q10 -17 10 -29q0 -13 -4.5 -19.5t-17.5 -14.5q-9 -5 -70 -33t-155.5 -70t-149.5 -63q-26 -11 -41 -11q-28 0 -45 25l-35 51q-10 15 -10 35z" />
<glyph unicode="&#xdb;" horiz-adv-x="1273" d="M111 535v1026q0 57 51 57h274q51 0 51 -57v-1108q0 -113 33 -157t117 -44q90 0 124 43.5t34 157.5v1108q0 57 51 57h266q51 0 51 -57v-1026q0 -156 -29.5 -260t-95.5 -167.5t-162.5 -90.5t-238.5 -27q-193 0 -305.5 50t-166.5 169t-54 326zM207 1739q0 7 16 26l232 250 q20 21 37.5 27t46.5 6h196q29 0 46.5 -6t37.5 -27l232 -250q16 -19 16 -26q0 -13 -53 -13h-125q-25 0 -39.5 6t-40.5 31l-172 152l-172 -152q-26 -25 -40.5 -31t-39.5 -6h-125q-53 0 -53 13z" />
<glyph unicode="&#xdc;" horiz-adv-x="1273" d="M111 535v1026q0 57 51 57h274q51 0 51 -57v-1108q0 -113 33 -157t117 -44q90 0 124 43.5t34 157.5v1108q0 57 51 57h266q51 0 51 -57v-1026q0 -156 -29.5 -260t-95.5 -167.5t-162.5 -90.5t-238.5 -27q-193 0 -305.5 50t-166.5 169t-54 326zM281 1784v158q0 57 51 57h170 q51 0 51 -57v-158q0 -58 -51 -58h-170q-51 0 -51 58zM737 1784v158q0 57 51 57h170q52 0 52 -57v-158q0 -58 -52 -58h-170q-51 0 -51 58z" />
<glyph unicode="&#xdd;" horiz-adv-x="1193" d="M8 1563q-20 55 27 55h274q15 0 22.5 -1t17 -6t16.5 -16.5t14 -31.5l227 -629l228 629q10 27 20.5 39t19.5 14t29 2h258q48 0 27 -55l-404 -1022v-484q0 -57 -51 -57h-274q-51 0 -51 57v494zM334 1837q0 23 26 43l322 246q15 12 37 12q21 0 45 -35l88 -137q10 -17 10 -29 q0 -13 -4.5 -19.5t-17.5 -14.5q-9 -5 -70 -33t-155.5 -70t-149.5 -63q-26 -11 -41 -11q-28 0 -45 25l-35 51q-10 15 -10 35z" />
<glyph unicode="&#xde;" horiz-adv-x="1329" d="M117 57v1504q0 57 51 57h272q52 0 52 -57v-224h251q293 0 415 -116t122 -402q0 -149 -29 -247.5t-95 -159.5t-165 -87t-248 -26h-251v-242q0 -57 -52 -57h-272q-51 0 -51 57zM492 551h251q87 0 123.5 36.5t36.5 129.5v205q0 90 -36.5 126.5t-123.5 36.5h-251v-534z" />
<glyph unicode="&#xdf;" horiz-adv-x="1308" d="M45 57v138q0 57 51 57h51v833q0 156 28.5 259t94.5 167t165.5 90.5t248.5 26.5q138 0 234.5 -23.5t164 -79t99.5 -147.5t32 -227q0 -199 -124 -291q76 -49 111.5 -136t35.5 -222v-64q0 -126 -29.5 -209.5t-96 -134.5t-165 -72.5t-246.5 -21.5q-51 0 -51 57v138 q0 57 53 57q87 0 123.5 39.5t36.5 140.5v141q0 101 -37 142t-123 41q-53 0 -53 57v86q0 57 53 57q77 0 107.5 39t30.5 146q0 97 -15.5 146t-47 65t-93.5 16q-89 0 -124.5 -37.5t-35.5 -140.5v-1133q0 -57 -53 -57h-375q-51 0 -51 57z" />
<glyph unicode="&#xe0;" horiz-adv-x="1189" d="M55 326v36q0 71 22 126t59.5 90t86 60t102 40.5t107.5 28t102.5 25t86 29t59.5 44t22 65.5v78q0 77 -30.5 109.5t-110.5 32.5q-82 0 -112.5 -35.5t-30.5 -124.5v-56q0 -59 -51 -59h-236q-53 0 -53 59v44q0 200 130 294.5t367 94.5q179 0 285 -48t157.5 -160.5 t51.5 -307.5v-584h47q51 0 51 -57v-93q0 -57 -51 -57h-309q-51 0 -51 57v45l-13 9q-105 -121 -292 -121q-177 0 -286.5 88t-109.5 248zM348 1616q0 12 10 29l88 137q24 35 46 35q20 0 36 -13l322 -245q27 -20 27 -43q0 -16 -13 -35l-33 -51q-17 -25 -45 -25q-18 0 -41 10 q-56 21 -150.5 63t-153.5 69.5t-70 33.5q-23 14 -23 35zM412 356q0 -81 32 -115t105 -34q84 0 118.5 40.5t34.5 121.5v243l-12 9q-36 -19 -94.5 -39.5t-93.5 -34t-62.5 -43.5t-27.5 -74v-74z" />
<glyph unicode="&#xe1;" horiz-adv-x="1189" d="M55 326v36q0 71 22 126t59.5 90t86 60t102 40.5t107.5 28t102.5 25t86 29t59.5 44t22 65.5v78q0 77 -30.5 109.5t-110.5 32.5q-82 0 -112.5 -35.5t-30.5 -124.5v-56q0 -59 -51 -59h-236q-53 0 -53 59v44q0 200 130 294.5t367 94.5q179 0 285 -48t157.5 -160.5 t51.5 -307.5v-584h47q51 0 51 -57v-93q0 -57 -51 -57h-309q-51 0 -51 57v45l-13 9q-105 -121 -292 -121q-177 0 -286.5 88t-109.5 248zM348 1516q0 23 27 43l321 245q16 13 37 13t45 -35l88 -137q11 -18 11 -29q0 -21 -23 -35q-9 -5 -70 -33t-155.5 -70t-149.5 -63 q-23 -10 -41 -10q-28 0 -45 25l-35 51q-10 15 -10 35zM412 356q0 -81 32 -115t105 -34q84 0 118.5 40.5t34.5 121.5v243l-12 9q-36 -19 -94.5 -39.5t-93.5 -34t-62.5 -43.5t-27.5 -74v-74z" />
<glyph unicode="&#xe2;" horiz-adv-x="1189" d="M55 326v36q0 71 22 126t59.5 90t86 60t102 40.5t107.5 28t102.5 25t86 29t59.5 44t22 65.5v78q0 77 -30.5 109.5t-110.5 32.5q-82 0 -112.5 -35.5t-30.5 -124.5v-56q0 -59 -51 -59h-236q-53 0 -53 59v44q0 200 130 294.5t367 94.5q179 0 285 -48t157.5 -160.5 t51.5 -307.5v-584h47q51 0 51 -57v-93q0 -57 -51 -57h-309q-51 0 -51 57v45l-13 9q-105 -121 -292 -121q-177 0 -286.5 88t-109.5 248zM182 1417q0 7 17 27l231 250q20 21 37.5 26.5t46.5 5.5h197q29 0 46.5 -5.5t37.5 -26.5l231 -250q16 -19 16 -27t-11.5 -10t-41.5 -2 h-125q-25 0 -39.5 6t-40.5 31l-172 151l-172 -151q-26 -25 -40.5 -31t-39.5 -6h-124q-54 0 -54 12zM412 356q0 -81 32 -115t105 -34q84 0 118.5 40.5t34.5 121.5v243l-12 9q-36 -19 -94.5 -39.5t-93.5 -34t-62.5 -43.5t-27.5 -74v-74z" />
<glyph unicode="&#xe3;" horiz-adv-x="1189" d="M55 326v36q0 71 22 126t59.5 90t86 60t102 40.5t107.5 28t102.5 25t86 29t59.5 44t22 65.5v78q0 77 -30.5 109.5t-110.5 32.5q-82 0 -112.5 -35.5t-30.5 -124.5v-56q0 -59 -51 -59h-236q-53 0 -53 59v44q0 200 130 294.5t367 94.5q179 0 285 -48t157.5 -160.5 t51.5 -307.5v-584h47q51 0 51 -57v-93q0 -57 -51 -57h-309q-51 0 -51 57v45l-13 9q-105 -121 -292 -121q-177 0 -286.5 88t-109.5 248zM182 1491q0 4 4 12q58 97 131 136.5t168 39.5q52 0 156.5 -43t157.5 -43q35 0 67 12t46 22.5t40 31.5q21 16 29 16q10 0 16 -8 q20 -27 37 -55q6 -9 6 -17q0 -4 -4 -12q-58 -98 -131.5 -138t-167.5 -40q-70 0 -125.5 22t-100 44t-87.5 22q-32 0 -62.5 -10.5t-46.5 -20.5t-39 -28q-31 -23 -34 -23q-11 0 -17 8q-17 23 -37 56q-6 9 -6 16zM412 356q0 -81 32 -115t105 -34q84 0 118.5 40.5t34.5 121.5v243 l-12 9q-36 -19 -94.5 -39.5t-93.5 -34t-62.5 -43.5t-27.5 -74v-74z" />
<glyph unicode="&#xe4;" horiz-adv-x="1189" d="M55 326v36q0 71 22 126t59.5 90t86 60t102 40.5t107.5 28t102.5 25t86 29t59.5 44t22 65.5v78q0 77 -30.5 109.5t-110.5 32.5q-82 0 -112.5 -35.5t-30.5 -124.5v-56q0 -59 -51 -59h-236q-53 0 -53 59v44q0 200 130 294.5t367 94.5q179 0 285 -48t157.5 -160.5 t51.5 -307.5v-584h47q51 0 51 -57v-93q0 -57 -51 -57h-309q-51 0 -51 57v45l-13 9q-105 -121 -292 -121q-177 0 -286.5 88t-109.5 248zM246 1462v158q0 57 51 57h170q51 0 51 -57v-158q0 -57 -51 -57h-170q-51 0 -51 57zM412 356q0 -81 32 -115t105 -34q84 0 118.5 40.5 t34.5 121.5v243l-12 9q-36 -19 -94.5 -39.5t-93.5 -34t-62.5 -43.5t-27.5 -74v-74zM702 1462v158q0 57 52 57h170q51 0 51 -57v-158q0 -57 -51 -57h-170q-52 0 -52 57z" />
<glyph unicode="&#xe5;" horiz-adv-x="1189" d="M55 326v36q0 71 22 126t59.5 90t86 60t102 40.5t107.5 28t102.5 25t86 29t59.5 44t22 65.5v78q0 77 -30.5 109.5t-110.5 32.5q-82 0 -112.5 -35.5t-30.5 -124.5v-56q0 -59 -51 -59h-236q-53 0 -53 59v44q0 200 130 294.5t367 94.5q179 0 285 -48t157.5 -160.5 t51.5 -307.5v-584h47q51 0 51 -57v-93q0 -57 -51 -57h-309q-51 0 -51 57v45l-13 9q-105 -121 -292 -121q-177 0 -286.5 88t-109.5 248zM393 1622q0 89 64 153t153 64t153 -64t64 -153t-64 -153t-153 -64t-153 64t-64 153zM412 356q0 -81 32 -115t105 -34q84 0 118.5 40.5 t34.5 121.5v243l-12 9q-36 -19 -94.5 -39.5t-93.5 -34t-62.5 -43.5t-27.5 -74v-74zM518 1622q0 -38 27 -65t65 -27t65 27t27 65t-27 65t-65 27t-65 -27t-27 -65z" />
<glyph unicode="&#xe6;" horiz-adv-x="1777" d="M55 326v36q0 71 22 126t59.5 90t86 60t102 40.5t107.5 28t102.5 25t86 29t59.5 44t22 65.5v78q0 76 -31.5 109t-107.5 33q-81 0 -111 -35.5t-30 -124.5v-56q0 -59 -51 -59h-240q-53 0 -53 59v44q0 200 130 294.5t367 94.5q205 0 316 -64q111 64 319 64q239 0 368.5 -103 t129.5 -334v-157q0 -60 -51 -66l-588 -80v-200q0 -85 34.5 -122.5t108.5 -37.5q83 0 115.5 36t32.5 124v55q0 59 53 59h244q51 0 51 -59v-37q0 -204 -132.5 -299.5t-365.5 -95.5q-165 0 -269 39.5t-161 130.5q-108 -170 -329 -170q-177 0 -286.5 88t-109.5 248zM414 356 q0 -81 32 -115t105 -34q80 0 115.5 41t35.5 121v245l-10 7q-35 -19 -93.5 -39.5t-93.5 -34t-63 -43.5t-28 -74v-74zM1069 741l291 41v129q0 97 -33 138t-115 41q-76 0 -109.5 -42t-33.5 -137v-170z" />
<glyph unicode="&#xe7;" horiz-adv-x="1140" d="M74 535v227q0 156 28.5 260.5t92.5 168t157 90t230 26.5q113 0 202 -22t156 -68.5t103 -124t36 -181.5v-37q0 -59 -51 -59h-244q-53 0 -53 59v56q0 89 -32 124.5t-115 35.5q-77 0 -110.5 -42t-33.5 -137v-526q0 -95 33.5 -136.5t110.5 -41.5q83 0 115 35.5t32 124.5v55 q0 59 53 59h244q51 0 51 -59v-37q0 -104 -36 -181.5t-103 -123.5t-156 -68t-202 -22q-38 0 -56 2l-20 -105q52 35 129 35q88 0 143.5 -59.5t55.5 -163.5q0 -99 -65 -159t-177 -60q-102 0 -170 53t-76 125h164q6 -25 27 -41t51 -16q42 0 66 28t24 68q0 48 -22.5 80.5 t-63.5 32.5q-69 0 -96 -62h-164q-18 0 -15 23l48 241q-153 40 -222 162.5t-69 360.5z" />
<glyph unicode="&#xe8;" horiz-adv-x="1148" d="M74 535v227q0 156 28.5 260.5t92.5 168t157 90t230 26.5q239 0 368 -103t129 -334v-157q0 -60 -51 -66l-588 -80v-182q0 -95 33.5 -136.5t110.5 -41.5q83 0 115 35.5t32 124.5v55q0 59 53 59h244q51 0 51 -59v-37q0 -104 -36 -181.5t-103 -123.5t-156 -68t-202 -22 q-137 0 -230 26.5t-157 90t-92.5 168t-28.5 260.5zM313 1616q0 11 11 29l88 137q24 35 45 35t37 -13l321 -245q27 -20 27 -43q0 -16 -13 -35l-32 -51q-17 -25 -45 -25q-18 0 -41 10q-56 21 -151 63t-154 70t-70 33q-23 14 -23 35zM440 741l291 41v129q0 97 -32.5 138 t-114.5 41q-77 0 -110.5 -42t-33.5 -137v-170z" />
<glyph unicode="&#xe9;" horiz-adv-x="1148" d="M74 535v227q0 156 28.5 260.5t92.5 168t157 90t230 26.5q239 0 368 -103t129 -334v-157q0 -60 -51 -66l-588 -80v-182q0 -95 33.5 -136.5t110.5 -41.5q83 0 115 35.5t32 124.5v55q0 59 53 59h244q51 0 51 -59v-37q0 -104 -36 -181.5t-103 -123.5t-156 -68t-202 -22 q-137 0 -230 26.5t-157 90t-92.5 168t-28.5 260.5zM313 1516q0 23 27 43l322 245q16 13 36 13q21 0 45 -35l88 -137q11 -18 11 -29q0 -21 -23 -35q-9 -5 -70 -33t-155.5 -70t-149.5 -63q-23 -10 -41 -10q-28 0 -45 25l-34 51q-11 17 -11 35zM440 741l291 41v129 q0 97 -32.5 138t-114.5 41q-77 0 -110.5 -42t-33.5 -137v-170z" />
<glyph unicode="&#xea;" horiz-adv-x="1148" d="M74 535v227q0 156 28.5 260.5t92.5 168t157 90t230 26.5q239 0 368 -103t129 -334v-157q0 -60 -51 -66l-588 -80v-182q0 -95 33.5 -136.5t110.5 -41.5q83 0 115 35.5t32 124.5v55q0 59 53 59h244q51 0 51 -59v-37q0 -104 -36 -181.5t-103 -123.5t-156 -68t-202 -22 q-137 0 -230 26.5t-157 90t-92.5 168t-28.5 260.5zM145 1417q0 7 17 27l231 250q20 21 37.5 26.5t46.5 5.5h197q29 0 46.5 -5.5t37.5 -26.5l231 -250q17 -20 17 -27q0 -12 -54 -12h-125q-25 0 -39 6t-40 31l-173 151l-172 -151q-26 -25 -40 -31t-39 -6h-125q-54 0 -54 12z M440 741l291 41v129q0 97 -32.5 138t-114.5 41q-77 0 -110.5 -42t-33.5 -137v-170z" />
<glyph unicode="&#xeb;" horiz-adv-x="1148" d="M74 535v227q0 156 28.5 260.5t92.5 168t157 90t230 26.5q239 0 368 -103t129 -334v-157q0 -60 -51 -66l-588 -80v-182q0 -95 33.5 -136.5t110.5 -41.5q83 0 115 35.5t32 124.5v55q0 59 53 59h244q51 0 51 -59v-37q0 -104 -36 -181.5t-103 -123.5t-156 -68t-202 -22 q-137 0 -230 26.5t-157 90t-92.5 168t-28.5 260.5zM211 1462v158q0 57 51 57h170q51 0 51 -57v-158q0 -57 -51 -57h-170q-51 0 -51 57zM440 741l291 41v129q0 97 -32.5 138t-114.5 41q-77 0 -110.5 -42t-33.5 -137v-170zM668 1462v158q0 57 51 57h170q51 0 51 -57v-158 q0 -57 -51 -57h-170q-51 0 -51 57z" />
<glyph unicode="&#xec;" horiz-adv-x="620" d="M43 1147v92q0 57 51 57h363q51 0 51 -57v-1182q0 -57 -51 -57h-264q-52 0 -52 57v1033h-47q-51 0 -51 57zM53 1616q0 12 10 29l89 137q24 35 45 35q20 0 36 -13l322 -245q27 -20 27 -43q0 -16 -13 -35l-32 -51q-17 -25 -45 -25q-18 0 -41 10q-56 21 -151 63t-154 70 t-70 33q-23 14 -23 35z" />
<glyph unicode="&#xed;" horiz-adv-x="620" d="M43 1147v92q0 57 51 57h363q51 0 51 -57v-1182q0 -57 -51 -57h-264q-52 0 -52 57v1033h-47q-51 0 -51 57zM70 1516q0 24 26 43l322 245q16 13 37 13t45 -35l88 -137q10 -17 10 -29q0 -21 -23 -35q-10 -5 -70 -33t-154.5 -70t-149.5 -63q-23 -10 -41 -10q-28 0 -45 25 l-35 51q-10 15 -10 35z" />
<glyph unicode="&#xee;" horiz-adv-x="620" d="M-102 1417q0 8 16 27l231 250q20 21 37.5 26.5t46.5 5.5h197q29 0 46.5 -5.5t37.5 -26.5l231 -250q17 -20 17 -27q0 -8 -11.5 -10t-41.5 -2h-125q-25 0 -39.5 6t-40.5 31l-172 151l-172 -151q-26 -25 -40.5 -31t-39.5 -6h-125h-23t-15.5 1.5t-11.5 4t-3 6.5zM43 1147v92 q0 57 51 57h363q51 0 51 -57v-1182q0 -57 -51 -57h-264q-52 0 -52 57v1033h-47q-51 0 -51 57z" />
<glyph unicode="&#xef;" horiz-adv-x="620" d="M-53 1462v158q0 57 51 57h170q51 0 51 -57v-158q0 -57 -51 -57h-170q-51 0 -51 57zM43 1147v92q0 57 51 57h363q51 0 51 -57v-1182q0 -57 -51 -57h-264q-52 0 -52 57v1033h-47q-51 0 -51 57zM403 1462v158q0 57 52 57h170q51 0 51 -57v-158q0 -57 -51 -57h-170 q-52 0 -52 57z" />
<glyph unicode="&#xf0;" horiz-adv-x="1202" d="M47 510v59q0 93 11.5 162.5t41.5 130.5t80 99.5t128.5 60.5t185.5 22q127 0 237 -65v225l-141 -63q-53 -21 -53 35v86q0 58 53 79l135 62q-10 57 -46 81.5t-104 24.5h-208q-52 0 -52 58v102q0 57 52 57h217q331 0 446 -182l176 80q51 22 51 -35v-86q0 -57 -51 -80 l-116 -53q8 -44 8 -102v-758q0 -279 -120 -399.5t-407 -120.5q-285 0 -404.5 120.5t-119.5 399.5zM416 375q0 -92 36 -130t119 -38q85 0 122.5 38t37.5 130v284q0 91 -36.5 128.5t-119.5 37.5q-85 0 -122 -37.5t-37 -128.5v-284z" />
<glyph unicode="&#xf1;" horiz-adv-x="1259" d="M43 1147v92q0 57 51 57h309q52 0 52 -57v-45l10 -8q103 121 280 121q105 0 178.5 -25.5t127 -86t79 -165t25.5 -258.5v-715q0 -57 -51 -57h-262q-51 0 -51 57v854q0 96 -33 137.5t-109 41.5t-108.5 -41.5t-32.5 -137.5v-854q0 -57 -51 -57h-262q-54 0 -54 57v1033h-47 q-51 0 -51 57zM188 1491q0 2 5 12q58 97 131 136.5t168 39.5q52 0 156 -43t157 -43q35 0 67 12t46 22.5t40 31.5q21 16 29 16q11 0 17 -8q15 -20 36 -55q7 -11 7 -17q0 -2 -5 -12q-58 -98 -131.5 -138t-167.5 -40q-70 0 -125.5 22t-100 44t-87.5 22q-32 0 -62 -10.5 t-45.5 -20.5t-39.5 -28q-31 -23 -35 -23q-11 0 -17 8q-12 16 -36 56q-7 11 -7 16z" />
<glyph unicode="&#xf2;" horiz-adv-x="1161" d="M74 535v227q0 156 28.5 260.5t92.5 168t157 90t230 26.5t229 -26.5t155.5 -90t92 -168t28.5 -260.5v-227q0 -156 -28.5 -260.5t-92 -168t-155.5 -90t-229 -26.5t-230 26.5t-157 90t-92.5 168t-28.5 260.5zM326 1616q0 12 10 29l88 137q25 35 45 35q21 0 37 -13l321 -245 q27 -20 27 -43q0 -17 -12 -35l-33 -51q-17 -25 -45 -25q-18 0 -41 10q-56 21 -151 63t-154 70t-70 33q-22 14 -22 35zM440 385q0 -96 32.5 -137t109.5 -41q76 0 107.5 41t31.5 137v526q0 96 -31.5 137.5t-107.5 41.5q-77 0 -109.5 -41.5t-32.5 -137.5v-526z" />
<glyph unicode="&#xf3;" horiz-adv-x="1161" d="M74 535v227q0 156 28.5 260.5t92.5 168t157 90t230 26.5t229 -26.5t155.5 -90t92 -168t28.5 -260.5v-227q0 -156 -28.5 -260.5t-92 -168t-155.5 -90t-229 -26.5t-230 26.5t-157 90t-92.5 168t-28.5 260.5zM317 1516q0 23 27 43l322 245q16 13 36 13q22 0 46 -35l88 -137 q10 -17 10 -29q0 -21 -23 -35q-10 -5 -70 -33t-154.5 -70t-149.5 -63q-23 -10 -41 -10q-29 0 -46 25l-34 51q-11 17 -11 35zM440 385q0 -96 32.5 -137t109.5 -41q76 0 107.5 41t31.5 137v526q0 96 -31.5 137.5t-107.5 41.5q-77 0 -109.5 -41.5t-32.5 -137.5v-526z" />
<glyph unicode="&#xf4;" horiz-adv-x="1161" d="M74 535v227q0 156 28.5 260.5t92.5 168t157 90t230 26.5t229 -26.5t155.5 -90t92 -168t28.5 -260.5v-227q0 -156 -28.5 -260.5t-92 -168t-155.5 -90t-229 -26.5t-230 26.5t-157 90t-92.5 168t-28.5 260.5zM160 1417q0 8 16 27l232 250q20 21 37.5 26.5t46.5 5.5h196 q29 0 46.5 -5.5t37.5 -26.5l232 -250q16 -19 16 -27t-11.5 -10t-41.5 -2h-125q-25 0 -39.5 6t-40.5 31l-172 151l-172 -151q-26 -25 -40.5 -31t-39.5 -6h-125h-23t-15.5 1.5t-11.5 4t-3 6.5zM440 385q0 -96 32.5 -137t109.5 -41q76 0 107.5 41t31.5 137v526 q0 96 -31.5 137.5t-107.5 41.5q-77 0 -109.5 -41.5t-32.5 -137.5v-526z" />
<glyph unicode="&#xf5;" horiz-adv-x="1161" d="M74 535v227q0 156 28.5 260.5t92.5 168t157 90t230 26.5t229 -26.5t155.5 -90t92 -168t28.5 -260.5v-227q0 -156 -28.5 -260.5t-92 -168t-155.5 -90t-229 -26.5t-230 26.5t-157 90t-92.5 168t-28.5 260.5zM160 1491q0 4 4 12q58 97 131 136.5t168 39.5q52 0 156 -43 t157 -43q35 0 67 12t47 22.5t40 31.5q21 16 28 16q11 0 17 -8q20 -27 37 -55q6 -9 6 -17q0 -4 -4 -12q-58 -98 -131.5 -138t-167.5 -40q-55 0 -103 13.5t-76 30.5t-64 30.5t-71 13.5q-32 0 -62 -10.5t-45.5 -20.5t-39.5 -28q-31 -23 -35 -23q-10 0 -16 8q-17 23 -37 56 q-6 9 -6 16zM440 385q0 -96 32.5 -137t109.5 -41q76 0 107.5 41t31.5 137v526q0 96 -31.5 137.5t-107.5 41.5q-77 0 -109.5 -41.5t-32.5 -137.5v-526z" />
<glyph unicode="&#xf6;" horiz-adv-x="1161" d="M74 535v227q0 156 28.5 260.5t92.5 168t157 90t230 26.5t229 -26.5t155.5 -90t92 -168t28.5 -260.5v-227q0 -156 -28.5 -260.5t-92 -168t-155.5 -90t-229 -26.5t-230 26.5t-157 90t-92.5 168t-28.5 260.5zM225 1462v158q0 57 51 57h170q52 0 52 -57v-158q0 -57 -52 -57 h-170q-51 0 -51 57zM440 385q0 -96 32.5 -137t109.5 -41q76 0 107.5 41t31.5 137v526q0 96 -31.5 137.5t-107.5 41.5q-77 0 -109.5 -41.5t-32.5 -137.5v-526zM682 1462v158q0 57 51 57h170q51 0 51 -57v-158q0 -57 -51 -57h-170q-51 0 -51 57z" />
<glyph unicode="&#xf7;" horiz-adv-x="837" d="M66 580v135q0 59 51 59h604q51 0 51 -59v-135q0 -60 -51 -60h-604q-51 0 -51 60zM283 180v156q0 57 51 57h168q53 0 53 -57v-156q0 -59 -53 -59h-168q-51 0 -51 59zM283 973v157q0 58 51 58h168q53 0 53 -58v-157q0 -58 -53 -58h-168q-51 0 -51 58z" />
<glyph unicode="&#xf8;" horiz-adv-x="1161" d="M72 -125q49 94 123 229q-121 124 -121 431v227q0 156 28.5 260.5t92.5 168t157 90t230 26.5q134 0 239 -31q18 34 36 67.5t26.5 49.5t9.5 18q17 33 35.5 42t50.5 9h84q27 0 34.5 -15.5t-5.5 -35.5q-49 -90 -121 -225q116 -125 116 -424v-227q0 -156 -28.5 -260.5 t-92 -168t-155.5 -90t-229 -26.5q-133 0 -236 28q-19 -35 -39 -71t-29 -53t-10 -19q-19 -33 -36.5 -42t-49.5 -9h-80q-55 0 -30 51zM440 563l254 477q-30 50 -112 50q-77 0 -109.5 -41.5t-32.5 -137.5v-348zM471 250q32 -43 111 -43q76 0 107.5 41t31.5 137v332z" />
<glyph unicode="&#xf9;" horiz-adv-x="1284" d="M29 1147v92q0 57 53 57h360q54 0 54 -57v-854q0 -96 31.5 -137t107.5 -41q74 0 107.5 37t33.5 123v872q0 57 51 57h265q51 0 51 -57v-1032h47q53 0 53 -57v-93q0 -57 -53 -57h-309q-52 0 -52 57v45l-12 9q-97 -121 -278 -121q-105 0 -178 25.5t-127 85.5t-79.5 164.5 t-25.5 258.5v566h-47q-53 0 -53 57zM375 1616q0 12 10 29l88 137q25 35 45 35q21 0 37 -13l322 -245q26 -19 26 -43q0 -17 -12 -35l-33 -51q-17 -25 -45 -25q-18 0 -41 10q-56 21 -151 63t-154 70t-70 33q-22 14 -22 35z" />
<glyph unicode="&#xfa;" horiz-adv-x="1284" d="M29 1147v92q0 57 53 57h360q54 0 54 -57v-854q0 -96 31.5 -137t107.5 -41q74 0 107.5 37t33.5 123v872q0 57 51 57h265q51 0 51 -57v-1032h47q53 0 53 -57v-93q0 -57 -53 -57h-309q-52 0 -52 57v45l-12 9q-97 -121 -278 -121q-105 0 -178 25.5t-127 85.5t-79.5 164.5 t-25.5 258.5v566h-47q-53 0 -53 57zM375 1516q0 24 26 43l322 245q16 13 37 13q20 0 45 -35l88 -137q10 -17 10 -29q0 -21 -22 -35q-9 -5 -70 -33t-155.5 -70t-149.5 -63q-23 -10 -41 -10q-28 0 -45 25l-35 51q-10 15 -10 35z" />
<glyph unicode="&#xfb;" horiz-adv-x="1284" d="M29 1147v92q0 57 53 57h360q54 0 54 -57v-854q0 -96 31.5 -137t107.5 -41q74 0 107.5 37t33.5 123v872q0 57 51 57h265q51 0 51 -57v-1032h47q53 0 53 -57v-93q0 -57 -53 -57h-309q-52 0 -52 57v45l-12 9q-97 -121 -278 -121q-105 0 -178 25.5t-127 85.5t-79.5 164.5 t-25.5 258.5v566h-47q-53 0 -53 57zM209 1417q0 8 16 27l232 250q20 21 37.5 26.5t46.5 5.5h196q29 0 46.5 -5.5t37.5 -26.5l232 -250q16 -19 16 -27t-11.5 -10t-41.5 -2h-125q-25 0 -39.5 6t-40.5 31l-172 151l-172 -151q-26 -25 -40.5 -31t-39.5 -6h-125h-23t-15.5 1.5 t-11.5 4t-3 6.5z" />
<glyph unicode="&#xfc;" horiz-adv-x="1284" d="M29 1147v92q0 57 53 57h360q54 0 54 -57v-854q0 -96 31.5 -137t107.5 -41q74 0 107.5 37t33.5 123v872q0 57 51 57h265q51 0 51 -57v-1032h47q53 0 53 -57v-93q0 -57 -53 -57h-309q-52 0 -52 57v45l-12 9q-97 -121 -278 -121q-105 0 -178 25.5t-127 85.5t-79.5 164.5 t-25.5 258.5v566h-47q-53 0 -53 57zM270 1462v158q0 57 52 57h170q51 0 51 -57v-158q0 -57 -51 -57h-170q-52 0 -52 57zM727 1462v158q0 57 51 57h170q51 0 51 -57v-158q0 -57 -51 -57h-170q-51 0 -51 57z" />
<glyph unicode="&#xfd;" horiz-adv-x="1128" d="M18.5 1281q6.5 15 34.5 15h250q27 0 43 -11.5t23 -43.5l202 -891l215 891q8 33 22.5 44t41.5 11h223q27 0 35 -15t0 -40l-336 -1227q-24 -86 -45 -149.5t-46.5 -114.5t-48.5 -85t-57.5 -59t-66 -38t-82 -21t-96.5 -10t-119 -2h-8q-27 0 -37 16t-4 41l24 93q15 57 68 57 h72q63 0 88.5 31t48.5 123l24 104h-81q-28 0 -41 9.5t-23 45.5l-322 1186q-8 25 -1.5 40zM299 1516q0 23 27 43l321 245q16 13 37 13t45 -35l88 -137q10 -17 10 -29q0 -21 -22 -35q-9 -5 -70 -33t-155.5 -70t-149.5 -63q-23 -10 -41 -10q-28 0 -45 25l-35 51q-10 15 -10 35z " />
<glyph unicode="&#xfe;" horiz-adv-x="1206" d="M14 1612v92q0 57 54 57h348q51 0 51 -57v-469l10 -8q96 80 240 80q145 0 232.5 -48.5t133 -167t45.5 -319.5v-248q0 -152 -24 -255t-76.5 -164.5t-127 -88t-183.5 -26.5q-147 0 -240 80l-10 -9v-469q0 -57 -51 -57h-250q-51 0 -51 57v1962h-47q-54 0 -54 58zM481 367 q0 -86 33 -123t107 -37q77 0 109 41t32 137v526q0 96 -32 137.5t-109 41.5q-76 0 -108 -41.5t-32 -137.5v-544z" />
<glyph unicode="&#xff;" horiz-adv-x="1128" d="M18.5 1281q6.5 15 34.5 15h250q27 0 43 -11.5t23 -43.5l202 -891l215 891q8 33 22.5 44t41.5 11h223q27 0 35 -15t0 -40l-336 -1227q-24 -86 -45 -149.5t-46.5 -114.5t-48.5 -85t-57.5 -59t-66 -38t-82 -21t-96.5 -10t-119 -2h-8q-27 0 -37 16t-4 41l24 93q15 57 68 57 h72q63 0 88.5 31t48.5 123l24 104h-81q-28 0 -41 9.5t-23 45.5l-322 1186q-8 25 -1.5 40zM207 1462v158q0 57 51 57h170q51 0 51 -57v-158q0 -57 -51 -57h-170q-51 0 -51 57zM664 1462v158q0 57 51 57h170q51 0 51 -57v-158q0 -57 -51 -57h-170q-51 0 -51 57z" />
<glyph unicode="&#x152;" horiz-adv-x="1685" d="M86 535v548q0 156 30.5 260t99.5 167.5t169.5 90.5t249.5 27q81 0 166 -10h784q51 0 51 -57v-138q0 -57 -51 -57h-446v-506h313q51 0 51 -57v-137q0 -58 -51 -58h-313v-356h446q51 0 51 -57v-138q0 -57 -51 -57h-784q-85 -10 -166 -10q-149 0 -249.5 27t-169.5 90.5 t-99.5 167.5t-30.5 260zM475 453q0 -114 34.5 -157.5t125.5 -43.5t126.5 43.5t35.5 157.5v712q0 114 -35.5 157.5t-126.5 43.5t-125.5 -43.5t-34.5 -157.5v-712z" />
<glyph unicode="&#x153;" horiz-adv-x="1796" d="M74 535v227q0 156 28.5 260.5t92.5 168t157 90t230 26.5q213 0 321 -68q111 68 326 68q239 0 368 -103t129 -334v-157q0 -60 -51 -66l-588 -80v-182q0 -95 33.5 -136.5t110.5 -41.5q83 0 115 35.5t32 124.5v55q0 59 54 59h243q51 0 51 -59v-37q0 -104 -36 -181.5 t-103 -123.5t-156 -68t-202 -22q-215 0 -326 65q-108 -65 -321 -65q-137 0 -230 26.5t-157 90t-92.5 168t-28.5 260.5zM440 385q0 -96 32.5 -137t109.5 -41q76 0 107.5 41t31.5 137v526q0 96 -31.5 137.5t-107.5 41.5q-77 0 -109.5 -41.5t-32.5 -137.5v-526zM1087 741 l291 41v129q0 97 -32.5 138t-114.5 41q-77 0 -110.5 -42t-33.5 -137v-170z" />
<glyph unicode="&#x178;" horiz-adv-x="1193" d="M8 1563q-20 55 27 55h274q15 0 22.5 -1t17 -6t16.5 -16.5t14 -31.5l227 -629l228 629q10 27 20.5 39t19.5 14t29 2h258q48 0 27 -55l-404 -1022v-484q0 -57 -51 -57h-274q-51 0 -51 57v494zM236 1784v158q0 57 51 57h170q51 0 51 -57v-158q0 -58 -51 -58h-170 q-51 0 -51 58zM692 1784v158q0 57 51 57h170q52 0 52 -57v-158q0 -58 -52 -58h-170q-51 0 -51 58z" />
<glyph unicode="&#x2c6;" horiz-adv-x="1024" d="M82 1417q0 8 16 27l232 250q20 21 37.5 26.5t46.5 5.5h196q29 0 46.5 -5.5t37.5 -26.5l232 -250q16 -19 16 -27t-11.5 -10t-41.5 -2h-125q-25 0 -39.5 6t-40.5 31l-172 151l-172 -151q-26 -25 -40.5 -31t-39.5 -6h-125h-23t-15.5 1.5t-11.5 4t-3 6.5z" />
<glyph unicode="&#x2dc;" horiz-adv-x="1021" d="M82 1491q0 4 4 12q58 97 131 136.5t168 39.5q52 0 156 -43t157 -43q35 0 67 12t47 22.5t40 31.5q21 16 29 16q10 0 16 -8q20 -27 37 -55q6 -9 6 -17q0 -4 -4 -12q-58 -98 -131.5 -138t-167.5 -40q-70 0 -125.5 22t-100 44t-87.5 22q-32 0 -62.5 -10.5t-46.5 -20.5 t-39 -28q-31 -23 -35 -23q-10 0 -16 8q-17 23 -37 56q-6 9 -6 16z" />
<glyph unicode="&#x2000;" horiz-adv-x="1080" />
<glyph unicode="&#x2001;" horiz-adv-x="2161" />
<glyph unicode="&#x2002;" horiz-adv-x="1080" />
<glyph unicode="&#x2003;" horiz-adv-x="2161" />
<glyph unicode="&#x2004;" horiz-adv-x="720" />
<glyph unicode="&#x2005;" horiz-adv-x="540" />
<glyph unicode="&#x2006;" horiz-adv-x="360" />
<glyph unicode="&#x2007;" horiz-adv-x="360" />
<glyph unicode="&#x2008;" horiz-adv-x="270" />
<glyph unicode="&#x2009;" horiz-adv-x="432" />
<glyph unicode="&#x200a;" horiz-adv-x="120" />
<glyph unicode="&#x2010;" horiz-adv-x="888" d="M92 580v137q0 57 51 57h602q54 0 54 -57v-137q0 -58 -54 -58h-602q-51 0 -51 58z" />
<glyph unicode="&#x2011;" horiz-adv-x="888" d="M92 580v137q0 57 51 57h602q54 0 54 -57v-137q0 -58 -54 -58h-602q-51 0 -51 58z" />
<glyph unicode="&#x2012;" horiz-adv-x="888" d="M92 580v137q0 57 51 57h602q54 0 54 -57v-137q0 -58 -54 -58h-602q-51 0 -51 58z" />
<glyph unicode="&#x2013;" horiz-adv-x="952" d="M90 541v135q0 59 51 59h670q51 0 51 -59v-135q0 -60 -51 -60h-670q-51 0 -51 60z" />
<glyph unicode="&#x2014;" horiz-adv-x="1687" d="M90 541v135q0 59 51 59h1405q51 0 51 -59v-135q0 -60 -51 -60h-1405q-51 0 -51 60z" />
<glyph unicode="&#x2018;" horiz-adv-x="413" d="M72 1130v160q0 33 8 64l70 209q9 27 18 39t17 14t28 2h39q24 0 32 -13t3 -42l-37 -220h41q53 0 53 -57v-156q0 -59 -53 -59h-168q-51 0 -51 59z" />
<glyph unicode="&#x2019;" horiz-adv-x="399" d="M66 1403v158q0 57 51 57h168q53 0 53 -57v-162q0 -35 -10 -64l-68 -207q-12 -39 -24.5 -48t-40.5 -9h-37q-44 0 -35 57l37 218h-43q-51 0 -51 57z" />
<glyph unicode="&#x201a;" horiz-adv-x="440" d="M76 57v158q0 57 53 57h182q54 0 54 -57v-162q0 -31 -11 -63l-92 -299q-13 -40 -25 -49t-40 -9h-37q-49 0 -37 58l63 309h-57q-53 0 -53 57z" />
<glyph unicode="&#x201c;" horiz-adv-x="806" d="M72 1130v160q0 33 8 64l70 209q9 27 18 39t17 14t28 2h39q24 0 32 -13t3 -42l-37 -220h41q53 0 53 -57v-156q0 -59 -53 -59h-168q-51 0 -51 59zM467 1130v160q0 33 8 64l70 209q9 27 18 39t17 14t28 2h39q24 0 32 -13t3 -42l-37 -220h41q53 0 53 -57v-156q0 -59 -53 -59 h-168q-51 0 -51 59z" />
<glyph unicode="&#x201d;" horiz-adv-x="794" d="M66 1403v158q0 57 51 57h168q53 0 53 -57v-162q0 -35 -10 -64l-68 -207q-12 -39 -24.5 -48t-40.5 -9h-37q-44 0 -35 57l37 218h-43q-51 0 -51 57zM461 1403v158q0 57 51 57h168q53 0 53 -57v-162q0 -35 -10 -64l-70 -207q-13 -40 -24 -48.5t-39 -8.5h-37q-46 0 -37 57 l39 218h-43q-51 0 -51 57z" />
<glyph unicode="&#x201e;" horiz-adv-x="849" d="M76 57v158q0 57 53 57h182q54 0 54 -57v-162q0 -31 -11 -63l-92 -299q-13 -40 -25 -49t-40 -9h-37q-49 0 -37 58l63 309h-57q-53 0 -53 57zM487 57v158q0 57 52 57h182q53 0 53 -57v-162q0 -34 -10 -63l-92 -299q-13 -40 -25 -49t-41 -9h-37q-46 0 -34 58l61 309h-57 q-52 0 -52 57z" />
<glyph unicode="&#x2022;" horiz-adv-x="747" d="M111 649q0 108 77 185t185 77q112 0 188 -76.5t76 -185.5q0 -111 -76 -186.5t-188 -75.5q-108 0 -185 76t-77 186z" />
<glyph unicode="&#x2026;" horiz-adv-x="1212" d="M74 57v158q0 57 53 57h168q51 0 51 -57v-158q0 -57 -51 -57h-168q-53 0 -53 57zM469 57v158q0 57 53 57h168q51 0 51 -57v-158q0 -57 -51 -57h-168q-53 0 -53 57zM864 57v158q0 57 54 57h167q52 0 52 -57v-158q0 -57 -52 -57h-167q-54 0 -54 57z" />
<glyph unicode="&#x202f;" horiz-adv-x="432" />
<glyph unicode="&#x2039;" horiz-adv-x="479" d="M61 510v96q0 22 1 33t8.5 26t23.5 29l250 232q19 16 27 16t10 -11.5t2 -41.5v-37q0 -31 -5.5 -45t-31.5 -49l-145 -191v-20l145 -189q27 -36 32 -50t5 -50v-35v-23t-1.5 -15.5t-4 -11.5t-6.5 -3q-8 0 -27 16l-250 232q-22 20 -27.5 38.5t-5.5 53.5z" />
<glyph unicode="&#x203a;" horiz-adv-x="481" d="M96 223v35q0 36 5 50t32 50l146 189v20l-146 191q-26 35 -31.5 49t-5.5 45v37q0 53 13 53q7 0 26 -16l250 -232q22 -20 27.5 -38t5.5 -50v-96q0 -24 -1 -35.5t-8.5 -27t-23.5 -29.5l-250 -232q-19 -16 -26 -16q-13 0 -13 53z" />
<glyph unicode="&#x205f;" horiz-adv-x="540" />
<glyph unicode="&#x20ac;" horiz-adv-x="1400" d="M47 631l19 69q16 58 63 58h139v84h-143q-25 0 -33.5 14t-3.5 43l12 68q6 28 25.5 43.5t46.5 15.5h96v57q0 156 28.5 260t93.5 167.5t161 90.5t240 27q269 0 398.5 -105.5t129.5 -357.5q0 -57 -51 -57h-256q-51 0 -51 57q0 113 -35.5 157t-124.5 44q-87 0 -122.5 -44 t-35.5 -157v-139h289q54 0 39 -57l-19 -70q-15 -57 -65 -57h-244v-84h248q52 0 39 -58l-17 -69q-13 -58 -67 -58h-203v-120q0 -113 35.5 -157t122.5 -44q89 0 124.5 44t35.5 157q0 57 51 57h262q51 0 51 -57q0 -131 -33 -221t-101 -143t-163 -76t-229 -23q-147 0 -244.5 27 t-163 90.5t-94.5 167.5t-29 260v38h-184q-53 0 -37 58z" />
<glyph unicode="&#x2122;" horiz-adv-x="1738" d="M43 1501v82q0 35 31 35h577q33 0 33 -35v-82q0 -35 -33 -35h-174v-790q0 -35 -31 -35h-165q-31 0 -31 35v790h-176q-31 0 -31 35zM768 676l49 907q0 35 31 35h164q20 0 25.5 -4t11.5 -23l157 -483l158 483q6 19 11.5 23t23.5 4h164q29 0 32 -35l47 -907q3 -35 -28 -35 h-164q-30 0 -33 35l-24 487l-123 -411q-5 -18 -12 -23.5t-25 -5.5h-53q-18 0 -25 5.5t-12 23.5l-123 411l-27 -487q0 -35 -32 -35h-162q-34 0 -31 35z" />
<glyph unicode="&#x25fc;" horiz-adv-x="1300" d="M0 0v1300h1300v-1300h-1300z" />
<glyph unicode="&#xfb01;" horiz-adv-x="1359" d="M20 1147v92q0 57 52 57h92q4 258 110 361.5t347 103.5h120q52 0 52 -57v-92q0 -58 -52 -58h-127q-49 0 -67.5 -24.5t-18.5 -87.5v-146h670q51 0 51 -57v-1182q0 -57 -51 -57h-264q-51 0 -51 57v1033h-355v-1033q0 -57 -51 -57h-262q-51 0 -51 57v1033h-92q-52 0 -52 57z M883 1493v176q0 57 51 57h264q51 0 51 -57v-176q0 -59 -51 -59h-264q-51 0 -51 59z" />
<glyph unicode="&#xfb02;" horiz-adv-x="1345" d="M20 1147v92q0 57 52 57h92q4 258 110 361.5t347 103.5h559q51 0 51 -57v-1647q0 -57 -51 -57h-262q-52 0 -52 57v1497h-252q-49 0 -67.5 -24.5t-18.5 -87.5v-146h183q51 0 51 -57v-92q0 -57 -51 -57h-183v-1033q0 -57 -51 -57h-262q-51 0 -51 57v1033h-92q-52 0 -52 57z " />
</font>
</defs>
</svg>
