<?xml version="1.0" standalone="no"?>
<!DOCTYPE svg PUBLIC "-//W3C//DTD SVG 1.1//EN" "http://www.w3.org/Graphics/SVG/1.1/DTD/svg11.dtd" >
<svg xmlns="http://www.w3.org/2000/svg" xmlns:xlink="http://www.w3.org/1999/xlink" version="1.1">
<metadata></metadata>
<defs>
<font id="triumplight" horiz-adv-x="1275" >
<font-face units-per-em="2048" ascent="1536" descent="-512" />
<missing-glyph horiz-adv-x="436" />
<glyph horiz-adv-x="0" />
<glyph horiz-adv-x="682" />
<glyph unicode=" "  horiz-adv-x="436" />
<glyph unicode="&#x09;" horiz-adv-x="436" />
<glyph unicode="&#xa0;" horiz-adv-x="436" />
<glyph unicode="!" horiz-adv-x="458" d="M121 1681q0 45 43 45h129q47 0 47 -45l-43 -1163q-3 -45 -45 -45h-45q-24 0 -33.5 10.5t-11.5 34.5q-41 1130 -41 1163zM129 47v107q0 47 43 47h113q45 0 45 -47v-107q0 -47 -45 -47h-113q-43 0 -43 47z" />
<glyph unicode="&#x22;" horiz-adv-x="714" d="M92 1573q0 45 43 45h117q45 0 45 -45l-43 -524q-3 -45 -43 -45h-31q-24 0 -33.5 10.5t-11.5 34.5q-43 501 -43 524zM418 1573q0 45 43 45h117q45 0 45 -45l-43 -524q-3 -45 -43 -45h-31q-24 0 -33.5 10.5t-11.5 34.5q-43 501 -43 524z" />
<glyph unicode="#" horiz-adv-x="1515" d="M51 449l19 83q9 46 51 46h209l67 440h-211q-48 0 -39 45l19 84q9 45 53 45h207l59 381q6 45 54 45h84q45 0 39 -45l-62 -381h385l62 381q6 45 53 45h84q46 0 37 -45q0 -1 -7.5 -47.5t-23 -142.5t-29.5 -191h262q48 0 39 -45l-18 -84q-6 -25 -17.5 -35t-33.5 -10h-258 l-70 -440h262q48 0 39 -46l-18 -83q-11 -46 -54 -46h-258l-55 -358q-6 -45 -53 -45h-84q-46 0 -37 45q22 151 55 358h-387l-55 -358q-6 -45 -51 -45h-84q-45 0 -39 45l55 358h-211q-48 0 -39 46zM504 578h385l69 440h-385z" />
<glyph unicode="$" horiz-adv-x="1052" d="M82 487v45q0 50 43 50h129q45 0 45 -47v-46q0 -111 53.5 -154.5t173.5 -43.5q121 0 175.5 40.5t54.5 129.5v26q0 59 -22.5 105t-60 75t-87 52.5t-103.5 42.5t-108 40t-103.5 50t-87 67t-60 97t-22.5 135q0 137 75 215t251 96v111q0 45 45 45h111q45 0 45 -45v-113 q171 -17 247 -94.5t76 -224.5v-49q0 -50 -43 -50h-118q-46 0 -46 50v43q0 106 -52 149t-163 43q-116 0 -164.5 -40t-48.5 -130q0 -48 22.5 -85t60.5 -63t87 -47.5t103.5 -43t109 -45t103.5 -57.5t87 -77t60.5 -107t22.5 -143q0 -149 -77.5 -233t-266.5 -102v-109 q0 -45 -45 -45h-111q-45 0 -45 45v107q-191 15 -268.5 94t-77.5 241z" />
<glyph unicode="%" horiz-adv-x="1814" d="M80 1001v263q0 202 71 283t228 81q158 0 228.5 -81t70.5 -283v-263q0 -202 -70.5 -283t-228.5 -81q-157 0 -228 81t-71 283zM238 954q0 -126 30.5 -173.5t110.5 -47.5t111.5 48t31.5 173v357q0 125 -31.5 173t-111.5 48t-110.5 -47.5t-30.5 -173.5v-357zM305 35l504 713 q20 29 35 37t39 8h30q24 0 26 -11t-13 -34l-418 -713q-13 -22 -25 -32t-21 -11.5t-28 -1.5h-112q-51 0 -17 45zM872 836q-2 11 13 34l415 713q13 22 25 32t21 11.5t28 1.5h113q47 0 18 -45l-501 -713q-20 -29 -36 -37t-40 -8h-29q-25 0 -27 11zM1139 354v262q0 202 71 283.5 t228 81.5q158 0 228.5 -81.5t70.5 -283.5v-262q0 -202 -70.5 -283t-228.5 -81q-157 0 -228 81t-71 283zM1296 307q0 -125 31 -173t111 -48t110.5 47.5t30.5 173.5v357q0 126 -30.5 173.5t-110.5 47.5t-111 -48t-31 -173v-357z" />
<glyph unicode="&#x26;" horiz-adv-x="1384" d="M90 426v66q0 160 55.5 252.5t171.5 132.5q-131 91 -131 311v35q0 97 24.5 168t82 126t159.5 83t250 28q265 0 387.5 -103t122.5 -325v-26q0 -48 -43 -48h-135q-45 0 -45 50v59q0 139 -71 196.5t-216 57.5q-156 0 -225 -57t-69 -179v-106q0 -129 58.5 -179t203.5 -53h49 q43 0 43 -47v-30q0 -47 -43 -47h-109q-165 0 -231 -54t-66 -198v-156q0 -144 66 -199t231 -55h109q165 0 231 55t66 199v485q0 50 45 50h229q43 0 43 -46v-34q0 -47 -43 -47h-55v-347q0 -132 -29 -217.5t-98 -139t-175 -75.5t-269 -22q-149 0 -253 21.5t-178 71.5 t-108.5 134.5t-34.5 208.5z" />
<glyph unicode="'" horiz-adv-x="389" d="M92 1573q0 45 43 45h117q45 0 45 -45l-43 -524q-3 -45 -43 -45h-31q-24 0 -33.5 10.5t-11.5 34.5q-43 497 -43 524z" />
<glyph unicode="(" horiz-adv-x="536" d="M88 809q0 467 236 877q37 63 94 63h55q28 0 32.5 -16t-16.5 -47q-243 -352 -243 -877t243 -877q21 -31 16.5 -47t-32.5 -16h-55q-57 0 -94 63q-236 410 -236 877z" />
<glyph unicode=")" horiz-adv-x="536" d="M28.5 -115q-4.5 16 16.5 47q244 353 244 877t-244 877q-21 31 -16.5 47t32.5 16h56q57 0 94 -63q235 -408 235 -877t-235 -877q-37 -63 -94 -63h-56q-28 0 -32.5 16z" />
<glyph unicode="*" horiz-adv-x="1071" d="M100 930q0 22 25 35l291 168l-291 167q-25 16 -25 37q0 5 9 27l14 22q15 27 37 27q8 0 24 -8l293 -170v338q0 45 45 45h27q47 0 47 -45v-338l293 170q16 8 26 8q20 0 35 -27l13 -22q10 -15 10 -27q0 -21 -25 -34l-295 -170l295 -170q25 -13 25 -35q0 -12 -10 -27l-13 -22 q-15 -27 -35 -27q-10 0 -26 8l-293 168v-338q0 -43 -47 -43h-27q-45 0 -45 43v340l-293 -170q-16 -8 -24 -8q-22 0 -37 27l-14 22q-9 18 -9 29z" />
<glyph unicode="+" horiz-adv-x="1314" d="M61 627v45q0 47 43 47h484v481q0 45 47 45h45q47 0 47 -45v-481h481q45 0 45 -47v-45q0 -47 -45 -47h-481v-484q0 -43 -47 -43h-45q-47 0 -47 43v484h-484q-43 0 -43 47z" />
<glyph unicode="," horiz-adv-x="391" d="M94 47v107q0 47 45 47h111q45 0 45 -47v-125q0 -20 -6 -29l-80 -164q-16 -30 -25.5 -36.5t-29.5 -6.5h-27q-27 0 -27 21q0 2 4 22l50 164h-15q-45 0 -45 47z" />
<glyph unicode="-" horiz-adv-x="917" d="M106 627v45q0 47 44 47h618q45 0 45 -47v-45q0 -47 -45 -47h-618q-44 0 -44 47z" />
<glyph unicode="." horiz-adv-x="387" d="M92 47v107q0 47 45 47h111q45 0 45 -47v-107q0 -47 -45 -47h-111q-45 0 -45 47z" />
<glyph unicode="/" horiz-adv-x="1069" d="M39 10q0 5 8 25q821 1542 825 1548q22 45 70 45h57q31 0 31 -20q0 -9 -8 -25q-821 -1542 -825 -1548q-25 -45 -70 -45h-57q-31 0 -31 20z" />
<glyph unicode="0" horiz-adv-x="1171" d="M113 537v544q0 157 29.5 263.5t91 168.5t146.5 88.5t206 26.5q120 0 204.5 -26.5t146 -88.5t91 -169t29.5 -263v-544q0 -156 -29.5 -263t-91 -169t-146 -88.5t-204.5 -26.5q-121 0 -206 26.5t-146.5 88.5t-91 168.5t-29.5 263.5zM332 440q0 -163 60 -237t194 -74 q133 0 193.5 74t60.5 237v738q0 163 -60.5 237t-193.5 74q-134 0 -194 -74t-60 -237v-738z" />
<glyph unicode="1" horiz-adv-x="747" d="M70 47v39q0 47 43 47h168v1133q0 47 -50 47h-110q-43 0 -43 47v37q0 6 1.5 11.5t2.5 8.5t5 7.5t5.5 6t7 6t6.5 5.5l199 160q19 16 37 16h113q45 0 45 -47v-1438h168q45 0 45 -47v-39q0 -47 -45 -47h-555q-43 0 -43 47z" />
<glyph unicode="2" horiz-adv-x="1120" d="M88 45v111q0 102 25 189t67.5 149.5t97 116.5t115.5 95.5t121.5 80t115 76t97 77.5t67.5 91.5t25 111.5v28q0 179 -56 248.5t-192 69.5q-134 0 -190.5 -69.5t-56.5 -248.5v-73q0 -47 -45 -47h-127q-24 0 -33.5 11.5t-9.5 35.5q0 139 22.5 234.5t75 164t142 100 t222.5 31.5q107 0 189.5 -23.5t134.5 -64t85 -100t46.5 -125t13.5 -144.5q0 -82 -25 -152t-67 -121.5t-97 -97.5t-115 -85.5t-120.5 -80t-115.5 -87.5t-97 -101t-67 -127.5t-25 -160.5v-25h656q45 0 45 -47v-41q0 -45 -45 -45h-836q-43 0 -43 45z" />
<glyph unicode="3" horiz-adv-x="1148" d="M88 453v51q0 24 9.5 35.5t33.5 11.5h131q45 0 45 -47v-98q0 -151 62 -214t202 -63q133 0 191.5 63t58.5 214v77q0 157 -60 221t-196 64h-73q-46 0 -46 45v37q0 47 46 47h90q127 2 183 64.5t56 214.5v36q0 151 -58.5 214t-191.5 63q-132 0 -189.5 -62.5t-57.5 -214.5v-67 q0 -47 -45 -47h-127q-24 0 -33.5 11.5t-9.5 35.5v24q0 81 11.5 145t43 124.5t82.5 101t133.5 64.5t193.5 24q125 0 217 -29.5t145 -83.5t78 -122.5t25 -153.5v-70q0 -245 -164 -340q168 -109 168 -380v-56q0 -88 -25.5 -159t-79 -127t-146.5 -86.5t-220 -30.5 q-483 0 -483 463z" />
<glyph unicode="4" horiz-adv-x="1134" d="M35 408v41q0 16 8 32l637 1092q26 45 74 45h131q45 0 45 -47v-1077h98q45 0 45 -45v-41q0 -46 -45 -46h-98v-315q0 -47 -45 -47h-131q-43 0 -43 47v315h-633q-43 0 -43 46zM260 494h451v772z" />
<glyph unicode="5" horiz-adv-x="1107" d="M76 457v47q0 47 43 47h131q45 0 45 -47v-64q0 -163 60 -237t194 -74q133 0 192.5 74t59.5 237v193q0 177 -53.5 247t-178.5 70q-192 0 -233 -186q-9 -45 -49 -45h-113q-44 0 -41 45l70 809q3 45 49 45h676q45 0 45 -47v-39q0 -47 -45 -47h-525l-41 -475q104 80 236 80 q217 0 319.5 -119t102.5 -393v-95q0 -140 -31 -236.5t-93.5 -152.5t-146 -80t-200.5 -24q-113 0 -196.5 23.5t-147.5 76t-96.5 144.5t-32.5 223z" />
<glyph unicode="6" horiz-adv-x="1159" d="M117 463v692q0 110 22.5 192.5t73.5 147.5t143 99t224 34q107 0 188 -22t132.5 -60t83.5 -94.5t45 -119.5t13 -142q0 -47 -43 -47h-127q-45 0 -45 47v24q0 151 -56.5 213t-190.5 62t-189 -62t-55 -215v-288q111 108 303 108q215 0 319.5 -115.5t104.5 -386.5v-34 q0 -144 -31.5 -242t-97 -156t-156.5 -83t-221 -25q-123 0 -210 34t-136.5 99t-71.5 148t-22 192zM336 446q0 -176 59 -246.5t193 -70.5q138 0 197 70t59 247v132q0 177 -59 247t-197 70q-125 0 -188.5 -69.5t-63.5 -198.5v-181z" />
<glyph unicode="7" horiz-adv-x="839" d="M41 1532v39q0 47 43 47h680q45 0 45 -47v-74q0 -12 -4 -24l-449 -1428q-12 -45 -57 -45h-133q-33 0 -33 25q0 8 4 20l449 1440h-502q-24 0 -33.5 11.5t-9.5 35.5z" />
<glyph unicode="8" horiz-adv-x="1140" d="M98 428v45q0 140 42 236t143 149q-82 50 -117 135t-35 205v29q0 93 20.5 163t69 125.5t136.5 84t214 28.5q101 0 177.5 -19.5t126 -53.5t80 -85.5t43 -110t12.5 -132.5v-29q0 -246 -152 -340q100 -51 142 -148t42 -237v-45q0 -79 -13.5 -142.5t-46.5 -120t-85.5 -94.5 t-135 -59.5t-190.5 -21.5q-134 0 -228.5 32t-147 93t-75 137t-22.5 176zM317 406q0 -151 60 -214t194 -63q133 0 192.5 63t59.5 214v102q0 151 -59.5 213.5t-192.5 62.5t-193.5 -62.5t-60.5 -213.5v-102zM317 1176q0 -136 59 -194t191 -58q134 0 195 58t61 194v61 q0 137 -60.5 194.5t-195.5 57.5q-134 0 -192 -57t-58 -195v-61z" />
<glyph unicode="9" horiz-adv-x="1159" d="M96 1087v35q0 143 31.5 242t94.5 156.5t147 82.5t200 25q133 0 227 -33t147 -96t76 -143.5t23 -186.5v-720q0 -80 -11.5 -145t-43 -125t-82 -100.5t-132.5 -64.5t-191 -24t-191 22t-134 59.5t-83.5 94.5t-44 120t-12.5 142q0 47 43 47h127q45 0 45 -47v-25 q1 -152 57 -213t191 -61t189 61.5t54 215.5v288q-108 -108 -303 -108q-215 0 -319.5 115t-104.5 386zM315 1040q0 -177 58.5 -247t195.5 -70q124 0 189 70t65 198v180q0 176 -60 247t-194 71q-137 0 -195.5 -70.5t-58.5 -247.5v-131z" />
<glyph unicode=":" horiz-adv-x="446" d="M123 47v107q0 47 43 47h113q45 0 45 -47v-107q0 -47 -45 -47h-113q-43 0 -43 47zM123 870v107q0 47 43 47h113q45 0 45 -47v-107q0 -47 -45 -47h-113q-43 0 -43 47z" />
<glyph unicode=";" horiz-adv-x="446" d="M123 47v107q0 47 43 47h113q45 0 45 -47v-125q0 -19 -7 -29l-81 -164q-14 -30 -23.5 -36.5t-30.5 -6.5h-28q-12 0 -19.5 6t-7.5 15q0 7 6 22l49 164h-16q-43 0 -43 47zM123 870v107q0 47 43 47h113q45 0 45 -47v-107q0 -47 -45 -47h-113q-43 0 -43 47z" />
<glyph unicode="&#x3c;" horiz-adv-x="1032" d="M66 659v60q0 43 45 63l757 336q15 6 25 6q20 0 20 -32v-76q0 -47 -45 -66l-594 -262l594 -260q45 -19 45 -66v-75q0 -31 -20 -31q-10 0 -25 6l-757 334q-45 20 -45 63z" />
<glyph unicode="=" horiz-adv-x="1187" d="M123 344v45q0 47 43 47h854q45 0 45 -47v-45q0 -47 -45 -47h-854q-43 0 -43 47zM123 920v45q0 47 43 47h854q45 0 45 -47v-45q0 -48 -45 -48h-854q-43 0 -43 48z" />
<glyph unicode="&#x3e;" horiz-adv-x="1032" d="M119 287v75q0 47 45 66l594 260l-594 262q-45 19 -45 66v76q0 32 20 32q10 0 25 -6l758 -336q45 -20 45 -63v-60q0 -43 -45 -63l-758 -334q-15 -6 -25 -6q-20 0 -20 31z" />
<glyph unicode="?" horiz-adv-x="1114" d="M55 1190q0 229 119 333.5t397 104.5q114 0 202 -23t141.5 -60.5t88 -89t47.5 -103.5t13 -111t-27 -111.5t-70 -93t-95.5 -79t-105 -78t-95.5 -82.5t-70 -100t-27 -122v-55q0 -47 -45 -47h-127q-43 0 -43 47v55q0 78 26.5 147t69 119t94 95t103 84.5t94 77t69 82 t26.5 92.5q0 113 -63.5 165t-215.5 52q-157 0 -219.5 -60t-62.5 -215v-24q0 -47 -43 -47h-138q-43 0 -43 47zM358 47v107q0 47 43 47h127q45 0 45 -47v-107q0 -47 -45 -47h-127q-43 0 -43 47z" />
<glyph unicode="@" horiz-adv-x="1800" d="M86 809q0 195 64.5 352.5t176.5 258.5t259.5 154.5t318.5 53.5q136 0 258.5 -36t225 -109t177 -176.5t116.5 -245.5t42 -309v-197q0 -105 -54.5 -126t-278.5 -21h-213q-65 0 -91 13t-26 60l-6 4q-62 -84 -195 -84q-132 0 -199 73.5t-67 248.5v178q0 175 67 248.5 t199 73.5q131 0 195 -84l6 4v45q0 16 6 22.5t23 6.5h65q31 0 31 -29v-639q3 -35 37 -35h329q39 0 39 43v195q0 180 -53.5 323t-147 234t-216.5 138.5t-267 47.5q-143 0 -266.5 -43.5t-217.5 -127t-148 -216t-54 -299.5q0 -131 34 -242t95.5 -192t146 -137.5t185.5 -84.5 t213 -28h27q45 0 45 -47v-43q0 -45 -45 -45h-45q-165 0 -308.5 55t-251 157t-169.5 258.5t-62 348.5zM729 666q0 -85 38 -131t105 -46q91 0 134 44t43 116v326q0 72 -43 116t-134 44q-67 0 -105 -46t-38 -131v-292z" />
<glyph unicode="A" horiz-adv-x="1243" d="M25 25q0 6 4 22l446 1432h-61q-43 0 -43 47v45q0 47 43 47h276q46 0 58 -45l475 -1528q4 -16 4 -20q0 -25 -33 -25h-127q-18 0 -26 1.5t-17 11.5t-16 32l-97 313h-596l-94 -311q-7 -23 -15.5 -33t-16.5 -12t-27 -2h-105q-32 0 -32 25zM358 498h510l-254 835z" />
<glyph unicode="B" horiz-adv-x="1286" d="M76 47v45q0 24 9.5 35.5t33.5 11.5h59v1340h-59q-43 0 -43 47v45q0 24 9.5 35.5t33.5 11.5h530q196 0 308 -38.5t162 -123t50 -231.5v-33q0 -127 -36.5 -208t-118.5 -124q93 -44 134.5 -132t41.5 -234v-72q0 -121 -26 -200t-88.5 -129.5t-159.5 -71.5t-246 -21h-551 q-43 0 -43 47zM401 139h267q172 0 234.5 54t62.5 200v144q0 142 -66.5 195.5t-230.5 53.5h-267v-647zM401 918h246q166 0 231.5 48t65.5 181v104q0 95 -23.5 141.5t-85.5 66.5t-188 20h-246v-561z" />
<glyph unicode="C" horiz-adv-x="1208" d="M111 541v536q0 156 29.5 262t93 170t155.5 91.5t225 27.5q134 0 226 -27t157 -89t95 -166t30 -256v-21q0 -47 -45 -47h-133q-45 0 -45 47v39q0 211 -62 291t-221 80q-157 0 -218.5 -82.5t-61.5 -298.5v-578q0 -216 61.5 -298.5t218.5 -82.5q159 0 221 79t62 284v47 q0 47 45 47h133q45 0 45 -47v-27q0 -152 -29 -254.5t-93.5 -164t-157 -87.5t-228.5 -26q-181 0 -288.5 50.5t-161 171.5t-53.5 329z" />
<glyph unicode="D" horiz-adv-x="1302" d="M76 47v45q0 47 43 47h59v1340h-59q-43 0 -43 47v45q0 47 43 47h547q285 0 403.5 -105t118.5 -364v-680q0 -259 -118.5 -364t-403.5 -105h-547q-43 0 -43 47zM401 139h265q163 0 230 60.5t67 210.5v800q0 149 -67 209t-230 60h-265v-1340z" />
<glyph unicode="E" horiz-adv-x="983" d="M66 713v45q0 47 43 47h59v766q0 47 43 47h674q45 0 45 -47v-45q0 -47 -45 -47h-494v-674h277q45 0 45 -47v-45q0 -47 -45 -47h-277v-527h494q45 0 45 -47v-45q0 -47 -45 -47h-674q-43 0 -43 47v619h-59q-43 0 -43 47z" />
<glyph unicode="F" horiz-adv-x="952" d="M66 713v45q0 47 43 47h59v766q0 47 43 47h674q45 0 45 -47v-45q0 -47 -45 -47h-494v-674h277q45 0 45 -47v-45q0 -47 -45 -47h-277v-619q0 -47 -45 -47h-135q-43 0 -43 47v619h-59q-43 0 -43 47z" />
<glyph unicode="G" horiz-adv-x="1218" d="M111 541v536q0 156 30 262.5t94.5 170t156 91t222.5 27.5t221 -26.5t154 -88t93.5 -164.5t29.5 -255v-13q0 -47 -43 -47h-133q-45 0 -45 47v27q0 209 -61.5 290t-213.5 81t-216 -84t-64 -297v-578q0 -216 61.5 -298.5t218.5 -82.5q159 0 221 82.5t62 298.5v146h-256 q-24 0 -33.5 11.5t-9.5 35.5v45q0 47 43 47h434q45 0 45 -41v-227q0 -124 -20 -216t-59.5 -155.5t-101.5 -102.5t-141.5 -56t-185.5 -17q-133 0 -224.5 27.5t-155.5 91.5t-93.5 170t-29.5 262z" />
<glyph unicode="H" horiz-adv-x="1347" d="M66 713v45q0 47 43 47h59v766q0 47 43 47h135q45 0 45 -47v-766h565v766q0 47 43 47h136q45 0 45 -47v-766h57q45 0 45 -47v-45q0 -47 -45 -47h-57v-619q0 -47 -45 -47h-136q-43 0 -43 47v619h-565v-619q0 -47 -45 -47h-135q-43 0 -43 47v619h-59q-43 0 -43 47z" />
<glyph unicode="I" horiz-adv-x="522" d="M150 47v1524q0 47 43 47h137q43 0 43 -47v-1524q0 -47 -43 -47h-137q-43 0 -43 47z" />
<glyph unicode="J" horiz-adv-x="708" d="M25 45v47q0 47 45 47h127q85 0 115 53.5t30 202.5v1084h-63q-43 0 -43 47v45q0 47 43 47h243q43 0 43 -47v-1174q0 -216 -84 -306.5t-264 -90.5h-147q-45 0 -45 45z" />
<glyph unicode="K" horiz-adv-x="1226" d="M66 713v45q0 47 43 47h59v766q0 47 43 47h137q43 0 43 -47v-766h72l510 766q15 23 28 33.5t22 12t28 1.5h131q26 0 26 -14q0 -12 -14 -33l-557 -834l561 -692q14 -17 14 -29q0 -16 -26 -16h-137q-24 0 -37 7t-39 40l-502 619h-80v-619q0 -47 -43 -47h-137q-43 0 -43 47 v619h-59q-43 0 -43 47z" />
<glyph unicode="L" horiz-adv-x="804" d="M150 47v1524q0 47 43 47h137q43 0 43 -47v-1432h368q45 0 45 -47v-45q0 -47 -45 -47h-548q-43 0 -43 47z" />
<glyph unicode="M" horiz-adv-x="1597" d="M113 47l80 1524q3 47 45 47h129q19 0 26.5 -1.5t15.5 -11t15 -30.5l375 -1090l375 1090q8 28 18.5 35.5t30.5 7.5h137q42 0 45 -47l80 -1524v-6q0 -41 -41 -41h-129q-42 0 -45 47l-58 1075l-317 -942q-10 -29 -20 -36t-37 -7h-78q-27 0 -37.5 7t-20.5 36l-319 942 l-55 -1075q-3 -47 -45 -47h-129q-41 0 -41 41v6z" />
<glyph unicode="N" horiz-adv-x="1310" d="M150 47v1524q0 47 43 47h135q19 0 27 -1.5t18 -11t20 -30.5l545 -1169v1165q0 47 43 47h137q43 0 43 -47v-1524q0 -47 -45 -47h-135q-19 0 -27.5 1.5t-18.5 11t-20 30.5l-542 1163v-1159q0 -47 -43 -47h-137q-43 0 -43 47z" />
<glyph unicode="O" d="M111 541v536q0 156 31 262.5t98 170t162.5 91t232.5 27.5q138 0 233.5 -27.5t163 -91t99.5 -170t32 -262.5v-536q0 -156 -32 -262.5t-99.5 -170t-163 -91t-233.5 -27.5q-137 0 -232.5 27.5t-162.5 91t-98 170t-31 262.5zM338 520q0 -217 63.5 -299t233.5 -82 q171 0 236 82.5t65 298.5v578q0 216 -65 298.5t-236 82.5q-170 0 -233.5 -82t-63.5 -299v-578z" />
<glyph unicode="P" horiz-adv-x="1241" d="M63 1526v45q0 47 43 47h551q281 0 400 -103t119 -354v-117q0 -254 -118.5 -357t-400.5 -103h-268v-537q0 -47 -43 -47h-137q-43 0 -43 47v1432h-60q-43 0 -43 47zM389 715h264q165 0 232 60t67 218v217q0 149 -67.5 209t-231.5 60h-264v-764z" />
<glyph unicode="Q" d="M111 541v536q0 156 31 262.5t98 170t162.5 91t232.5 27.5q138 0 233.5 -27.5t163 -91t99.5 -170t32 -262.5v-536q0 -188 -48.5 -305.5t-142 -173.5t-243.5 -68v-225q0 -45 -45 -54l-100 -20q-7 -1 -13 -1q-30 0 -30 40v260q-225 18 -327.5 143t-102.5 404zM338 520 q0 -217 63.5 -299t233.5 -82q171 0 236 82.5t65 298.5v578q0 216 -65 298.5t-236 82.5q-170 0 -233.5 -82t-63.5 -299v-578z" />
<glyph unicode="R" horiz-adv-x="1284" d="M63 1526v45q0 47 43 47h551q281 0 400 -103t119 -354v-31q0 -162 -46 -260t-147 -147q72 -62 104 -188l130 -488q2 -9 2 -16q0 -31 -35 -31h-129q-18 0 -25.5 1.5t-16 12t-14.5 33.5l-145 518q-17 58 -48 81.5t-83 23.5h-334v-623q0 -47 -43 -47h-137q-43 0 -43 47v1432 h-60q-43 0 -43 47zM389 805h264q166 0 232.5 59.5t66.5 216.5v129q0 149 -67.5 209t-231.5 60h-264v-674z" />
<glyph unicode="S" horiz-adv-x="1214" d="M84 463v47q0 24 9.5 35.5t33.5 11.5h139q45 0 45 -47v-49q0 -180 67 -251t226 -71q156 0 226.5 57t70.5 177v33q0 67 -22.5 121t-60.5 89.5t-89 66.5t-108 52t-117.5 46.5t-117.5 49.5t-108 62t-89 83t-60.5 113t-22.5 152q0 92 25 160.5t81.5 121t154.5 79t237 26.5 q274 0 389 -104t115 -332v-37q0 -47 -43 -47h-135q-45 0 -45 47v37q0 158 -65 222.5t-216 64.5q-145 0 -209.5 -57t-64.5 -177q0 -60 27.5 -106.5t73.5 -78.5t106 -59.5t126 -54t132 -56t126 -72t106 -95.5t73.5 -133.5t27.5 -179.5q0 -101 -24 -174t-81.5 -130.5 t-162 -86.5t-256.5 -29q-151 0 -252 28t-160 88.5t-83.5 146t-24.5 210.5z" />
<glyph unicode="T" horiz-adv-x="1046" d="M18 1526v45q0 47 43 47h924q43 0 43 -47v-45q0 -47 -43 -47h-350v-1432q0 -47 -43 -47h-137q-43 0 -43 47v1432h-351q-43 0 -43 47z" />
<glyph unicode="U" horiz-adv-x="1290" d="M141 541v1030q0 47 43 47h138q43 0 43 -47v-1051q0 -218 59 -299.5t219 -81.5q163 0 224 82t61 299v1051q0 47 43 47h135q43 0 43 -47v-1030q0 -156 -30.5 -262.5t-95.5 -170t-157 -91t-223 -27.5q-132 0 -223.5 27.5t-155.5 91t-93.5 170t-29.5 262.5z" />
<glyph unicode="V" horiz-adv-x="1239" d="M18 1593q0 25 33 25h127q18 0 26 -1.5t17.5 -12t16.5 -31.5l393 -1286l393 1284q7 23 15.5 33t16.5 12t27 2h105q33 0 33 -25q0 -6 -4 -22l-476 -1524q-10 -33 -20.5 -40t-36.5 -7h-129q-18 0 -25.5 1.5t-16 11.5t-15.5 32l-475 1528z" />
<glyph unicode="W" horiz-adv-x="1792" d="M39 1571q-2 8 -2 15q0 32 35 32h125q26 0 36 -7t17 -40l274 -1176l283 1178q5 22 12.5 32t15 11.5t25.5 1.5h72q19 0 26.5 -1.5t14.5 -11.5t12 -32l283 -1178l272 1176q5 23 12.5 33t15.5 12t27 2h125q35 0 35 -32q0 -7 -2 -15l-358 -1524q-5 -23 -13 -33.5t-15.5 -12 t-25.5 -1.5h-116q-18 0 -25.5 1.5t-15.5 11.5t-13 32l-274 1124l-274 -1124q-5 -22 -13 -32t-15.5 -11.5t-25.5 -1.5h-118q-27 0 -37 7t-17 40z" />
<glyph unicode="X" horiz-adv-x="1216" d="M25 23q0 10 6 22l440 733l-440 795q-6 12 -6 22t9 16.5t23 6.5h140q22 0 34 -10t25 -35l356 -651l363 651q13 25 24.5 35t32.5 10h123q15 0 25 -6.5t10 -16.5q0 -6 -8 -22l-434 -789l440 -739q6 -12 6 -22q0 -23 -33 -23h-139q-22 0 -33 9.5t-26 35.5l-363 604l-360 -604 q-14 -25 -26.5 -35t-33.5 -10h-123q-14 0 -23 6.5t-9 16.5z" />
<glyph unicode="Y" horiz-adv-x="1183" d="M16 1595q0 23 33 23h135q24 0 34 -6.5t24 -38.5l356 -764l358 764q16 32 25.5 38.5t32.5 6.5h123q34 0 34 -23q0 -2 -8 -22l-458 -979v-547q0 -47 -46 -47h-135q-43 0 -43 47v547l-458 979q-7 14 -7 22z" />
<glyph unicode="Z" horiz-adv-x="1116" d="M66 47v62q0 14 8 30l733 1340h-578v-62q0 -43 -45 -43h-73q-45 0 -45 43v154q0 47 43 47h895q45 0 45 -47v-68q0 -9 -5 -24l-737 -1340h578v62q0 43 45 43h71q48 0 48 -43v-154q0 -47 -45 -47h-895q-43 0 -43 47z" />
<glyph unicode="[" horiz-adv-x="800" d="M133 -342v2300q0 47 45 47h563q43 0 43 -47v-35q0 -47 -43 -47h-444v-2136h444q43 0 43 -47v-35q0 -47 -43 -47h-563q-45 0 -45 47z" />
<glyph unicode="\" horiz-adv-x="1067" d="M47 1583q-23 45 21 45h59q19 0 27.5 -1.5t19.5 -11.5t23 -32l825 -1548q11 -23 5.5 -34t-28.5 -11h-59q-19 0 -27 1.5t-18.5 11.5t-22.5 32z" />
<glyph unicode="]" horiz-adv-x="800" d="M16 -307q0 47 43 47h447v2136h-447q-43 0 -43 47v35q0 47 43 47h564q45 0 45 -47v-2300q0 -47 -45 -47h-564q-43 0 -43 47v35z" />
<glyph unicode="^" horiz-adv-x="997" d="M66 492q0 9 6 24l334 758q13 30 25 37.5t38 7.5h59q27 0 39 -7.5t25 -37.5l334 -758q6 -15 6 -24q0 -21 -31 -21h-76q-27 0 -39.5 7.5t-25.5 37.5l-260 592l-262 -592q-13 -30 -25.5 -37.5t-40.5 -7.5h-76q-30 0 -30 21z" />
<glyph unicode="_" horiz-adv-x="1026" d="M0 -119q0 47 43 47h938q45 0 45 -47v-45q0 -47 -45 -47h-938q-43 0 -43 47v45z" />
<glyph unicode="`" horiz-adv-x="665" d="M82 1618q0 12 10 29l60 88q24 34 45 34t36 -12l322 -246q29 -22 29 -43q0 -12 -11 -26l-16 -23q-12 -14 -35 -14q-19 0 -43 12q-55 23 -148.5 64t-158 70.5t-68.5 31.5q-22 14 -22 35z" />
<glyph unicode="a" horiz-adv-x="1167" d="M80 336v29q0 96 40 163t103.5 101t140.5 56t154.5 37t141 33.5t103.5 56t40 95.5v62q0 105 -54.5 151.5t-185.5 46.5q-139 0 -193.5 -57t-54.5 -197v-49q0 -49 -45 -49h-116q-43 0 -43 49v49q0 205 122.5 299.5t337.5 94.5q239 0 345 -105t106 -358v-715h47q45 0 45 -47 v-35q0 -47 -45 -47h-211q-45 0 -45 47v66l-10 6q-119 -129 -340 -129q-181 0 -282 89.5t-101 256.5zM295 352q0 -117 59 -170t172 -53q142 0 209.5 73t67.5 189v285l-10 6q-47 -27 -120.5 -49t-134.5 -37t-119 -37.5t-91 -63t-33 -100.5v-43z" />
<glyph unicode="b" horiz-adv-x="1185" d="M49 1679v35q0 47 45 47h213q45 0 45 -47v-520l10 -6q101 119 293 119q103 0 180 -26.5t134.5 -85.5t86.5 -160.5t29 -246.5v-280q0 -145 -29 -246.5t-86.5 -160.5t-134 -85t-180.5 -26q-195 0 -293 119l-10 -7v-55q0 -47 -45 -47h-121q-43 0 -43 47v1585h-49 q-45 0 -45 47zM362 424q0 -155 60.5 -225t191.5 -70q133 0 192.5 74t59.5 237v416q0 163 -59.5 237t-192.5 74q-131 0 -191.5 -70.5t-60.5 -224.5v-448z" />
<glyph unicode="c" horiz-adv-x="1126" d="M98 537v223q0 156 29.5 263t91 169t146 88.5t204.5 26.5q105 0 189 -21.5t148 -67.5t99 -123.5t35 -183.5v-47q0 -49 -43 -49h-118q-45 0 -45 49v49q0 139 -60.5 196.5t-202.5 57.5q-135 0 -194.5 -74t-59.5 -239v-412q0 -165 59.5 -239t194.5 -74q142 0 202.5 57.5 t60.5 196.5v49q0 49 45 49h118q43 0 43 -49v-47q0 -106 -35 -183.5t-99.5 -123t-148 -67t-188.5 -21.5q-120 0 -204.5 26.5t-146 88.5t-91 169t-29.5 263z" />
<glyph unicode="d" horiz-adv-x="1204" d="M102 508v280q0 145 29 246.5t86 160.5t133.5 85.5t179.5 26.5q192 0 295 -121l11 6v440h-48q-45 0 -45 47v35q0 47 45 47h213q43 0 43 -47v-1585h48q45 0 45 -47v-35q0 -47 -45 -47h-211q-45 0 -45 47v57l-11 7q-100 -121 -295 -121q-103 0 -179.5 26t-133.5 85 t-86 160.5t-29 246.5zM319 440q0 -163 60 -237t194 -74q133 0 192.5 74t59.5 237v416q0 163 -59.5 237t-192.5 74q-134 0 -194 -74t-60 -237v-416z" />
<glyph unicode="e" horiz-adv-x="1132" d="M98 537v223q0 156 29.5 263t91 169t146 88.5t204.5 26.5q117 0 200.5 -25.5t146 -85t93.5 -162t31 -250.5v-73q0 -48 -45 -54l-678 -92v-123q0 -165 59.5 -239t194.5 -74q142 0 202.5 57.5t60.5 196.5v49q0 49 45 49h118q43 0 43 -49v-47q0 -106 -35 -183.5t-99.5 -123 t-148 -67t-188.5 -21.5q-120 0 -204.5 26.5t-146 88.5t-91 169t-29.5 263zM317 690l517 66v102q0 162 -62 235.5t-201 73.5q-134 0 -194 -74t-60 -237v-166z" />
<glyph unicode="f" horiz-adv-x="667" d="M35 1214v35q0 47 45 47h98v68q0 216 77.5 306.5t244.5 90.5h129q45 0 45 -47v-35q0 -47 -45 -47h-146q-49 0 -67.5 -24.5t-18.5 -87.5v-224h201q45 0 45 -47v-35q0 -47 -45 -47h-201v-1120q0 -47 -45 -47h-129q-45 0 -45 47v1120h-98q-45 0 -45 47z" />
<glyph unicode="g" horiz-adv-x="1185" d="M102 508v280q0 145 29 246.5t86 160.5t133.5 85.5t179.5 26.5q192 0 295 -121l11 6v57q0 47 45 47h118q45 0 45 -47v-1317q0 -216 -84 -306.5t-264 -90.5h-420q-45 0 -45 47v35q0 47 45 47h383q96 0 131 51t35 191v205q-100 -121 -295 -121q-103 0 -179.5 26t-133.5 85 t-86 160.5t-29 246.5zM319 440q0 -163 60 -237t194 -74q133 0 192.5 74t59.5 237v416q0 163 -59.5 237t-192.5 74q-134 0 -194 -74t-60 -237v-416z" />
<glyph unicode="h" horiz-adv-x="1218" d="M49 1679v35q0 47 45 47h213q45 0 45 -47v-520l10 -6q101 119 293 119q103 0 180 -26.5t134.5 -85.5t86.5 -160.5t29 -246.5v-741q0 -47 -45 -47h-129q-45 0 -45 47v809q0 163 -59.5 237t-192.5 74t-192.5 -74t-59.5 -237v-809q0 -47 -45 -47h-129q-45 0 -45 47v1585h-49 q-45 0 -45 47z" />
<glyph unicode="i" horiz-adv-x="518" d="M66 1214v35q0 47 45 47h221q45 0 45 -47v-1202q0 -47 -45 -47h-127q-45 0 -45 47v1120h-49q-45 0 -45 47zM160 1540v139q0 47 43 47h131q43 0 43 -47v-139q0 -45 -43 -45h-131q-43 0 -43 45z" />
<glyph unicode="j" horiz-adv-x="520" d="M-137 -383q0 47 45 47h86q96 0 131 51t35 191v1261h-47q-45 0 -45 47v35q0 47 45 47h221q45 0 45 -47v-1317q0 -216 -84 -306.5t-264 -90.5h-123q-45 0 -45 47v35zM160 1540v139q0 47 45 47h131q43 0 43 -47v-139q0 -45 -43 -45h-131q-45 0 -45 45z" />
<glyph unicode="k" horiz-adv-x="1097" d="M143 47v1667q0 47 45 47h129q45 0 45 -47v-1001h48l411 536q24 31 39 39t39 8h148q24 0 24 -14q0 -13 -14 -33l-465 -602l465 -600q16 -22 16 -33q0 -14 -24 -14h-140q-26 0 -40 7t-40 40l-419 537h-48v-537q0 -47 -45 -47h-129q-45 0 -45 47z" />
<glyph unicode="l" horiz-adv-x="507" d="M145 47v1667q0 47 45 47h127q45 0 45 -47v-1667q0 -47 -45 -47h-127q-45 0 -45 47z" />
<glyph unicode="m" horiz-adv-x="1888" d="M68 1214v35q0 47 45 47h211q45 0 45 -47v-57l8 -6q94 121 278 121q128 0 216 -45.5t137 -147.5h8q94 193 327 193q99 0 172 -26t128.5 -85t83.5 -161t28 -247v-741q0 -47 -45 -47h-127q-45 0 -45 47v809q0 160 -58.5 235.5t-176.5 75.5q-236 0 -236 -311v-809 q0 -47 -45 -47h-127q-45 0 -45 47v809q0 159 -58.5 235t-175.5 76q-237 0 -237 -297v-823q0 -47 -45 -47h-129q-45 0 -45 47v1120h-47q-45 0 -45 47z" />
<glyph unicode="n" horiz-adv-x="1234" d="M68 1214v35q0 47 45 47h211q45 0 45 -47v-57l10 -6q103 121 295 121q103 0 179 -26t133.5 -85t86.5 -161t29 -247v-741q0 -47 -45 -47h-127q-45 0 -45 47v809q0 163 -60 237t-194 74q-133 0 -192.5 -74t-59.5 -237v-809q0 -47 -45 -47h-129q-45 0 -45 47v1120h-47 q-45 0 -45 47z" />
<glyph unicode="o" horiz-adv-x="1140" d="M98 537v223q0 156 29.5 263t91 169t146 88.5t204.5 26.5q121 0 205.5 -26.5t146 -88.5t90.5 -168.5t29 -263.5v-223q0 -157 -29 -263.5t-90.5 -168.5t-146 -88.5t-205.5 -26.5q-120 0 -204.5 26.5t-146 88.5t-91 169t-29.5 263zM317 440q0 -163 59.5 -237t192.5 -74 q134 0 194 74t60 237v416q0 163 -60 237t-194 74q-133 0 -192.5 -74t-59.5 -237v-416z" />
<glyph unicode="p" horiz-adv-x="1204" d="M68 1214v35q0 47 45 47h211q45 0 45 -47v-57l10 -6q103 121 295 121q103 0 179.5 -26.5t133.5 -85.5t86 -160.5t29 -246.5v-280q0 -145 -29 -246.5t-86 -160.5t-133.5 -85t-179.5 -26q-195 0 -295 121l-10 -7v-522q0 -47 -45 -47h-119q-45 0 -45 47v1585h-47 q-45 0 -45 47zM379 440q0 -163 59.5 -237t192.5 -74q134 0 194 74t60 237v416q0 163 -60 237t-194 74q-131 0 -191.5 -70.5t-60.5 -224.5v-432z" />
<glyph unicode="q" horiz-adv-x="1185" d="M102 508v280q0 145 29 246.5t86 160.5t133.5 85.5t179.5 26.5q192 0 295 -121l11 6v57q0 47 45 47h118q45 0 45 -47v-1667q0 -47 -45 -47h-118q-45 0 -45 47v522l-11 7q-100 -121 -295 -121q-103 0 -179.5 26t-133.5 85t-86 160.5t-29 246.5zM319 440q0 -163 60 -237 t194 -74q131 0 191.5 70t60.5 225v448q0 154 -60.5 224.5t-191.5 70.5q-134 0 -194 -74t-60 -237v-416z" />
<glyph unicode="r" horiz-adv-x="724" d="M68 1214v35q0 47 45 47h211q22 0 33.5 -10t11.5 -37v-24l10 -6q88 88 233 88h47q46 0 46 -47v-107q0 -45 -46 -45h-167q-64 0 -88.5 -25t-24.5 -88v-948q0 -47 -45 -47h-129q-45 0 -45 47v1120h-47q-45 0 -45 47z" />
<glyph unicode="s" horiz-adv-x="1056" d="M82 328v45q0 49 43 49h129q45 0 45 -47v-45q0 -111 54 -155t173 -44q121 0 175.5 40.5t54.5 129.5v27q0 59 -22.5 105t-60 75t-87 52t-103.5 42.5t-108 40t-103.5 49.5t-87 67t-60 97t-22.5 135t21.5 132t69.5 98.5t131.5 64t201.5 21.5q226 0 326 -79.5t100 -246.5v-49 q0 -49 -43 -49h-118q-46 0 -46 49v43q0 106 -52 149t-163 43q-116 0 -164.5 -40t-48.5 -130q0 -48 22.5 -85t60.5 -62.5t87 -47.5t103.5 -43t109 -45t103.5 -57.5t87 -76.5t60.5 -107t22.5 -143q0 -81 -21.5 -141t-71 -106t-138 -69.5t-216.5 -23.5q-247 0 -345.5 78.5 t-98.5 259.5z" />
<glyph unicode="t" horiz-adv-x="657" d="M33 1214v35q0 47 45 47h98v258q0 48 45 48h131q43 0 43 -48v-258h199q45 0 45 -47v-35q0 -47 -45 -47h-199v-925q0 -64 18.5 -88.5t67.5 -24.5h113q45 0 45 -47v-35q0 -47 -45 -47h-84q-183 0 -258.5 76t-75.5 270v821h-98q-45 0 -45 47z" />
<glyph unicode="u" horiz-adv-x="1253" d="M55 1214v35q0 47 45 47h224q45 0 45 -47v-809q0 -163 59.5 -237t192.5 -74t192 74t59 237v809q0 47 46 47h129q45 0 45 -47v-1120h49q45 0 45 -47v-35q0 -47 -45 -47h-213q-45 0 -45 47v57l-11 5q-101 -119 -294 -119q-102 0 -178 26t-133.5 84.5t-87 160.5t-29.5 247 v659h-50q-45 0 -45 47z" />
<glyph unicode="v" horiz-adv-x="1071" d="M33 1270q0 26 33 26h118q17 0 25 -1.5t17 -12t16 -31.5l303 -991l305 991q7 22 15.5 32t16 11.5t25.5 1.5h101q32 0 32 -26q0 -3 -4 -19l-379 -1206q-7 -22 -15.5 -32t-16.5 -11.5t-27 -1.5h-129q-17 0 -24.5 1.5t-15.5 11.5t-15 32l-379 1206q-2 6 -2 19z" />
<glyph unicode="w" horiz-adv-x="1572" d="M49 1251q-2 8 -2 14q0 31 35 31h119q18 0 26 -1.5t16 -11.5t13 -32l207 -923l246 923q11 45 55 45h43q23 0 35.5 -9t19.5 -36l244 -934l211 934q5 21 13 31.5t15.5 12t24.5 1.5h121q22 0 29 -11t2 -34l-279 -1206q-5 -22 -12 -32t-14.5 -11.5t-26.5 -1.5h-119 q-19 0 -27 1.5t-16 11.5t-14 32l-228 862l-229 -862q-6 -22 -14 -32t-16 -11.5t-27 -1.5h-119q-17 0 -24.5 1.5t-14.5 11.5t-12 32z" />
<glyph unicode="x" horiz-adv-x="1110" d="M35 25q0 8 6 20l354 602l-354 604q-6 9 -6 21q0 24 35 24h129q36 0 59 -45l301 -518l303 518q25 45 60 45h118q15 0 25 -7t10 -17q0 -9 -6 -21l-356 -604l356 -602q6 -9 6 -20t-10 -18t-25 -7h-131q-34 0 -57 45l-303 516l-303 -516q-25 -45 -58 -45h-118q-15 0 -25 7 t-10 18z" />
<glyph unicode="y" horiz-adv-x="1110" d="M35 1251q-6 23 0.5 34t30.5 11h118q17 0 25 -1.5t17 -12t16 -31.5l323 -1061l324 1061q5 17 9.5 26t11.5 13.5t13 5t19 0.5h98q36 0 36 -28q0 -8 -3 -17l-411 -1323q-58 -187 -88 -244q-45 -87 -122 -118q-76 -31 -229 -31h-10q-38 0 -38 33q0 6 1 14l8 35q12 47 56 47 h51q26 0 45 3.5t33 7.5t26 17t19 21.5t16 33t13.5 39t15.5 52t18 60.5l31 102h-39q-44 0 -55 45z" />
<glyph unicode="z" horiz-adv-x="1034" d="M72 47v43q0 20 10 37l647 1040h-512v-57q0 -47 -45 -47h-55q-45 0 -45 47v139q0 47 43 47h803q45 0 45 -47v-43q0 -17 -9 -35l-649 -1042h512v57q0 47 45 47h56q45 0 45 -47v-139q0 -47 -45 -47h-803q-43 0 -43 47z" />
<glyph unicode="{" horiz-adv-x="593" d="M61 782v64q0 37 33 37q23 0 39.5 10t25 24.5t13 40.5t5.5 48t1 57v530q0 178 72.5 245t245.5 67h20q47 0 47 -43v-25q0 -45 -47 -45h-80q-54 0 -74 -29.5t-20 -103.5v-567q0 -138 -20.5 -205.5t-77.5 -67.5v-10q30 0 50 -18.5t30 -56.5t14 -84t4 -113v-566 q0 -80 20 -111.5t74 -31.5h80q47 0 47 -45v-25q0 -43 -47 -43h-20q-87 0 -144.5 14t-97.5 49.5t-58 96t-18 152.5v538q0 35 -1 57t-5.5 48t-13 40.5t-25 24.5t-39.5 10q-33 0 -33 37z" />
<glyph unicode="|" horiz-adv-x="423" d="M131 -76v1770q0 47 45 47h74q45 0 45 -47v-1770q0 -47 -45 -47h-74q-45 0 -45 47z" />
<glyph unicode="}" horiz-adv-x="593" d="M31 -217q0 45 47 45h80q54 0 74 31.5t20 111.5v566q0 67 4 113t14 84t30 56.5t50 18.5v10q-57 0 -77.5 67.5t-20.5 205.5v567q0 74 -20 103.5t-74 29.5h-80q-47 0 -47 45v25q0 43 47 43h20q173 0 245.5 -67t72.5 -245v-530q0 -35 1 -57t5.5 -48t13 -40.5t25 -24.5 t39.5 -10q18 0 25 -8.5t7 -28.5v-64q0 -20 -7 -28.5t-25 -8.5q-23 0 -39.5 -10t-25 -24.5t-13 -40.5t-5.5 -48t-1 -57v-538q0 -92 -18 -152.5t-58 -96t-97.5 -49.5t-144.5 -14h-20q-47 0 -47 43v25z" />
<glyph unicode="~" horiz-adv-x="1224" d="M121 664q-15 12 0 30q61 88 136 122t177 34q71 0 218 -47t225 -47q89 0 161 63q16 14 35 6q21 -12 33 -24t0 -29q-61 -87 -135.5 -121.5t-175.5 -34.5q-89 0 -174 24t-153.5 47.5t-115.5 23.5q-86 0 -164 -64q-15 -13 -34 -4q-21 9 -33 21z" />
<glyph unicode="&#xa1;" horiz-adv-x="458" d="M121 45l41 1163q2 24 11.5 34.5t33.5 10.5h45q42 0 45 -45q43 -1130 43 -1163q0 -45 -47 -45h-129q-43 0 -43 45zM129 1573v106q0 47 43 47h113q45 0 45 -47v-106q0 -47 -45 -47h-113q-43 0 -43 47z" />
<glyph unicode="&#xa2;" horiz-adv-x="1128" d="M100 696v224q0 267 88 391.5t273 148.5v113q0 45 43 45h110q48 0 48 -45v-111q380 -39 380 -391v-47q0 -49 -43 -49h-118q-45 0 -45 49v49q0 139 -60.5 196.5t-202.5 57.5q-135 0 -194.5 -74t-59.5 -239v-412q0 -165 59.5 -239t194.5 -74q142 0 202.5 57.5t60.5 196.5v49 q0 49 45 49h118q43 0 43 -49v-47q0 -352 -380 -391v-109q0 -45 -48 -45h-110q-43 0 -43 45v111q-185 24 -273 147.5t-88 392.5z" />
<glyph unicode="&#xa3;" horiz-adv-x="1341" d="M53 774v49q0 47 53 47h127q-71 171 -71 371q0 59 12.5 110.5t47 104t88.5 89.5t143.5 60t205.5 23q246 0 386.5 -113t140.5 -325q0 -24 -9 -35.5t-32 -11.5h-137q-24 0 -33.5 11.5t-9.5 35.5v24q0 152 -73 213.5t-228 61.5q-146 0 -212.5 -53t-66.5 -164q0 -57 9 -109.5 t31 -111t34.5 -87t44.5 -94.5h424q55 0 55 -47v-49q0 -47 -55 -47h-359q41 -100 41 -192q0 -108 -31 -188t-98 -150q11 -4 55 -21t66.5 -24t67.5 -15t92 -8q74 0 123.5 8t92.5 31t63 68.5t20 115.5v76q0 24 9.5 35.5t33.5 11.5h137q23 0 32 -11.5t9 -35.5q0 -208 -128 -323 t-331 -115q-127 0 -223 21.5t-147 21.5q-79 0 -162 -31q-6 -2 -19 -2q-20 0 -30 18l-66 134q-10 23 23 34q174 69 174 301v25q0 50 -17 98t-53 117h-197q-53 0 -53 47z" />
<glyph unicode="&#xa4;" horiz-adv-x="1251" d="M104 362q0 16 17 33l90 90q-59 82 -59 242v68q0 156 57 239l-88 90q-17 17 -17 31q0 16 15 31l53 53q14 14 33 14q16 0 33 -14l100 -100q103 43 289 43q179 0 286 -45l103 102q16 16 33 16q13 0 32 -16l52 -51q16 -19 16 -33q0 -15 -16 -31l-91 -90q58 -92 58 -239v-68 q0 -154 -60 -242l90 -90q19 -16 19 -33q0 -14 -16 -30l-54 -51q-14 -17 -30 -17q-18 0 -33 15l-107 104q-103 -43 -282 -43q-184 0 -287 43l-104 -104q-15 -15 -31 -15q-19 0 -33 17l-53 51q-15 15 -15 30zM356 690q0 -138 60.5 -191t210.5 -53q147 0 207.5 53t60.5 189v148 q0 135 -60.5 188t-207.5 53q-149 0 -210 -53t-61 -188v-146z" />
<glyph unicode="&#xa5;" horiz-adv-x="1239" d="M43 1595q0 23 33 23h135q24 0 33.5 -6.5t23.5 -38.5l357 -764l358 764q17 32 25.5 38.5t31.5 6.5h123q15 0 25 -6.5t10 -16.5q0 -11 -8 -22l-406 -862h168q49 0 49 -47v-46q0 -47 -49 -47h-221v-217h221q49 0 49 -47v-45q0 -47 -49 -47h-221v-168q0 -47 -45 -47h-135 q-43 0 -43 47v168h-209q-45 0 -45 47v45q0 47 45 47h209v217h-209q-45 0 -45 47v46q0 47 45 47h154l-404 862q-6 12 -6 22z" />
<glyph unicode="&#xa6;" horiz-adv-x="393" d="M135 -121v723q0 45 45 45h33q47 0 47 -45v-723q0 -43 -47 -43h-33q-45 0 -45 43zM135 850v723q0 45 45 45h33q47 0 47 -45v-723q0 -43 -47 -43h-33q-45 0 -45 43z" />
<glyph unicode="&#xa7;" horiz-adv-x="1132" d="M100 664q0 108 31.5 182.5t104.5 122.5q-134 99 -134 278q0 90 22 156.5t73 118t142 78t222 26.5q230 0 344.5 -93.5t114.5 -262.5v-43q0 -27 -8.5 -38t-30.5 -11h-119q-43 0 -43 49v37q0 109 -64 160t-194 51q-135 0 -194.5 -48t-59.5 -149q0 -57 25 -102t67 -74.5 t96 -54.5t114.5 -48t120.5 -48.5t114 -61.5t96 -82.5t67 -116.5t25 -158q0 -218 -135 -305q133 -101 133 -278q0 -191 -106 -285t-353 -94q-232 0 -345 97.5t-113 281.5v20q0 27 8.5 38t30.5 11h118q43 0 43 -49v-14q0 -125 61 -179.5t197 -54.5q135 0 194.5 48t59.5 149 q0 57 -25 102t-67 74.5t-96 54.5t-114 48t-120.5 48.5t-114.5 61.5t-96 82.5t-67 116.5t-25 158zM289 674q0 -126 71 -176q132 -96 293 -154q59 -20 78 -20q54 0 82.5 48.5t28.5 112.5v29q0 139 -103 197q-189 102 -282 139q-33 16 -64 16q-54 0 -79 -47.5t-25 -113.5v-31z " />
<glyph unicode="&#xa8;" horiz-adv-x="749" d="M82 1450v109q0 47 45 47h111q45 0 45 -47v-109q0 -45 -45 -45h-111q-45 0 -45 45zM467 1450v109q0 47 45 47h111q45 0 45 -47v-109q0 -45 -45 -45h-111q-45 0 -45 45z" />
<glyph unicode="&#xa9;" horiz-adv-x="1812" d="M86 809q0 195 64.5 352.5t176.5 258.5t259.5 154.5t318.5 53.5t318.5 -53.5t259.5 -154.5t176.5 -258.5t64.5 -352.5t-64.5 -352.5t-176.5 -258.5t-259.5 -154.5t-318.5 -53.5t-318.5 53.5t-259.5 154.5t-176.5 258.5t-64.5 352.5zM229 809q0 -136 34.5 -249t96.5 -193 t147 -135.5t185 -82t213 -26.5q142 0 263.5 43t214 125.5t145.5 215.5t53 302t-53 302t-145.5 215.5t-214 125.5t-263.5 43q-113 0 -213 -26.5t-185 -82t-147 -135.5t-96.5 -193t-34.5 -249zM547 719v170q0 119 22 200.5t69 128.5t111 67t156 20q166 0 262.5 -72t96.5 -229 v-35q0 -39 -33 -39h-90q-35 0 -35 39v37q0 105 -46 148.5t-155 43.5q-102 0 -147 -56t-45 -181v-314q0 -126 45 -182.5t147 -56.5q109 0 155 43.5t46 150.5v37q0 37 35 37h90q33 0 33 -37v-37q0 -156 -96.5 -228.5t-262.5 -72.5q-92 0 -156 20t-111 68t-69 129t-22 201z" />
<glyph unicode="&#xaa;" horiz-adv-x="827" d="M90 1016v18q0 54 19.5 93.5t51.5 61t73 37.5t83.5 23t83.5 17.5t73 21.5t51.5 33.5t19.5 54.5v39q0 66 -34.5 95.5t-117.5 29.5q-87 0 -121 -35.5t-34 -124.5v-30q0 -31 -29 -31h-74q-26 0 -26 31v30q0 129 77.5 188.5t212.5 59.5q150 0 216.5 -66t66.5 -225v-450h31 q28 0 28 -31v-22q0 -29 -28 -29h-133q-29 0 -29 29v43l-6 4q-76 -82 -215 -82q-114 0 -177 56t-63 161zM225 1026q0 -139 146 -139q90 0 132 45.5t42 118.5v180l-6 4q-30 -18 -76 -31.5t-85 -23t-75 -23.5t-57 -39t-21 -63v-29z" />
<glyph unicode="&#xab;" horiz-adv-x="915" d="M72 528v56q0 23 1 33t8 25.5t23 29.5l250 231q20 17 27 17q12 0 12 -54v-14q0 -31 -5.5 -45t-31.5 -49l-145 -191v-20l145 -189q27 -36 32 -50t5 -50v-16q0 -54 -12 -54q-7 0 -27 17l-250 231q-16 13 -23 28.5t-8 26.5t-1 37zM475 528v56q0 22 1 33t8.5 26t23.5 29 l250 231q20 17 26 17q13 0 13 -54v-14q0 -31 -5.5 -45t-31.5 -49l-146 -191v-20l146 -189q27 -36 32 -50t5 -50v-16q0 -54 -13 -54q-6 0 -26 17l-250 231q-16 13 -23.5 28.5t-8.5 27t-1 36.5z" />
<glyph unicode="&#xac;" horiz-adv-x="1292" d="M98 805v47q0 47 43 47h979q45 0 45 -47v-506q0 -45 -45 -45h-49q-45 0 -45 45v414h-885q-43 0 -43 45z" />
<glyph unicode="&#xad;" horiz-adv-x="917" d="M106 627v45q0 47 44 47h618q45 0 45 -47v-45q0 -47 -45 -47h-618q-44 0 -44 47z" />
<glyph unicode="&#xae;" horiz-adv-x="1812" d="M86 809q0 195 64.5 352.5t176.5 258.5t259.5 154.5t318.5 53.5t318.5 -53.5t259.5 -154.5t176.5 -258.5t64.5 -352.5t-64.5 -352.5t-176.5 -258.5t-259.5 -154.5t-318.5 -53.5t-318.5 53.5t-259.5 154.5t-176.5 258.5t-64.5 352.5zM229 809q0 -136 34.5 -249t96.5 -193 t147 -135.5t185 -82t213 -26.5q142 0 263.5 43t214 125.5t145.5 215.5t53 302t-53 302t-145.5 215.5t-214 125.5t-263.5 43q-113 0 -213 -26.5t-185 -82t-147 -135.5t-96.5 -193t-34.5 -249zM547 1247v29q0 29 26 29h342q174 0 247 -63.5t73 -219.5v-18q0 -101 -28.5 -162 t-90.5 -90q44 -39 66 -117l80 -303q3 -12 -2.5 -20.5t-18.5 -8.5h-80q-11 0 -16 1t-10 7.5t-9 20.5l-90 321q-18 64 -80 64h-206v-385q0 -29 -27 -29h-86q-27 0 -27 29v887h-37q-26 0 -26 28zM750 801h163q102 0 143.5 37t41.5 135v80q0 92 -42 129t-143 37h-163v-418z" />
<glyph unicode="&#xaf;" horiz-adv-x="925" d="M82 1452v45q0 47 43 47h674q45 0 45 -47v-45q0 -47 -45 -47h-674q-43 0 -43 47z" />
<glyph unicode="&#xb0;" horiz-adv-x="704" d="M84 1321v16q0 161 64 226t206 65q140 0 203.5 -65t63.5 -226v-16q0 -161 -63.5 -226t-203.5 -65q-142 0 -206 65t-64 226zM215 1303q0 -105 31 -146t108 -41q74 0 104.5 41t30.5 146v53q0 105 -30.5 145.5t-104.5 40.5q-77 0 -108 -40.5t-31 -145.5v-53z" />
<glyph unicode="&#xb1;" horiz-adv-x="1392" d="M100 47v45q0 47 43 47h1104q45 0 45 -47v-45q0 -47 -45 -47h-1104q-43 0 -43 47zM100 999v45q0 48 43 48h484v481q0 45 47 45h45q47 0 47 -45v-481h481q45 0 45 -48v-45q0 -47 -45 -47h-481v-483q0 -43 -47 -43h-45q-47 0 -47 43v483h-484q-43 0 -43 47z" />
<glyph unicode="&#xb2;" horiz-adv-x="624" d="M98 936v49q0 57 17.5 104t45.5 79t62 59.5t68 50.5t62 46t45.5 52t17.5 62v16q0 105 -99 105q-55 0 -77.5 -28.5t-22.5 -100.5v-33q0 -21 -18 -21h-64q-20 0 -20 21q0 118 47.5 174.5t154.5 56.5q113 0 159 -53t46 -145q0 -62 -33 -108.5t-80 -76.5t-93.5 -60.5 t-79.5 -78.5t-33 -113v-8h286q21 0 21 -20v-27q0 -20 -21 -20h-372q-19 0 -19 18z" />
<glyph unicode="&#xb3;" horiz-adv-x="604" d="M92 1118v23q0 20 19 20h65q19 0 19 -20v-43q0 -62 25 -86.5t83 -24.5q53 0 75.5 24.5t22.5 86.5v35q0 66 -23.5 91t-78.5 25h-33q-18 0 -18 21v26q0 21 18 21h47q44 0 65.5 24t22.5 84v23q0 61 -22.5 86t-75.5 25q-54 0 -77 -25t-23 -86v-29q0 -22 -19 -22h-65 q-19 0 -19 22v11q0 92 45 145t158 53q104 0 152.5 -46t48.5 -124v-28q0 -107 -72 -148q72 -48 72 -166v-24q0 -174 -201 -174q-116 0 -163.5 52t-47.5 148z" />
<glyph unicode="&#xb4;" horiz-adv-x="665" d="M82 1468q0 21 29 43l321 246q15 12 37 12q21 0 45 -34l59 -88q11 -18 11 -29q0 -21 -23 -35q-4 -2 -68.5 -31.5t-158 -70.5t-148.5 -64q-24 -12 -43 -12q-22 0 -34 14l-19 23q-8 13 -8 26z" />
<glyph unicode="&#xb5;" horiz-adv-x="1280" d="M74 1214v35q0 47 45 47h221q45 0 45 -47v-809q0 -163 60 -237t194 -74q133 0 192.5 74t59.5 237v809q0 47 45 47h129q45 0 45 -47v-1120h49q45 0 45 -47v-35q0 -47 -45 -47h-205q-45 0 -45 47v70l-8 4q-91 -127 -301 -127q-139 0 -225 55v-467q0 -47 -45 -47h-119 q-43 0 -43 47v1585h-49q-45 0 -45 47z" />
<glyph unicode="&#xb6;" horiz-adv-x="1431" d="M49 1094v18q0 141 31 238t97.5 156.5t162 85.5t231.5 26h723q43 0 43 -47v-101q0 -47 -43 -47h-389v-1841q0 -47 -45 -47h-112q-43 0 -43 47v998h-134q-137 0 -231.5 25.5t-161.5 85t-98 158.5t-31 245zM1079 -418v1671q0 47 43 47h113q45 0 45 -47v-1671q0 -47 -45 -47 h-113q-43 0 -43 47z" />
<glyph unicode="&#xb7;" horiz-adv-x="507" d="M94 672q0 68 45.5 113.5t112.5 45.5q69 0 115.5 -45t46.5 -114q0 -67 -46.5 -112.5t-115.5 -45.5q-66 0 -112 45.5t-46 112.5z" />
<glyph unicode="&#xb8;" horiz-adv-x="591" d="M66 -229l43 223q6 22 22 22h90q20 0 17 -22l-23 -107q28 20 52.5 27.5t72.5 7.5q89 0 144 -59t55 -164q0 -109 -55.5 -164t-176.5 -55q-107 0 -166 51t-67 127h129q2 -31 29 -53.5t75 -22.5t73.5 30.5t25.5 82.5q0 56 -25.5 91.5t-73.5 35.5q-84 0 -104 -74h-123 q-8 0 -12.5 6.5t-1.5 16.5z" />
<glyph unicode="&#xb9;" horiz-adv-x="458" d="M96 938v25q0 22 21 22h73v469q0 23 -22 23h-49q-19 0 -19 20v25q0 7 11 18l88 72q8 6 16 6h57q21 0 21 -21v-612h72q20 0 20 -22v-25q0 -20 -20 -20h-248q-21 0 -21 20z" />
<glyph unicode="&#xba;" horiz-adv-x="786" d="M94 1141v141q0 99 18.5 166t57.5 106.5t92.5 56.5t130.5 17q154 0 225.5 -76.5t71.5 -269.5v-141q0 -132 -34.5 -209t-97 -107t-165.5 -30q-155 0 -227 76t-72 270zM233 1079q0 -103 37.5 -149.5t122.5 -46.5q86 0 123 46t37 150v264q0 104 -37 150.5t-123 46.5 q-84 0 -122 -47t-38 -150v-264z" />
<glyph unicode="&#xbb;" horiz-adv-x="915" d="M117 242v16q0 36 5 50t32 50l145 189v20l-145 191q-26 35 -31.5 49t-5.5 45v14q0 54 12 54q7 0 27 -17l250 -231q16 -14 23 -29.5t8 -25.5t1 -33v-56q0 -26 -1 -37t-8 -26.5t-23 -28.5l-250 -231q-20 -17 -27 -17q-12 0 -12 54zM520 242v16q0 36 5 50t32 50l145 189v20 l-145 191q-26 35 -31.5 49t-5.5 45v14q0 54 12 54q7 0 27 -17l250 -231q22 -20 27.5 -38t5.5 -50v-56q0 -25 -1 -36.5t-8.5 -27t-23.5 -28.5l-250 -231q-20 -17 -27 -17q-12 0 -12 54z" />
<glyph unicode="&#xbc;" horiz-adv-x="1536" d="M74 676v33q0 26 26 26h101v666q0 33 -31 33h-66q-24 0 -24 28v23q0 14 12 24l123 99q13 10 23 10h75q27 0 27 -29v-854h100q29 0 29 -26v-33q0 -16 -6 -22.5t-23 -6.5h-340q-26 0 -26 29zM252 10q0 5 8 25q821 1542 823 1548q12 22 23.5 32t20.5 11.5t28 1.5h41 q29 0 29 -20q0 -9 -8 -25q-822 -1542 -826 -1548q-12 -22 -22.5 -31.5t-18.5 -11.5t-26 -2h-41q-31 0 -31 20zM842 246v33q0 11 6 20l381 643q15 29 43 29h92q27 0 27 -29v-637h63q29 0 29 -26v-33q0 -16 -6 -22.5t-23 -6.5h-63v-188q0 -29 -27 -29h-86q-27 0 -27 29v188 h-385q-24 0 -24 29zM991 305h260v436z" />
<glyph unicode="&#xbd;" horiz-adv-x="1589" d="M74 676v33q0 26 26 26h101v666q0 33 -31 33h-66q-24 0 -24 28v23q0 14 12 24l123 99q13 10 23 10h75q27 0 27 -29v-854h100q29 0 29 -26v-33q0 -16 -6 -22.5t-23 -6.5h-340q-26 0 -26 29zM248 10q0 12 8 25q821 1542 823 1548q12 22 23 32t19.5 11.5t27.5 1.5h41 q31 0 31 -20q0 -7 -9 -25q-821 -1542 -825 -1548q-12 -22 -23 -32t-19 -11.5t-26 -1.5h-40q-31 0 -31 20zM946 29v63q0 77 24 140t62.5 105t85 76.5t93 63t85 57t62.5 66t24 82.5v16q0 100 -35 140.5t-114 40.5q-70 0 -99.5 -40t-29.5 -141v-45q0 -26 -29 -26h-84 q-26 0 -26 26q0 161 65.5 239.5t212.5 78.5q80 0 136.5 -21t86.5 -60t43 -85.5t13 -106.5q0 -62 -24 -112.5t-62.5 -85t-85 -65.5t-93.5 -63t-85.5 -68t-62.5 -89t-24 -119v-8h392q26 0 26 -29v-32q0 -27 -26 -27h-506q-25 0 -25 29z" />
<glyph unicode="&#xbe;" horiz-adv-x="1671" d="M74 924v30q0 29 24 29h88q25 0 25 -29v-57q0 -87 35 -122.5t116 -35.5q75 0 107.5 35.5t32.5 122.5v47q0 93 -33.5 128.5t-110.5 35.5h-45q-26 0 -26 27v32q0 29 26 29h47q76 0 109 34.5t33 125.5v22q0 87 -32.5 122.5t-107.5 35.5t-108 -36t-33 -122v-39q0 -28 -24 -28 h-86q-25 0 -25 28v15q0 61 12.5 107.5t42.5 85.5t86.5 60t137.5 21q145 0 210.5 -63t65.5 -170v-41q0 -148 -98 -203q100 -66 100 -229v-33q0 -111 -66.5 -176.5t-214.5 -65.5q-156 0 -222 72.5t-66 204.5zM385 10q0 5 8 25q822 1542 826 1548q11 22 22 32t19.5 11.5 t27.5 1.5h41q29 0 29 -20q0 -9 -8 -25q-822 -1542 -824 -1548q-12 -22 -23 -32t-19 -11.5t-27 -1.5h-41q-31 0 -31 20zM977 246v33q0 11 6 20l381 643q14 29 43 29h92q27 0 27 -29v-637h63q29 0 29 -26v-33q0 -16 -6 -22.5t-23 -6.5h-63v-188q0 -29 -27 -29h-86 q-27 0 -27 29v188h-385q-24 0 -24 29zM1126 305h260v436z" />
<glyph unicode="&#xbf;" horiz-adv-x="1114" d="M51 377q0 59 27 111.5t70 92.5t95.5 78.5t105 78t95.5 82.5t70 100t27 122v56q0 47 45 47h127q43 0 43 -47v-56q0 -78 -26.5 -146.5t-69 -119t-94 -95.5t-103 -84t-94 -76.5t-69 -82t-26.5 -92.5q0 -113 63.5 -165t215.5 -52q157 0 220 59.5t63 214.5v25q0 47 43 47h137 q43 0 43 -47q0 -229 -119 -333.5t-397 -104.5q-114 0 -202 23t-141.5 60.5t-88 89t-47.5 103.5t-13 111zM541 1464v107q0 47 45 47h127q43 0 43 -47v-107q0 -47 -43 -47h-127q-45 0 -45 47z" />
<glyph unicode="&#xc0;" horiz-adv-x="1243" d="M25 25q0 6 4 22l446 1432h-61q-43 0 -43 47v45q0 47 43 47h276q46 0 58 -45l475 -1528q4 -16 4 -20q0 -25 -33 -25h-127q-18 0 -26 1.5t-17 11.5t-16 32l-97 313h-596l-94 -311q-7 -23 -15.5 -33t-16.5 -12t-27 -2h-105q-32 0 -32 25zM358 498h510l-254 835zM360 1939 q0 11 11 29l59 88q24 35 45 35q22 0 37 -12l322 -246q28 -21 28 -43q0 -14 -10 -27l-16 -22q-12 -15 -35 -15q-17 0 -43 13q-55 23 -148.5 64t-158 70.5t-68.5 31.5q-23 14 -23 34z" />
<glyph unicode="&#xc1;" horiz-adv-x="1243" d="M25 25q0 6 4 22l446 1432h-61q-43 0 -43 47v45q0 47 43 47h276q46 0 58 -45l475 -1528q4 -16 4 -20q0 -25 -33 -25h-127q-18 0 -26 1.5t-17 11.5t-16 32l-97 313h-596l-94 -311q-7 -23 -15.5 -33t-16.5 -12t-27 -2h-105q-32 0 -32 25zM358 498h510l-254 835zM375 1790 q0 22 28 43l322 246q15 12 37 12q20 0 45 -35l59 -88q11 -18 11 -29q0 -20 -23 -34q-4 -2 -68.5 -31.5t-158 -70.5t-148.5 -64q-26 -13 -43 -13q-22 0 -35 15l-18 22q-8 13 -8 27z" />
<glyph unicode="&#xc2;" horiz-adv-x="1243" d="M25 25q0 6 4 22l446 1432h-61q-43 0 -43 47v45q0 47 43 47h276q46 0 58 -45l475 -1528q4 -16 4 -20q0 -25 -33 -25h-127q-18 0 -26 1.5t-17 11.5t-16 32l-97 313h-596l-94 -311q-7 -23 -15.5 -33t-16.5 -12t-27 -2h-105q-32 0 -32 25zM244 1739q0 7 16 26l232 250 q20 21 37 27t46 6h70q29 0 46.5 -6t37.5 -27l232 -250q16 -19 16 -26q0 -13 -53 -13h-62q-25 0 -39.5 6t-40.5 31l-172 152l-172 -152q-26 -25 -40.5 -31t-39.5 -6h-61q-53 0 -53 13zM358 498h510l-254 835z" />
<glyph unicode="&#xc3;" horiz-adv-x="1243" d="M25 25q0 6 4 22l446 1432h-61q-43 0 -43 47v45q0 47 43 47h276q46 0 58 -45l475 -1528q4 -16 4 -20q0 -25 -33 -25h-127q-18 0 -26 1.5t-17 11.5t-16 32l-97 313h-596l-94 -311q-7 -23 -15.5 -33t-16.5 -12t-27 -2h-105q-32 0 -32 25zM184 1806q0 5 4 9 q58 82 130.5 115.5t166.5 33.5q50 0 104.5 -26.5t107.5 -53t100 -26.5q21 0 40 4t31 8t27 14.5t20.5 15t19.5 18.5l17 17q15 15 25 15q9 0 18 -13q2 -2 19 -20t18 -19q6 -6 6 -14q0 -4 -4 -8q-58 -82 -131.5 -116t-167.5 -34q-45 0 -82 11t-62.5 27t-49.5 31.5t-53.5 26.5 t-63.5 11q-25 0 -45 -4.5t-37 -15t-26.5 -17t-25.5 -22t-20 -19.5q-17 -12 -26 -12q-11 0 -19 8q-26 29 -35 41q-6 6 -6 14zM358 498h510l-254 835z" />
<glyph unicode="&#xc4;" horiz-adv-x="1243" d="M25 25q0 6 4 22l446 1432h-61q-43 0 -43 47v45q0 47 43 47h276q46 0 58 -45l475 -1528q4 -16 4 -20q0 -25 -33 -25h-127q-18 0 -26 1.5t-17 11.5t-16 32l-97 313h-596l-94 -311q-7 -23 -15.5 -33t-16.5 -12t-27 -2h-105q-32 0 -32 25zM319 1772v108q0 47 46 47h110 q45 0 45 -47v-108q0 -46 -45 -46h-110q-46 0 -46 46zM358 498h510l-254 835zM705 1772v108q0 47 45 47h110q45 0 45 -47v-108q0 -46 -45 -46h-110q-45 0 -45 46z" />
<glyph unicode="&#xc5;" horiz-adv-x="1243" d="M25 25q0 6 4 22l446 1432h-61q-43 0 -43 47v45q0 47 43 47h276q46 0 58 -45l475 -1528q4 -16 4 -20q0 -25 -33 -25h-127q-18 0 -26 1.5t-17 11.5t-16 32l-97 313h-596l-94 -311q-7 -23 -15.5 -33t-16.5 -12t-27 -2h-105q-32 0 -32 25zM358 498h510l-254 835zM406 1944 q0 89 64 153t153 64t153 -64t64 -153t-64 -153.5t-153 -64.5t-153 64.5t-64 153.5zM518 1944q0 -43 31 -74t74 -31t73.5 31t30.5 74t-30.5 73.5t-73.5 30.5t-74 -30.5t-31 -73.5z" />
<glyph unicode="&#xc6;" horiz-adv-x="1462" d="M25 25q0 6 4 22l446 1432h-78q-43 0 -43 47v45q0 47 43 47h969q45 0 45 -47v-45q0 -47 -45 -47h-494v-674h277q45 0 45 -47v-45q0 -47 -45 -47h-277v-527h494q45 0 45 -47v-45q0 -47 -45 -47h-674q-43 0 -43 47v311h-334l-94 -311q-15 -47 -59 -47h-105q-32 0 -32 25z M358 498h291v944z" />
<glyph unicode="&#xc7;" horiz-adv-x="1208" d="M111 541v536q0 156 29.5 262t93 170t155.5 91.5t225 27.5q134 0 226 -27t157 -89t95 -166t30 -256v-21q0 -47 -45 -47h-133q-45 0 -45 47v39q0 211 -62 291t-221 80q-157 0 -218.5 -82.5t-61.5 -298.5v-578q0 -216 61.5 -298.5t218.5 -82.5q159 0 221 79t62 284v47 q0 47 45 47h133q45 0 45 -47v-27q0 -152 -29 -254.5t-93.5 -164t-157 -87.5t-228.5 -26q-39 0 -55 2l-22 -105q28 20 52.5 27.5t72.5 7.5q88 0 143 -59t55 -164q0 -109 -55 -164t-176 -55q-107 0 -166.5 51t-67.5 127h129q2 -30 29.5 -53t75.5 -23t73 30t25 83q0 57 -25 92 t-73 35q-85 0 -105 -74h-123q-17 0 -14 23l43 223q0 4 4 12q-170 34 -246.5 158.5t-76.5 376.5z" />
<glyph unicode="&#xc8;" horiz-adv-x="983" d="M66 713v45q0 47 43 47h59v766q0 47 43 47h674q45 0 45 -47v-45q0 -47 -45 -47h-494v-674h277q45 0 45 -47v-45q0 -47 -45 -47h-277v-527h494q45 0 45 -47v-45q0 -47 -45 -47h-674q-43 0 -43 47v619h-59q-43 0 -43 47zM254 1939q0 12 10 29l60 88q24 35 45 35q22 0 37 -12 l321 -246q29 -22 29 -43q0 -13 -11 -27l-16 -22q-13 -15 -35 -15q-17 0 -43 13q-55 23 -148.5 64t-158 70.5t-68.5 31.5q-13 8 -17.5 14.5t-4.5 19.5z" />
<glyph unicode="&#xc9;" horiz-adv-x="983" d="M66 713v45q0 47 43 47h59v766q0 47 43 47h674q45 0 45 -47v-45q0 -47 -45 -47h-494v-674h277q45 0 45 -47v-45q0 -47 -45 -47h-277v-527h494q45 0 45 -47v-45q0 -47 -45 -47h-674q-43 0 -43 47v619h-59q-43 0 -43 47zM303 1790q0 21 29 43l321 246q15 12 37 12 q20 0 45 -35l60 -88q10 -17 10 -29q0 -20 -23 -34q-5 -2 -69 -31.5t-157 -70.5t-148 -64q-26 -13 -43 -13q-23 0 -35 15l-19 22q-8 13 -8 27z" />
<glyph unicode="&#xca;" horiz-adv-x="983" d="M66 713v45q0 47 43 47h59v766q0 47 43 47h674q45 0 45 -47v-45q0 -47 -45 -47h-494v-674h277q45 0 45 -47v-45q0 -47 -45 -47h-277v-527h494q45 0 45 -47v-45q0 -47 -45 -47h-674q-43 0 -43 47v619h-59q-43 0 -43 47zM182 1739q0 6 17 26l231 250q20 21 37.5 27t46.5 6 h70q29 0 46.5 -6t37.5 -27l231 -250q16 -19 16 -26q0 -13 -53 -13h-61q-25 0 -39.5 6t-40.5 31l-172 152l-172 -152q-26 -25 -40.5 -31t-39.5 -6h-61q-54 0 -54 13z" />
<glyph unicode="&#xcb;" horiz-adv-x="983" d="M66 713v45q0 47 43 47h59v766q0 47 43 47h674q45 0 45 -47v-45q0 -47 -45 -47h-494v-674h277q45 0 45 -47v-45q0 -47 -45 -47h-277v-527h494q45 0 45 -47v-45q0 -47 -45 -47h-674q-43 0 -43 47v619h-59q-43 0 -43 47zM256 1772v108q0 47 45 47h111q45 0 45 -47v-108 q0 -46 -45 -46h-111q-45 0 -45 46zM641 1772v108q0 47 45 47h111q45 0 45 -47v-108q0 -46 -45 -46h-111q-45 0 -45 46z" />
<glyph unicode="&#xcc;" horiz-adv-x="520" d="M-8 1939q0 12 10 29l59 88q24 35 45 35q22 0 37 -12l322 -246q29 -22 29 -43q0 -13 -11 -27l-16 -22q-12 -15 -35 -15q-17 0 -43 13q-55 23 -148.5 64t-158 70.5t-68.5 31.5q-13 8 -17.5 14.5t-4.5 19.5zM150 47v1524q0 47 43 47h137q43 0 43 -47v-1524q0 -47 -43 -47 h-137q-43 0 -43 47z" />
<glyph unicode="&#xcd;" horiz-adv-x="520" d="M8 1790q0 21 29 43l321 246q15 12 37 12q21 0 45 -35l60 -88q10 -17 10 -29q0 -20 -23 -34q-5 -2 -69 -31.5t-157 -70.5t-148 -64q-26 -13 -43 -13q-22 0 -35 15l-19 22q-8 13 -8 27zM150 47v1524q0 47 43 47h137q43 0 43 -47v-1524q0 -47 -43 -47h-137q-43 0 -43 47z " />
<glyph unicode="&#xce;" horiz-adv-x="520" d="M-98 1739q0 7 16 26l232 250q20 21 37 27t46 6h70q29 0 46.5 -6t37.5 -27l231 -250q17 -20 17 -26q0 -13 -53 -13h-62q-25 0 -39.5 6t-40.5 31l-172 152l-172 -152q-26 -25 -40.5 -31t-39.5 -6h-61q-53 0 -53 13zM150 47v1524q0 47 43 47h137q43 0 43 -47v-1524 q0 -47 -43 -47h-137q-43 0 -43 47z" />
<glyph unicode="&#xcf;" horiz-adv-x="520" d="M-27 1772v108q0 47 45 47h111q45 0 45 -47v-108q0 -46 -45 -46h-111q-45 0 -45 46zM150 47v1524q0 47 43 47h137q43 0 43 -47v-1524q0 -47 -43 -47h-137q-43 0 -43 47zM358 1772v108q0 47 45 47h111q45 0 45 -47v-108q0 -46 -45 -46h-111q-45 0 -45 46z" />
<glyph unicode="&#xd0;" horiz-adv-x="1325" d="M18 754v45q0 47 43 47h140v633h-60q-43 0 -43 47v45q0 47 43 47h547q285 0 403.5 -105t118.5 -364v-680q0 -259 -118.5 -364t-403.5 -105h-547q-43 0 -43 47v45q0 47 43 47h60v568h-140q-43 0 -43 47zM424 139h264q164 0 231.5 60.5t67.5 210.5v800q0 149 -67.5 209 t-231.5 60h-264v-633h299q45 0 45 -47v-45q0 -47 -45 -47h-299v-568z" />
<glyph unicode="&#xd1;" horiz-adv-x="1310" d="M150 47v1524q0 47 43 47h135q19 0 27 -1.5t18 -11t20 -30.5l545 -1169v1165q0 47 43 47h137q43 0 43 -47v-1524q0 -47 -45 -47h-135q-19 0 -27.5 1.5t-18.5 11t-20 30.5l-542 1163v-1159q0 -47 -43 -47h-137q-43 0 -43 47zM229 1806q0 5 4 9q58 82 130.5 115.5 t166.5 33.5q50 0 104.5 -26.5t107.5 -53t100 -26.5q21 0 40 4t31 8t27 14.5t20.5 15t19.5 18.5l17 17q15 15 25 15q9 0 18 -13q2 -2 19 -20t18 -19q6 -6 6 -14q0 -4 -4 -8q-58 -82 -131.5 -116t-167.5 -34q-45 0 -82 11t-62.5 27t-49.5 31.5t-53.5 26.5t-63.5 11 q-25 0 -45 -4.5t-37 -15t-26.5 -17t-25.5 -22t-20 -19.5q-17 -12 -26 -12q-11 0 -19 8q-14 16 -34 41q-7 7 -7 14z" />
<glyph unicode="&#xd2;" d="M111 541v536q0 156 31 262.5t98 170t162.5 91t232.5 27.5q138 0 233.5 -27.5t163 -91t99.5 -170t32 -262.5v-536q0 -156 -32 -262.5t-99.5 -170t-163 -91t-233.5 -27.5q-137 0 -232.5 27.5t-162.5 91t-98 170t-31 262.5zM338 520q0 -217 63.5 -299t233.5 -82 q171 0 236 82.5t65 298.5v578q0 216 -65 298.5t-236 82.5q-170 0 -233.5 -82t-63.5 -299v-578zM387 1939q0 12 10 29l60 88q25 35 45 35q22 0 37 -12l321 -246q29 -22 29 -43q0 -14 -10 -27l-17 -22q-13 -15 -35 -15q-17 0 -43 13q-55 23 -148 64t-157 70.5t-69 31.5 q-23 14 -23 34z" />
<glyph unicode="&#xd3;" d="M111 541v536q0 156 31 262.5t98 170t162.5 91t232.5 27.5q138 0 233.5 -27.5t163 -91t99.5 -170t32 -262.5v-536q0 -156 -32 -262.5t-99.5 -170t-163 -91t-233.5 -27.5q-137 0 -232.5 27.5t-162.5 91t-98 170t-31 262.5zM338 520q0 -217 63.5 -299t233.5 -82 q171 0 236 82.5t65 298.5v578q0 216 -65 298.5t-236 82.5q-170 0 -233.5 -82t-63.5 -299v-578zM387 1790q0 21 29 43l321 246q15 12 37 12q20 0 45 -35l60 -88q10 -17 10 -29q0 -20 -23 -34q-5 -2 -69 -31.5t-157 -70.5t-148 -64q-26 -13 -43 -13q-23 0 -35 15l-19 22 q-8 13 -8 27z" />
<glyph unicode="&#xd4;" d="M111 541v536q0 156 31 262.5t98 170t162.5 91t232.5 27.5q138 0 233.5 -27.5t163 -91t99.5 -170t32 -262.5v-536q0 -156 -32 -262.5t-99.5 -170t-163 -91t-233.5 -27.5q-137 0 -232.5 27.5t-162.5 91t-98 170t-31 262.5zM270 1739q0 6 17 26l231 250q20 21 37.5 27 t46.5 6h70q29 0 46.5 -6t37.5 -27l231 -250q17 -20 17 -26q0 -13 -54 -13h-61q-25 0 -39.5 6t-40.5 31l-172 152l-172 -152q-26 -25 -40.5 -31t-39.5 -6h-61q-54 0 -54 13zM338 520q0 -217 63.5 -299t233.5 -82q171 0 236 82.5t65 298.5v578q0 216 -65 298.5t-236 82.5 q-170 0 -233.5 -82t-63.5 -299v-578z" />
<glyph unicode="&#xd5;" d="M111 541v536q0 156 31 262.5t98 170t162.5 91t232.5 27.5q138 0 233.5 -27.5t163 -91t99.5 -170t32 -262.5v-536q0 -156 -32 -262.5t-99.5 -170t-163 -91t-233.5 -27.5q-137 0 -232.5 27.5t-162.5 91t-98 170t-31 262.5zM211 1806q0 5 4 9q58 82 130.5 115.5t166.5 33.5 q50 0 104 -26.5t107 -53t100 -26.5q21 0 40 4t31 8t27.5 15t20.5 14.5t20 19t17 16.5q15 15 25 15q9 0 18 -13q2 -2 19 -20t18 -19q6 -6 6 -14q0 -4 -4 -8q-58 -82 -131.5 -116t-167.5 -34q-45 0 -82 11t-62.5 27t-49.5 31.5t-53.5 26.5t-63.5 11q-25 0 -45 -4.5t-37 -15 t-26.5 -17t-25.5 -22t-20 -19.5q-17 -12 -27 -12t-18 8q-26 29 -35 41q-6 6 -6 14zM338 520q0 -217 63.5 -299t233.5 -82q171 0 236 82.5t65 298.5v578q0 216 -65 298.5t-236 82.5q-170 0 -233.5 -82t-63.5 -299v-578z" />
<glyph unicode="&#xd6;" d="M111 541v536q0 156 31 262.5t98 170t162.5 91t232.5 27.5q138 0 233.5 -27.5t163 -91t99.5 -170t32 -262.5v-536q0 -156 -32 -262.5t-99.5 -170t-163 -91t-233.5 -27.5q-137 0 -232.5 27.5t-162.5 91t-98 170t-31 262.5zM338 520q0 -217 63.5 -299t233.5 -82 q171 0 236 82.5t65 298.5v578q0 216 -65 298.5t-236 82.5q-170 0 -233.5 -82t-63.5 -299v-578zM344 1772v108q0 47 45 47h111q45 0 45 -47v-108q0 -46 -45 -46h-111q-45 0 -45 46zM729 1772v108q0 47 45 47h111q45 0 45 -47v-108q0 -46 -45 -46h-111q-45 0 -45 46z" />
<glyph unicode="&#xd7;" horiz-adv-x="1112" d="M100 266q0 14 15 29l342 342l-342 342q-15 15 -15 29q0 15 19 34l33 33q17 17 32 17q13 0 31 -15l340 -342l342 340q15 15 31 15q15 0 33 -15l32 -33q15 -18 15 -34q0 -14 -15 -29l-340 -342l340 -342q15 -15 15 -29q0 -18 -15 -33l-32 -32q-19 -19 -33 -19t-31 17 l-342 340l-340 -342q-18 -15 -31 -15q-16 0 -32 19l-33 32q-19 16 -19 33z" />
<glyph unicode="&#xd8;" d="M76 -123q0 9 10 29l125 233q-100 126 -100 402v536q0 156 31 262.5t98 170t162.5 91t232.5 27.5q215 0 330 -69l79 149q15 28 32 38.5t50 10.5h64q33 0 33 -20q0 -11 -11 -29l-135 -252q86 -130 86 -379v-536q0 -156 -32 -262.5t-99.5 -170t-163 -91t-233.5 -27.5 q-196 0 -309 55l-74 -139q-20 -37 -33.5 -45t-44.5 -8h-63q-35 0 -35 24zM338 520q0 -74 6 -129l530 1000q-63 88 -239 88q-170 0 -233.5 -82t-63.5 -299v-578zM412 207q65 -68 223 -68q171 0 236 82.5t65 298.5v578q0 32 -4 86z" />
<glyph unicode="&#xd9;" horiz-adv-x="1290" d="M141 541v1030q0 47 43 47h138q43 0 43 -47v-1051q0 -218 59 -299.5t219 -81.5q163 0 224 82t61 299v1051q0 47 43 47h135q43 0 43 -47v-1030q0 -156 -30.5 -262.5t-95.5 -170t-157 -91t-223 -27.5q-132 0 -223.5 27.5t-155.5 91t-93.5 170t-29.5 262.5zM395 1939 q0 11 11 29l59 88q24 35 45 35q22 0 37 -12l321 -246q29 -22 29 -43q0 -14 -10 -27l-17 -22q-12 -15 -34 -15q-17 0 -43 13q-55 23 -148.5 64t-158 70.5t-68.5 31.5q-23 14 -23 34z" />
<glyph unicode="&#xda;" horiz-adv-x="1290" d="M141 541v1030q0 47 43 47h138q43 0 43 -47v-1051q0 -218 59 -299.5t219 -81.5q163 0 224 82t61 299v1051q0 47 43 47h135q43 0 43 -47v-1030q0 -156 -30.5 -262.5t-95.5 -170t-157 -91t-223 -27.5q-132 0 -223.5 27.5t-155.5 91t-93.5 170t-29.5 262.5zM395 1790 q0 21 29 43l321 246q15 12 37 12q21 0 45 -35l60 -88q10 -17 10 -29q0 -20 -23 -34q-5 -2 -69 -31.5t-157 -70.5t-148 -64q-26 -13 -43 -13q-23 0 -35 15l-19 22q-8 13 -8 27z" />
<glyph unicode="&#xdb;" horiz-adv-x="1290" d="M141 541v1030q0 47 43 47h138q43 0 43 -47v-1051q0 -218 59 -299.5t219 -81.5q163 0 224 82t61 299v1051q0 47 43 47h135q43 0 43 -47v-1030q0 -156 -30.5 -262.5t-95.5 -170t-157 -91t-223 -27.5q-132 0 -223.5 27.5t-155.5 91t-93.5 170t-29.5 262.5zM279 1739 q0 7 16 26l231 250q20 21 37.5 27t46.5 6h70q29 0 46.5 -6t37.5 -27l231 -250q17 -20 17 -26q0 -13 -54 -13h-61q-25 0 -39.5 6t-40.5 31l-172 152l-172 -152q-26 -25 -40.5 -31t-39.5 -6h-61q-53 0 -53 13z" />
<glyph unicode="&#xdc;" horiz-adv-x="1290" d="M141 541v1030q0 47 43 47h138q43 0 43 -47v-1051q0 -218 59 -299.5t219 -81.5q163 0 224 82t61 299v1051q0 47 43 47h135q43 0 43 -47v-1030q0 -156 -30.5 -262.5t-95.5 -170t-157 -91t-223 -27.5q-132 0 -223.5 27.5t-155.5 91t-93.5 170t-29.5 262.5zM367 1772v108 q0 47 45 47h110q45 0 45 -47v-108q0 -46 -45 -46h-110q-45 0 -45 46zM752 1772v108q0 47 45 47h110q45 0 45 -47v-108q0 -46 -45 -46h-110q-45 0 -45 46z" />
<glyph unicode="&#xdd;" horiz-adv-x="1183" d="M16 1595q0 23 33 23h135q24 0 34 -6.5t24 -38.5l356 -764l358 764q16 32 25.5 38.5t32.5 6.5h123q34 0 34 -23q0 -11 -8 -22l-458 -979v-547q0 -47 -46 -47h-135q-43 0 -43 47v547l-458 979q-7 14 -7 22zM344 1790q0 21 29 43l321 246q15 12 37 12q21 0 45 -35l60 -88 q10 -17 10 -29q0 -20 -23 -34q-5 -2 -69 -31.5t-157 -70.5t-148 -64q-26 -13 -43 -13q-22 0 -35 15l-19 22q-8 13 -8 27z" />
<glyph unicode="&#xde;" horiz-adv-x="1286" d="M147 47v1524q0 47 46 47h135q45 0 45 -47v-234h313q285 0 403.5 -104.5t118.5 -362.5v-96q0 -136 -28 -226t-92 -146t-160.5 -79.5t-241.5 -23.5h-313v-252q0 -47 -45 -47h-135q-46 0 -46 47zM373 438h313q165 0 232 60t67 217v215q0 148 -67.5 208t-231.5 60h-313v-760z " />
<glyph unicode="&#xdf;" horiz-adv-x="1294" d="M61 47v45q0 24 9.5 35.5t33.5 11.5h60v946q0 207 50.5 324.5t158.5 168t297 50.5q124 0 214.5 -22t157.5 -72t100.5 -136t33.5 -210q0 -65 -11.5 -119.5t-28 -87t-38.5 -58t-38 -36.5t-32 -20l-16 -9q95 -45 140.5 -133t45.5 -233v-66q0 -122 -31 -204t-98.5 -131 t-163.5 -70t-235 -21q-43 0 -43 47v45q0 24 11 35.5t38 11.5q164 0 230.5 55.5t66.5 202.5v138q0 144 -66.5 200t-228.5 56q-51 0 -51 47v34q0 24 11 35t38 11q152 0 213 54t61 191q0 99 -14.5 161.5t-49.5 99t-85.5 50t-130.5 13.5q-107 0 -166 -25.5t-88 -93.5t-29 -194 v-1127q0 -47 -45 -47h-238q-24 0 -33.5 11.5t-9.5 35.5z" />
<glyph unicode="&#xe0;" horiz-adv-x="1167" d="M80 336v29q0 96 40 163t103.5 101t140.5 56t154.5 37t141 33.5t103.5 56t40 95.5v62q0 105 -54.5 151.5t-185.5 46.5q-139 0 -193.5 -57t-54.5 -197v-49q0 -49 -45 -49h-116q-43 0 -43 49v49q0 205 122.5 299.5t337.5 94.5q239 0 345 -105t106 -358v-715h47q45 0 45 -47 v-35q0 -47 -45 -47h-211q-45 0 -45 47v66l-10 6q-119 -129 -340 -129q-181 0 -282 89.5t-101 256.5zM295 352q0 -117 59 -170t172 -53q142 0 209.5 73t67.5 189v285l-10 6q-47 -27 -120.5 -49t-134.5 -37t-119 -37.5t-91 -63t-33 -100.5v-43zM346 1618q0 12 10 29l60 88 q24 34 45 34q22 0 37 -12l321 -246q29 -22 29 -43q0 -14 -10 -26l-17 -23q-12 -14 -35 -14q-19 0 -43 12q-55 23 -148 64t-157 70.5t-69 31.5q-23 14 -23 35z" />
<glyph unicode="&#xe1;" horiz-adv-x="1167" d="M80 336v29q0 96 40 163t103.5 101t140.5 56t154.5 37t141 33.5t103.5 56t40 95.5v62q0 105 -54.5 151.5t-185.5 46.5q-139 0 -193.5 -57t-54.5 -197v-49q0 -49 -45 -49h-116q-43 0 -43 49v49q0 205 122.5 299.5t337.5 94.5q239 0 345 -105t106 -358v-715h47q45 0 45 -47 v-35q0 -47 -45 -47h-211q-45 0 -45 47v66l-10 6q-119 -129 -340 -129q-181 0 -282 89.5t-101 256.5zM295 352q0 -117 59 -170t172 -53q142 0 209.5 73t67.5 189v285l-10 6q-47 -27 -120.5 -49t-134.5 -37t-119 -37.5t-91 -63t-33 -100.5v-43zM346 1468q0 21 29 43l321 246 q15 12 37 12q21 0 45 -34l60 -88q10 -17 10 -29q0 -21 -23 -35q-5 -2 -69 -31.5t-157 -70.5t-148 -64q-24 -12 -43 -12q-23 0 -35 14l-19 23q-8 13 -8 26z" />
<glyph unicode="&#xe2;" horiz-adv-x="1167" d="M80 336v29q0 96 40 163t103.5 101t140.5 56t154.5 37t141 33.5t103.5 56t40 95.5v62q0 105 -54.5 151.5t-185.5 46.5q-139 0 -193.5 -57t-54.5 -197v-49q0 -49 -45 -49h-116q-43 0 -43 49v49q0 205 122.5 299.5t337.5 94.5q239 0 345 -105t106 -358v-715h47q45 0 45 -47 v-35q0 -47 -45 -47h-211q-45 0 -45 47v66l-10 6q-119 -129 -340 -129q-181 0 -282 89.5t-101 256.5zM229 1417q0 7 17 27l231 250q20 21 37.5 26.5t46.5 5.5h70q29 0 46.5 -5.5t37.5 -26.5l231 -250q17 -20 17 -27q0 -12 -54 -12h-61q-25 0 -39.5 6t-40.5 31l-172 151 l-172 -151q-26 -25 -40.5 -31t-39.5 -6h-61q-54 0 -54 12zM295 352q0 -117 59 -170t172 -53q142 0 209.5 73t67.5 189v285l-10 6q-47 -27 -120.5 -49t-134.5 -37t-119 -37.5t-91 -63t-33 -100.5v-43z" />
<glyph unicode="&#xe3;" horiz-adv-x="1167" d="M80 336v29q0 96 40 163t103.5 101t140.5 56t154.5 37t141 33.5t103.5 56t40 95.5v62q0 105 -54.5 151.5t-185.5 46.5q-139 0 -193.5 -57t-54.5 -197v-49q0 -49 -45 -49h-116q-43 0 -43 49v49q0 205 122.5 299.5t337.5 94.5q239 0 345 -105t106 -358v-715h47q45 0 45 -47 v-35q0 -47 -45 -47h-211q-45 0 -45 47v66l-10 6q-119 -129 -340 -129q-181 0 -282 89.5t-101 256.5zM170 1485q0 4 4 8q58 82 130.5 115.5t166.5 33.5q50 0 104 -26.5t107 -53t100 -26.5q21 0 40 4t31 8.5t27.5 15t21 15t19.5 18.5l17 17q14 14 25 14q10 0 18 -12 q2 -2 19 -20t18 -19q6 -6 6 -14q0 -5 -4 -9q-58 -82 -131.5 -115.5t-167.5 -33.5q-54 0 -99.5 16.5t-71 36.5t-62.5 36.5t-78 16.5q-25 0 -45 -4t-37.5 -15t-26 -17t-25.5 -22t-20 -19q-18 -13 -27 -13t-18 9q-5 6 -13 14.5t-13 15t-9 10.5q-6 6 -6 15zM295 352 q0 -117 59 -170t172 -53q142 0 209.5 73t67.5 189v285l-10 6q-47 -27 -120.5 -49t-134.5 -37t-119 -37.5t-91 -63t-33 -100.5v-43z" />
<glyph unicode="&#xe4;" horiz-adv-x="1167" d="M80 336v29q0 96 40 163t103.5 101t140.5 56t154.5 37t141 33.5t103.5 56t40 95.5v62q0 105 -54.5 151.5t-185.5 46.5q-139 0 -193.5 -57t-54.5 -197v-49q0 -49 -45 -49h-116q-43 0 -43 49v49q0 205 122.5 299.5t337.5 94.5q239 0 345 -105t106 -358v-715h47q45 0 45 -47 v-35q0 -47 -45 -47h-211q-45 0 -45 47v66l-10 6q-119 -129 -340 -129q-181 0 -282 89.5t-101 256.5zM295 352q0 -117 59 -170t172 -53q142 0 209.5 73t67.5 189v285l-10 6q-47 -27 -120.5 -49t-134.5 -37t-119 -37.5t-91 -63t-33 -100.5v-43zM303 1450v109q0 47 45 47h111 q45 0 45 -47v-109q0 -45 -45 -45h-111q-45 0 -45 45zM688 1450v109q0 47 45 47h111q45 0 45 -47v-109q0 -45 -45 -45h-111q-45 0 -45 45z" />
<glyph unicode="&#xe5;" horiz-adv-x="1167" d="M80 336v29q0 96 40 163t103.5 101t140.5 56t154.5 37t141 33.5t103.5 56t40 95.5v62q0 105 -54.5 151.5t-185.5 46.5q-139 0 -193.5 -57t-54.5 -197v-49q0 -49 -45 -49h-116q-43 0 -43 49v49q0 205 122.5 299.5t337.5 94.5q239 0 345 -105t106 -358v-715h47q45 0 45 -47 v-35q0 -47 -45 -47h-211q-45 0 -45 47v66l-10 6q-119 -129 -340 -129q-181 0 -282 89.5t-101 256.5zM295 352q0 -117 59 -170t172 -53q142 0 209.5 73t67.5 189v285l-10 6q-47 -27 -120.5 -49t-134.5 -37t-119 -37.5t-91 -63t-33 -100.5v-43zM379 1622q0 89 64 153t153 64 t153 -64t64 -153t-64 -153t-153 -64t-153 64t-64 153zM492 1622q0 -43 30.5 -73.5t73.5 -30.5t73.5 30.5t30.5 73.5t-30.5 73.5t-73.5 30.5t-73.5 -30.5t-30.5 -73.5z" />
<glyph unicode="&#xe6;" horiz-adv-x="1837" d="M78 336v29q0 96 40 163t103.5 101t140.5 56t154.5 37t141 33.5t103.5 56t40 95.5v62q0 104 -55 151t-185 47q-133 0 -186 -57t-53 -197v-49q0 -49 -46 -49h-124q-43 0 -43 49v49q0 205 122.5 299.5t337.5 94.5q247 0 353 -115q107 115 350 115q117 0 200.5 -25.5t146 -85 t93.5 -162t31 -250.5v-73q0 -48 -45 -54l-678 -92v-123q0 -165 59.5 -239t194.5 -74q142 0 202 57.5t60 196.5v49q0 49 45 49h119q43 0 43 -49v-47q0 -106 -35 -183.5t-99.5 -123t-148 -67t-188.5 -21.5q-159 0 -261.5 48t-154.5 161q-110 -209 -395 -209q-181 0 -282 89.5 t-101 256.5zM295 352q0 -118 58 -170.5t171 -52.5q139 0 208 70t69 182v287l-15 10q-47 -26 -120.5 -47t-133 -36t-116.5 -37.5t-89 -62.5t-32 -100v-43zM1020 690l516 66v102q0 162 -61.5 235.5t-200.5 73.5q-132 0 -192 -71t-62 -228v-178z" />
<glyph unicode="&#xe7;" horiz-adv-x="1126" d="M98 537v223q0 156 29.5 263t91 169t146 88.5t204.5 26.5q105 0 189 -21.5t148 -67.5t99 -123.5t35 -183.5v-47q0 -49 -43 -49h-118q-45 0 -45 49v49q0 139 -60.5 196.5t-202.5 57.5q-135 0 -194.5 -74t-59.5 -239v-412q0 -165 59.5 -239t194.5 -74q142 0 202.5 57.5 t60.5 196.5v49q0 49 45 49h118q43 0 43 -49v-47q0 -106 -35 -183.5t-99.5 -123t-148 -67t-188.5 -21.5q-10 0 -29 1t-28 1l-23 -105q28 20 52.5 27.5t72.5 7.5q89 0 144 -59t55 -164q0 -109 -55 -164t-176 -55q-107 0 -166.5 51t-67.5 127h129q2 -30 29.5 -53t75.5 -23 t73 30t25 83q0 57 -25 92t-73 35q-85 0 -105 -74h-123q-17 0 -14 23l45 237q-145 38 -216 163t-71 366z" />
<glyph unicode="&#xe8;" horiz-adv-x="1132" d="M98 537v223q0 156 29.5 263t91 169t146 88.5t204.5 26.5q117 0 200.5 -25.5t146 -85t93.5 -162t31 -250.5v-73q0 -48 -45 -54l-678 -92v-123q0 -165 59.5 -239t194.5 -74q142 0 202.5 57.5t60.5 196.5v49q0 49 45 49h118q43 0 43 -49v-47q0 -106 -35 -183.5t-99.5 -123 t-148 -67t-188.5 -21.5q-120 0 -204.5 26.5t-146 88.5t-91 169t-29.5 263zM317 690l517 66v102q0 162 -62 235.5t-201 73.5q-134 0 -194 -74t-60 -237v-166zM319 1618q0 11 11 29l59 88q24 34 45 34q22 0 37 -12l322 -246q28 -21 28 -43q0 -14 -10 -26l-16 -23 q-12 -14 -35 -14q-19 0 -43 12q-55 23 -148.5 64t-158 70.5t-68.5 31.5q-23 14 -23 35z" />
<glyph unicode="&#xe9;" horiz-adv-x="1132" d="M98 537v223q0 156 29.5 263t91 169t146 88.5t204.5 26.5q117 0 200.5 -25.5t146 -85t93.5 -162t31 -250.5v-73q0 -48 -45 -54l-678 -92v-123q0 -165 59.5 -239t194.5 -74q142 0 202.5 57.5t60.5 196.5v49q0 49 45 49h118q43 0 43 -49v-47q0 -106 -35 -183.5t-99.5 -123 t-148 -67t-188.5 -21.5q-120 0 -204.5 26.5t-146 88.5t-91 169t-29.5 263zM317 690l517 66v102q0 162 -62 235.5t-201 73.5q-134 0 -194 -74t-60 -237v-166zM319 1468q0 21 29 43l322 246q15 12 37 12q21 0 45 -34l59 -88q10 -17 10 -29q0 -21 -22 -35q-4 -2 -68.5 -31.5 t-158 -70.5t-148.5 -64q-24 -12 -43 -12q-23 0 -35 14l-18 23q-9 15 -9 26z" />
<glyph unicode="&#xea;" horiz-adv-x="1132" d="M98 537v223q0 156 29.5 263t91 169t146 88.5t204.5 26.5q117 0 200.5 -25.5t146 -85t93.5 -162t31 -250.5v-73q0 -48 -45 -54l-678 -92v-123q0 -165 59.5 -239t194.5 -74q142 0 202.5 57.5t60.5 196.5v49q0 49 45 49h118q43 0 43 -49v-47q0 -106 -35 -183.5t-99.5 -123 t-148 -67t-188.5 -21.5q-120 0 -204.5 26.5t-146 88.5t-91 169t-29.5 263zM203 1417q0 8 16 27l232 250q20 21 37.5 26.5t46.5 5.5h69q29 0 46.5 -5.5t37.5 -26.5l232 -250q16 -19 16 -27t-11.5 -10t-41.5 -2h-62q-25 0 -39.5 6t-40.5 31l-172 151l-172 -151 q-26 -25 -40.5 -31t-39.5 -6h-61h-23t-15.5 1.5t-11.5 4t-3 6.5zM317 690l517 66v102q0 162 -62 235.5t-201 73.5q-134 0 -194 -74t-60 -237v-166z" />
<glyph unicode="&#xeb;" horiz-adv-x="1132" d="M98 537v223q0 156 29.5 263t91 169t146 88.5t204.5 26.5q117 0 200.5 -25.5t146 -85t93.5 -162t31 -250.5v-73q0 -48 -45 -54l-678 -92v-123q0 -165 59.5 -239t194.5 -74q142 0 202.5 57.5t60.5 196.5v49q0 49 45 49h118q43 0 43 -49v-47q0 -106 -35 -183.5t-99.5 -123 t-148 -67t-188.5 -21.5q-120 0 -204.5 26.5t-146 88.5t-91 169t-29.5 263zM276 1450v109q0 47 46 47h110q45 0 45 -47v-109q0 -45 -45 -45h-110q-46 0 -46 45zM317 690l517 66v102q0 162 -62 235.5t-201 73.5q-134 0 -194 -74t-60 -237v-166zM662 1450v109q0 47 45 47h110 q45 0 45 -47v-109q0 -45 -45 -45h-110q-45 0 -45 45z" />
<glyph unicode="&#xec;" horiz-adv-x="518" d="M-4 1618q0 12 10 29l60 88q24 34 45 34t36 -12l322 -246q29 -22 29 -43q0 -12 -11 -26l-16 -23q-12 -14 -35 -14q-19 0 -43 12q-55 23 -148.5 64t-158 70.5t-68.5 31.5q-22 14 -22 35zM66 1214v35q0 47 45 47h221q45 0 45 -47v-1202q0 -47 -45 -47h-127q-45 0 -45 47 v1120h-49q-45 0 -45 47z" />
<glyph unicode="&#xed;" horiz-adv-x="518" d="M41 1468q0 21 29 43l321 246q15 12 37 12q21 0 45 -34l59 -88q11 -18 11 -29q0 -21 -23 -35q-4 -2 -68.5 -31.5t-158 -70.5t-148.5 -64q-24 -12 -43 -12q-22 0 -34 14l-19 23q-8 13 -8 26zM66 1214v35q0 47 45 47h221q45 0 45 -47v-1202q0 -47 -45 -47h-127q-45 0 -45 47 v1120h-49q-45 0 -45 47z" />
<glyph unicode="&#xee;" horiz-adv-x="518" d="M-94 1415q0 8 16 27l232 250q20 21 37.5 26.5t46.5 5.5h69q29 0 46.5 -5.5t37.5 -26.5l232 -250q16 -19 16 -27t-11.5 -10t-41.5 -2h-62q-25 0 -39.5 6t-40.5 31l-172 151l-172 -151q-26 -25 -40.5 -31t-39.5 -6h-61h-23t-15.5 1.5t-11.5 4t-3 6.5zM66 1214v35 q0 47 45 47h221q45 0 45 -47v-1202q0 -47 -45 -47h-127q-45 0 -45 47v1120h-49q-45 0 -45 47z" />
<glyph unicode="&#xef;" horiz-adv-x="518" d="M-63 1450v109q0 47 45 47h110q45 0 45 -47v-109q0 -45 -45 -45h-110q-45 0 -45 45zM66 1214v35q0 47 45 47h221q45 0 45 -47v-1202q0 -47 -45 -47h-127q-45 0 -45 47v1120h-49q-45 0 -45 47zM322 1450v109q0 47 45 47h110q45 0 45 -47v-109q0 -45 -45 -45h-110 q-45 0 -45 45z" />
<glyph unicode="&#xf0;" horiz-adv-x="1226" d="M74 463v76q0 195 48.5 310.5t148.5 166.5t266 51q204 0 340 -119v367l-248 -127q-15 -6 -25 -6q-20 0 -20 28v47q0 43 45 68l229 119q-26 75 -90.5 109t-173.5 34h-178q-43 0 -43 47v45q0 47 43 47h178q332 0 440 -192l226 117q13 8 24 8q21 0 21 -31v-47q0 -45 -45 -68 l-183 -94q17 -67 17 -151v-805q0 -87 -15 -156.5t-51 -130t-94 -100.5t-148 -63t-208 -23q-144 0 -244 34t-156 99t-80 147.5t-24 192.5zM293 406q0 -151 67 -214t218 -63q157 0 228 63t71 214v243q0 152 -67.5 215.5t-217.5 63.5q-157 0 -228 -63.5t-71 -215.5v-243z" />
<glyph unicode="&#xf1;" horiz-adv-x="1234" d="M68 1214v35q0 47 45 47h211q45 0 45 -47v-57l10 -6q103 121 295 121q103 0 179 -26t133.5 -85t86.5 -161t29 -247v-741q0 -47 -45 -47h-127q-45 0 -45 47v809q0 163 -60 237t-194 74q-133 0 -192.5 -74t-59.5 -237v-809q0 -47 -45 -47h-129q-45 0 -45 47v1120h-47 q-45 0 -45 47zM213 1485q0 4 4 8q58 82 130.5 115.5t166.5 33.5q50 0 104 -26.5t107 -53t100 -26.5q21 0 40 4t31 8.5t27.5 15t21 15t19.5 18.5l17 17q14 14 25 14q10 0 18 -12q2 -2 19 -20t18 -19q6 -6 6 -14q0 -5 -4 -9q-58 -82 -131.5 -115.5t-167.5 -33.5 q-54 0 -99.5 16.5t-71 36.5t-62.5 36.5t-78 16.5q-25 0 -45 -4t-37.5 -15t-26 -17t-25.5 -22t-20 -19q-18 -13 -27 -13t-18 9q-5 6 -13 14.5t-13 15t-9 10.5q-6 6 -6 15z" />
<glyph unicode="&#xf2;" horiz-adv-x="1140" d="M98 537v223q0 156 29.5 263t91 169t146 88.5t204.5 26.5q121 0 205.5 -26.5t146 -88.5t90.5 -168.5t29 -263.5v-223q0 -157 -29 -263.5t-90.5 -168.5t-146 -88.5t-205.5 -26.5q-120 0 -204.5 26.5t-146 88.5t-91 169t-29.5 263zM317 440q0 -163 59.5 -237t192.5 -74 q134 0 194 74t60 237v416q0 163 -60 237t-194 74q-133 0 -192.5 -74t-59.5 -237v-416zM348 1618q0 12 10 29l60 88q24 34 45 34q22 0 37 -12l321 -246q29 -22 29 -43q0 -14 -10 -26l-17 -23q-12 -14 -35 -14q-19 0 -43 12q-55 23 -148 64t-157 70.5t-69 31.5q-23 14 -23 35z " />
<glyph unicode="&#xf3;" horiz-adv-x="1140" d="M98 537v223q0 156 29.5 263t91 169t146 88.5t204.5 26.5q121 0 205.5 -26.5t146 -88.5t90.5 -168.5t29 -263.5v-223q0 -157 -29 -263.5t-90.5 -168.5t-146 -88.5t-205.5 -26.5q-120 0 -204.5 26.5t-146 88.5t-91 169t-29.5 263zM317 440q0 -163 59.5 -237t192.5 -74 q134 0 194 74t60 237v416q0 163 -60 237t-194 74q-133 0 -192.5 -74t-59.5 -237v-416zM322 1468q0 22 28 43l322 246q15 12 37 12q21 0 45 -34l59 -88q10 -17 10 -29q0 -21 -22 -35q-4 -2 -68.5 -31.5t-158 -70.5t-148.5 -64q-24 -12 -43 -12q-23 0 -35 14l-18 23 q-8 13 -8 26z" />
<glyph unicode="&#xf4;" horiz-adv-x="1140" d="M98 537v223q0 156 29.5 263t91 169t146 88.5t204.5 26.5q121 0 205.5 -26.5t146 -88.5t90.5 -168.5t29 -263.5v-223q0 -157 -29 -263.5t-90.5 -168.5t-146 -88.5t-205.5 -26.5q-120 0 -204.5 26.5t-146 88.5t-91 169t-29.5 263zM231 1417q0 7 17 27l231 250 q20 21 37.5 26.5t46.5 5.5h70q29 0 46.5 -5.5t37.5 -26.5l231 -250q17 -20 17 -27q0 -12 -54 -12h-61q-25 0 -39.5 6t-40.5 31l-172 151l-172 -151q-26 -25 -40.5 -31t-39.5 -6h-61q-54 0 -54 12zM317 440q0 -163 59.5 -237t192.5 -74q134 0 194 74t60 237v416 q0 163 -60 237t-194 74q-133 0 -192.5 -74t-59.5 -237v-416z" />
<glyph unicode="&#xf5;" horiz-adv-x="1140" d="M98 537v223q0 156 29.5 263t91 169t146 88.5t204.5 26.5q121 0 205.5 -26.5t146 -88.5t90.5 -168.5t29 -263.5v-223q0 -157 -29 -263.5t-90.5 -168.5t-146 -88.5t-205.5 -26.5q-120 0 -204.5 26.5t-146 88.5t-91 169t-29.5 263zM172 1485q0 4 4 8q58 82 130.5 115.5 t166.5 33.5q50 0 104 -26.5t107 -53t100 -26.5q21 0 40 4t31 8.5t27.5 15t21 15t19.5 18.5l17 17q14 14 25 14q10 0 18 -12q2 -2 19 -20t18 -19q6 -6 6 -14q0 -5 -4 -9q-58 -82 -131.5 -115.5t-167.5 -33.5q-54 0 -99.5 16.5t-71 36.5t-62.5 36.5t-78 16.5q-25 0 -45 -4 t-37.5 -15t-26 -17t-25.5 -22t-20 -19q-18 -13 -27 -13t-18 9q-5 6 -13 14.5t-13 15t-9 10.5q-6 6 -6 15zM317 440q0 -163 59.5 -237t192.5 -74q134 0 194 74t60 237v416q0 163 -60 237t-194 74q-133 0 -192.5 -74t-59.5 -237v-416z" />
<glyph unicode="&#xf6;" horiz-adv-x="1140" d="M98 537v223q0 156 29.5 263t91 169t146 88.5t204.5 26.5q121 0 205.5 -26.5t146 -88.5t90.5 -168.5t29 -263.5v-223q0 -157 -29 -263.5t-90.5 -168.5t-146 -88.5t-205.5 -26.5q-120 0 -204.5 26.5t-146 88.5t-91 169t-29.5 263zM305 1450v109q0 47 45 47h111q45 0 45 -47 v-109q0 -45 -45 -45h-111q-45 0 -45 45zM317 440q0 -163 59.5 -237t192.5 -74q134 0 194 74t60 237v416q0 163 -60 237t-194 74q-133 0 -192.5 -74t-59.5 -237v-416zM690 1450v109q0 47 45 47h111q45 0 45 -47v-109q0 -45 -45 -45h-111q-45 0 -45 45z" />
<glyph unicode="&#xf7;" horiz-adv-x="899" d="M96 625v45q0 47 43 47h619q45 0 45 -47v-45q0 -47 -45 -47h-619q-43 0 -43 47zM348 227v109q0 47 43 47h113q45 0 45 -47v-109q0 -45 -45 -45h-113q-43 0 -43 45zM348 963v106q0 47 43 47h113q45 0 45 -47v-106q0 -48 -45 -48h-113q-43 0 -43 48z" />
<glyph unicode="&#xf8;" horiz-adv-x="1140" d="M76 -156q0 5 8 25q51 97 129 242q-115 127 -115 426v223q0 156 29.5 263t91 169t146 88.5t204.5 26.5q156 0 256 -47l84 157q22 45 70 45h57q31 0 31 -20q0 -9 -8 -25q-51 -94 -127 -237q108 -129 108 -420v-223q0 -157 -29 -263.5t-90.5 -168.5t-146 -88.5t-205.5 -26.5 q-160 0 -250 41l-86 -162q-25 -45 -69 -45h-58q-30 0 -30 20zM317 440q0 -64 9 -114q56 105 204.5 383.5t214.5 402.5q-61 55 -176 55q-133 0 -192.5 -74t-59.5 -237v-416zM399 178q58 -49 170 -49q134 0 194 74t60 237v416q0 64 -8 105z" />
<glyph unicode="&#xf9;" horiz-adv-x="1253" d="M55 1214v35q0 47 45 47h224q45 0 45 -47v-809q0 -163 59.5 -237t192.5 -74t192 74t59 237v809q0 47 46 47h129q45 0 45 -47v-1120h49q45 0 45 -47v-35q0 -47 -45 -47h-213q-45 0 -45 47v57l-11 5q-101 -119 -294 -119q-102 0 -178 26t-133.5 84.5t-87 160.5t-29.5 247 v659h-50q-45 0 -45 47zM371 1618q0 12 10 29l59 88q24 34 45 34q22 0 37 -12l322 -246q28 -21 28 -43q0 -14 -10 -26l-16 -23q-12 -14 -35 -14q-19 0 -43 12q-55 23 -148.5 64t-158 70.5t-68.5 31.5q-22 14 -22 35z" />
<glyph unicode="&#xfa;" horiz-adv-x="1253" d="M55 1214v35q0 47 45 47h224q45 0 45 -47v-809q0 -163 59.5 -237t192.5 -74t192 74t59 237v809q0 47 46 47h129q45 0 45 -47v-1120h49q45 0 45 -47v-35q0 -47 -45 -47h-213q-45 0 -45 47v57l-11 5q-101 -119 -294 -119q-102 0 -178 26t-133.5 84.5t-87 160.5t-29.5 247 v659h-50q-45 0 -45 47zM371 1468q0 22 28 43l322 246q15 12 37 12q21 0 45 -34l59 -88q10 -17 10 -29q0 -21 -22 -35q-4 -2 -68.5 -31.5t-158 -70.5t-148.5 -64q-24 -12 -43 -12q-23 0 -35 14l-18 23q-8 13 -8 26z" />
<glyph unicode="&#xfb;" horiz-adv-x="1253" d="M55 1214v35q0 47 45 47h224q45 0 45 -47v-809q0 -163 59.5 -237t192.5 -74t192 74t59 237v809q0 47 46 47h129q45 0 45 -47v-1120h49q45 0 45 -47v-35q0 -47 -45 -47h-213q-45 0 -45 47v57l-11 5q-101 -119 -294 -119q-102 0 -178 26t-133.5 84.5t-87 160.5t-29.5 247 v659h-50q-45 0 -45 47zM256 1417q0 8 16 27l232 250q20 21 37.5 26.5t46.5 5.5h69q29 0 46.5 -5.5t37.5 -26.5l232 -250q16 -19 16 -27t-11.5 -10t-41.5 -2h-62q-25 0 -39 6t-40 31l-172 151l-172 -151q-26 -25 -40.5 -31t-39.5 -6h-62h-23t-15.5 1.5t-11.5 4t-3 6.5z" />
<glyph unicode="&#xfc;" horiz-adv-x="1253" d="M55 1214v35q0 47 45 47h224q45 0 45 -47v-809q0 -163 59.5 -237t192.5 -74t192 74t59 237v809q0 47 46 47h129q45 0 45 -47v-1120h49q45 0 45 -47v-35q0 -47 -45 -47h-213q-45 0 -45 47v57l-11 5q-101 -119 -294 -119q-102 0 -178 26t-133.5 84.5t-87 160.5t-29.5 247 v659h-50q-45 0 -45 47zM328 1450v109q0 47 45 47h110q45 0 45 -47v-109q0 -45 -45 -45h-110q-45 0 -45 45zM713 1450v109q0 47 45 47h110q45 0 45 -47v-109q0 -45 -45 -45h-110q-45 0 -45 45z" />
<glyph unicode="&#xfd;" horiz-adv-x="1110" d="M35 1251q-6 23 0.5 34t30.5 11h118q17 0 25 -1.5t17 -12t16 -31.5l323 -1061l324 1061q5 17 9.5 26t11.5 13.5t13 5t19 0.5h98q45 0 33 -45l-411 -1323q-58 -187 -88 -244q-45 -87 -122 -118q-76 -31 -229 -31h-10q-43 0 -37 47l8 35q12 47 56 47h51q26 0 45 3.5t33 7.5 t26 17t19 21.5t16 33t13.5 39t15.5 52t18 60.5l31 102h-39q-44 0 -55 45zM303 1468q0 21 29 43l321 246q15 12 37 12q21 0 45 -34l60 -88q10 -17 10 -29q0 -21 -23 -35q-5 -2 -69 -31.5t-157 -70.5t-148 -64q-24 -12 -43 -12q-23 0 -35 14l-19 23q-8 13 -8 26z" />
<glyph unicode="&#xfe;" horiz-adv-x="1187" d="M49 1679v35q0 47 45 47h213q45 0 45 -47v-526l8 -4q102 123 297 123q103 0 179.5 -26.5t133.5 -85.5t86 -160.5t29 -246.5v-280q0 -145 -29 -246.5t-86 -160.5t-133.5 -85t-179.5 -26q-194 0 -297 121l-8 -2v-527q0 -47 -45 -47h-121q-43 0 -43 47v2050h-49q-45 0 -45 47 zM362 440q0 -163 59.5 -237t192.5 -74t192.5 74t59.5 237v416q0 163 -59.5 237t-192.5 74q-131 0 -191.5 -70.5t-60.5 -224.5v-432z" />
<glyph unicode="&#xff;" horiz-adv-x="1110" d="M35 1251q-6 23 0.5 34t30.5 11h118q17 0 25 -1.5t17 -12t16 -31.5l323 -1061l324 1061q5 17 9.5 26t11.5 13.5t13 5t19 0.5h98q45 0 33 -45l-411 -1323q-58 -187 -88 -244q-45 -87 -122 -118q-76 -31 -229 -31h-10q-43 0 -37 47l8 35q12 47 56 47h51q26 0 45 3.5t33 7.5 t26 17t19 21.5t16 33t13.5 39t15.5 52t18 60.5l31 102h-39q-44 0 -55 45zM272 1450v109q0 47 45 47h111q45 0 45 -47v-109q0 -45 -45 -45h-111q-45 0 -45 45zM657 1450v109q0 47 45 47h111q45 0 45 -47v-109q0 -45 -45 -45h-111q-45 0 -45 45z" />
<glyph unicode="&#x152;" horiz-adv-x="1753" d="M111 541v536q0 156 31 262.5t98 170t162.5 91t232.5 27.5q192 0 305 -55q0 45 43 45h674q45 0 45 -47v-45q0 -47 -45 -47h-494v-674h277q45 0 45 -47v-45q0 -47 -45 -47h-277v-527h494q45 0 45 -47v-45q0 -47 -45 -47h-674q-43 0 -43 43q-115 -53 -305 -53 q-137 0 -232.5 27.5t-162.5 91t-98 170t-31 262.5zM338 520q0 -217 63.5 -299t233.5 -82q171 0 236 82.5t65 298.5v578q0 216 -65 298.5t-236 82.5q-170 0 -233.5 -82t-63.5 -299v-578z" />
<glyph unicode="&#x153;" horiz-adv-x="1857" d="M96 537v223q0 156 29.5 263t91 169t146 88.5t204.5 26.5q253 0 363 -127q108 127 362 127q117 0 200.5 -25.5t146 -85t93.5 -162t31 -250.5v-73q0 -48 -45 -54l-678 -92v-123q0 -165 59.5 -239t194.5 -74q142 0 202 57.5t60 196.5v49q0 49 46 49h118q43 0 43 -49v-47 q0 -106 -35 -183.5t-99.5 -123t-148 -67t-188.5 -21.5q-257 0 -362 127q-108 -127 -363 -127q-120 0 -204.5 26.5t-146 88.5t-91 169t-29.5 263zM315 440q0 -163 59.5 -237t192.5 -74q134 0 194 74t60 237v416q0 163 -60 237t-194 74q-133 0 -192.5 -74t-59.5 -237v-416z M1040 690l516 66v102q0 162 -61.5 235.5t-200.5 73.5q-134 0 -194 -74t-60 -237v-166z" />
<glyph unicode="&#x178;" horiz-adv-x="1183" d="M16 1595q0 23 33 23h135q24 0 34 -6.5t24 -38.5l356 -764l358 764q16 32 25.5 38.5t32.5 6.5h123q34 0 34 -23q0 -11 -8 -22l-458 -979v-547q0 -47 -46 -47h-135q-43 0 -43 47v547l-458 979q-7 14 -7 22zM305 1772v108q0 47 45 47h111q45 0 45 -47v-108q0 -46 -45 -46 h-111q-45 0 -45 46zM690 1772v108q0 47 45 47h111q45 0 45 -47v-108q0 -46 -45 -46h-111q-45 0 -45 46z" />
<glyph unicode="&#x2c6;" horiz-adv-x="897" d="M82 1417q0 8 16 27l232 250q20 21 37.5 26.5t46.5 5.5h69q29 0 46.5 -5.5t37.5 -26.5l232 -250q16 -19 16 -27t-11.5 -10t-41.5 -2h-62q-25 0 -39 6t-40 31l-172 151l-173 -151q-26 -25 -40 -31t-39 -6h-62h-23t-15.5 1.5t-11.5 4t-3 6.5z" />
<glyph unicode="&#x2dc;" horiz-adv-x="1017" d="M82 1485q0 4 4 8q58 82 130.5 115.5t166.5 33.5q50 0 104 -26.5t107 -53t100 -26.5q21 0 40 4t31 8.5t27.5 15t21 15t19.5 18.5l17 17q14 14 24 14q11 0 19 -12q2 -2 19 -20t18 -19q6 -6 6 -14q0 -5 -4 -9q-58 -82 -131.5 -115.5t-167.5 -33.5q-54 0 -99.5 16.5t-71 36.5 t-62.5 36.5t-78 16.5q-25 0 -45 -4t-37.5 -15t-26 -17t-25.5 -22t-20 -19q-18 -13 -27 -13t-18 9q-5 6 -13 14.5t-13 15t-9 10.5q-6 6 -6 15z" />
<glyph unicode="&#x2000;" horiz-adv-x="1080" />
<glyph unicode="&#x2001;" horiz-adv-x="2161" />
<glyph unicode="&#x2002;" horiz-adv-x="1080" />
<glyph unicode="&#x2003;" horiz-adv-x="2161" />
<glyph unicode="&#x2004;" horiz-adv-x="720" />
<glyph unicode="&#x2005;" horiz-adv-x="540" />
<glyph unicode="&#x2006;" horiz-adv-x="360" />
<glyph unicode="&#x2007;" horiz-adv-x="360" />
<glyph unicode="&#x2008;" horiz-adv-x="270" />
<glyph unicode="&#x2009;" horiz-adv-x="432" />
<glyph unicode="&#x200a;" horiz-adv-x="120" />
<glyph unicode="&#x2010;" horiz-adv-x="917" d="M106 627v45q0 47 44 47h618q45 0 45 -47v-45q0 -47 -45 -47h-618q-44 0 -44 47z" />
<glyph unicode="&#x2011;" horiz-adv-x="917" d="M106 627v45q0 47 44 47h618q45 0 45 -47v-45q0 -47 -45 -47h-618q-44 0 -44 47z" />
<glyph unicode="&#x2012;" horiz-adv-x="917" d="M106 627v45q0 47 44 47h618q45 0 45 -47v-45q0 -47 -45 -47h-618q-44 0 -44 47z" />
<glyph unicode="&#x2013;" horiz-adv-x="968" d="M98 586v45q0 47 43 47h684q45 0 45 -47v-45q0 -47 -45 -47h-684q-43 0 -43 47z" />
<glyph unicode="&#x2014;" horiz-adv-x="1705" d="M98 586v45q0 47 43 47h1422q45 0 45 -47v-45q0 -47 -45 -47h-1422q-43 0 -43 47z" />
<glyph unicode="&#x2018;" horiz-adv-x="380" d="M88 1257v123q0 20 6 35l74 162q13 29 21.5 35t29.5 6h29q18 0 22.5 -9.5t-0.5 -31.5l-43 -166h17q45 0 45 -43v-111q0 -47 -45 -47h-111q-45 0 -45 47z" />
<glyph unicode="&#x2019;" horiz-adv-x="370" d="M94 1462v109q0 47 45 47h111q45 0 45 -47v-121q0 -20 -6 -35l-74 -162q-13 -30 -21.5 -36.5t-29.5 -6.5h-29q-18 0 -23.5 9.5t-0.5 33.5l45 164h-17q-45 0 -45 45z" />
<glyph unicode="&#x201a;" horiz-adv-x="393" d="M94 45v109q0 47 45 47h115q45 0 45 -47v-121q0 -20 -6 -35l-88 -227q-11 -28 -21 -34.5t-32 -6.5h-27q-18 0 -24 9.5t-1 31.5l60 229h-21q-45 0 -45 45z" />
<glyph unicode="&#x201c;" horiz-adv-x="704" d="M88 1257v123q0 20 6 35l74 162q13 29 21.5 35t29.5 6h29q18 0 22.5 -9.5t-0.5 -31.5l-43 -166h17q45 0 45 -43v-111q0 -47 -45 -47h-111q-45 0 -45 47zM412 1257v123q0 20 6 35l74 162q13 29 21.5 35t29.5 6h28q18 0 23 -9.5t0 -31.5l-43 -166h16q45 0 45 -43v-111 q0 -47 -45 -47h-110q-45 0 -45 47z" />
<glyph unicode="&#x201d;" horiz-adv-x="694" d="M94 1462v109q0 47 45 47h111q45 0 45 -47v-121q0 -20 -6 -35l-74 -162q-13 -30 -21.5 -36.5t-29.5 -6.5h-29q-18 0 -23.5 9.5t-0.5 33.5l45 164h-17q-45 0 -45 45zM418 1462v109q0 47 45 47h110q45 0 45 -47v-121q0 -20 -6 -35l-73 -162q-13 -30 -22 -36.5t-30 -6.5h-28 q-18 0 -23 10t0 33l43 164h-16q-45 0 -45 45z" />
<glyph unicode="&#x201e;" horiz-adv-x="718" d="M94 45v109q0 47 45 47h115q45 0 45 -47v-121q0 -20 -6 -35l-88 -227q-11 -28 -21 -34.5t-32 -6.5h-27q-18 0 -24 9.5t-1 31.5l60 229h-21q-45 0 -45 45zM422 45v109q0 47 45 47h115q45 0 45 -47v-121q0 -20 -9 -35l-86 -227q-12 -28 -22 -34.5t-31 -6.5h-26q-20 0 -25 9 t0 32l57 229h-18q-45 0 -45 45z" />
<glyph unicode="&#x2022;" horiz-adv-x="716" d="M137 649q0 92 64 155.5t155 63.5q95 0 158.5 -63t63.5 -156q0 -94 -63.5 -156.5t-158.5 -62.5q-91 0 -155 63t-64 156z" />
<glyph unicode="&#x2026;" horiz-adv-x="1034" d="M92 45v109q0 47 45 47h111q45 0 45 -47v-109q0 -45 -45 -45h-111q-45 0 -45 45zM416 45v109q0 47 45 47h112q43 0 43 -47v-109q0 -45 -43 -45h-112q-45 0 -45 45zM739 45v109q0 47 45 47h113q45 0 45 -47v-109q0 -45 -45 -45h-113q-45 0 -45 45z" />
<glyph unicode="&#x202f;" horiz-adv-x="432" />
<glyph unicode="&#x2039;" horiz-adv-x="512" d="M72 528v56q0 23 1 33t8 25.5t23 29.5l250 231q20 17 27 17q12 0 12 -54v-14q0 -31 -5.5 -45t-31.5 -49l-145 -191v-20l145 -189q27 -36 32 -50t5 -50v-16q0 -54 -12 -54q-7 0 -27 17l-250 231q-16 13 -23 28.5t-8 26.5t-1 37z" />
<glyph unicode="&#x203a;" horiz-adv-x="512" d="M117 242v16q0 36 5 50t32 50l145 189v20l-145 191q-26 35 -31.5 49t-5.5 45v14q0 54 12 54q7 0 27 -17l250 -231q16 -14 23 -29.5t8 -25.5t1 -33v-56q0 -26 -1 -37t-8 -26.5t-23 -28.5l-250 -231q-20 -17 -27 -17q-12 0 -12 54z" />
<glyph unicode="&#x205f;" horiz-adv-x="540" />
<glyph unicode="&#x20ac;" horiz-adv-x="1351" d="M61 643l11 33q17 45 59 45h115v121h-148q-24 0 -30 12t2 35l10 31q18 47 59 47h107v110q0 157 29 262.5t93 169.5t156 91.5t226 27.5q131 0 222.5 -26.5t156 -87.5t94.5 -163.5t30 -252.5q0 -47 -43 -47h-131q-45 0 -45 47q0 148 -27 230t-87 116.5t-168 34.5 q-159 0 -221 -82.5t-62 -298.5v-131h348q47 0 29 -47l-10 -31q-15 -47 -60 -47h-307v-121h340q46 0 29 -45l-11 -33q-15 -45 -61 -45h-297v-78q0 -216 62 -298.5t221 -82.5q108 0 168 34.5t87 116.5t27 230q0 47 45 47h133q43 0 43 -47q0 -153 -29 -255t-93 -163 t-155.5 -86.5t-225.5 -25.5q-136 0 -229 27.5t-156.5 91.5t-92 169.5t-28.5 262.5v57h-158q-44 0 -27 45z" />
<glyph unicode="&#x2122;" horiz-adv-x="1720" d="M47 1563v26q0 29 27 29h557q26 0 26 -29v-26q0 -29 -26 -29h-211v-864q0 -29 -27 -29h-82q-26 0 -26 29v864h-211q-27 0 -27 29zM772 670l49 919q0 29 27 29h78q16 0 23 -4t12 -23l227 -657l225 657q6 27 31 27h82q25 0 28 -29l48 -919q0 -29 -25 -29h-78q-26 0 -26 29 l-35 649l-193 -569q-6 -18 -12.5 -22.5t-22.5 -4.5h-47q-15 0 -21.5 4.5t-13.5 22.5l-192 569l-33 -649q-3 -29 -29 -29h-77q-25 0 -25 29z" />
<glyph unicode="&#x25fc;" horiz-adv-x="1300" d="M0 0v1300h1300v-1300h-1300z" />
<glyph unicode="&#xfb01;" horiz-adv-x="1093" d="M35 1214v35q0 47 45 47h98v68q0 216 77.5 306.5t244.5 90.5h129q45 0 45 -47v-35q0 -47 -45 -47h-146q-49 0 -67.5 -24.5t-18.5 -87.5v-224h510q45 0 45 -47v-1202q0 -47 -45 -47h-127q-45 0 -45 47v1120h-338v-1120q0 -47 -45 -47h-129q-45 0 -45 47v1120h-98 q-45 0 -45 47zM735 1540v139q0 47 43 47h131q43 0 43 -47v-139q0 -45 -43 -45h-131q-43 0 -43 45z" />
<glyph unicode="&#xfb02;" horiz-adv-x="1112" d="M35 1214v35q0 47 45 47h98v68q0 216 77.5 306.5t244.5 90.5h422q45 0 45 -47v-1667q0 -47 -45 -47h-127q-45 0 -45 47v1585h-267q-49 0 -67.5 -24.5t-18.5 -87.5v-224h201q45 0 45 -47v-35q0 -47 -45 -47h-201v-1120q0 -47 -45 -47h-129q-45 0 -45 47v1120h-98 q-45 0 -45 47z" />
</font>
</defs>
</svg>
